<?xml version="1.0" encoding="utf-8"?>
<!-- Generator: Adobe Illustrator 18.0.0, SVG Export Plug-In . SVG Version: 6.00 Build 0)  -->
<!DOCTYPE svg PUBLIC "-//W3C//DTD SVG 1.1//EN" "http://www.w3.org/Graphics/SVG/1.1/DTD/svg11.dtd">
<svg version="1.1" id="Capa_1" xmlns="http://www.w3.org/2000/svg" xmlns:xlink="http://www.w3.org/1999/xlink" x="0px" y="0px"
	 width="60px" height="60px" viewBox="0 0 60 60" enable-background="new 0 0 60 60" xml:space="preserve">

	<path id="Behance_1_" fill="#93B2B0" d="M53.9,16.3H39.1v-3.7h14.9L53.9,16.3L53.9,16.3z M29.2,31.4c1,1.5,1.4,3.3,1.4,5.4
		c0,2.2-0.5,4.2-1.6,5.9c-0.7,1.1-1.6,2.1-2.6,2.9c-1.2,0.9-2.6,1.5-4.2,1.9c-1.6,0.3-3.3,0.5-5.2,0.5H0.3V11h17.8
		c4.5,0.1,7.7,1.4,9.6,3.9c1.1,1.6,1.7,3.5,1.7,5.6c0,2.3-0.6,4.1-1.7,5.4c-0.6,0.8-1.6,1.5-2.8,2.1C26.8,28.8,28.2,29.9,29.2,31.4z
		 M8.8,25.6h7.8c1.6,0,2.9-0.3,3.9-0.9c1-0.6,1.5-1.7,1.5-3.2c0-1.7-0.7-2.9-2-3.4c-1.1-0.4-2.6-0.6-4.4-0.6H8.8V25.6z M22.8,36.3
		c0-1.9-0.8-3.2-2.4-4c-0.9-0.4-2.1-0.6-3.7-0.6H8.8v9.8h7.8c1.6,0,2.8-0.2,3.7-0.6C22,40.1,22.8,38.6,22.8,36.3z M59.5,30.3
		c0.2,1.2,0.3,3,0.2,5.3H40.4c0.1,2.7,1,4.5,2.8,5.6c1.1,0.7,2.3,1,3.8,1c1.6,0,2.9-0.4,3.8-1.2c0.5-0.4,1-1,1.4-1.8h7.1
		c-0.2,1.6-1,3.2-2.6,4.8c-2.4,2.6-5.7,3.9-10,3.9c-3.5,0-6.6-1.1-9.3-3.3c-2.7-2.2-4-5.7-4-10.6c0-4.6,1.2-8.1,3.6-10.6
		c2.4-2.5,5.6-3.7,9.5-3.7c2.3,0,4.4,0.4,6.2,1.2c1.8,0.8,3.4,2.1,4.6,3.9C58.4,26.4,59.1,28.2,59.5,30.3z M52.5,31
		c-0.1-1.8-0.7-3.2-1.8-4.2c-1.1-1-2.5-1.4-4.1-1.4c-1.8,0-3.2,0.5-4.1,1.5c-1,1-1.6,2.4-1.8,4.1L52.5,31L52.5,31z"/>

</svg>
