<?xml version="1.0" encoding="utf-8"?>
<!-- Generator: Adobe Illustrator 18.0.0, SVG Export Plug-In . SVG Version: 6.00 Build 0)  -->
<!DOCTYPE svg PUBLIC "-//W3C//DTD SVG 1.1//EN" "http://www.w3.org/Graphics/SVG/1.1/DTD/svg11.dtd">
<svg version="1.1" id="Capa_1" xmlns="http://www.w3.org/2000/svg" xmlns:xlink="http://www.w3.org/1999/xlink" x="0px" y="0px"
	 viewBox="16.7 838.9 200 154.1" enable-background="new 16.7 838.9 200 154.1" xml:space="preserve">
<linearGradient id="SVGID_1_" gradientUnits="userSpaceOnUse" x1="110.5433" y1="-71.1572" x2="83.3591" y2="0.8274" gradientTransform="matrix(1.332 -0.2184 -0.2184 -1.332 -16.5431 907.3839)">
	<stop  offset="0" style="stop-color:#93B7BE"/>
								
	<stop  offset="0.38" style="stop-color:#87aab1"/>
		
	<stop  offset="1" style="stop-color:#000000"/>
</linearGradient>
<polygon opacity="0.5" fill="url(#SVGID_1_)" enable-background="new    " points="120.3,993 25.7,932.3 151.6,855 216.7,937 "/>
<g>
	<path fill="#BCBABF" d="M117.8,887c-4,3.2-10,2.5-13-1.5l-3.2-4c-3.2-4-2.5-10,1.5-13l30.4-24.1c4-3.2,10-2.5,13,1.5l3.2,4
		c3.2,4,2.5,10-1.5,13L117.8,887z"/>
	<path fill="#E6E6E5" d="M134.1,852.9c3.7-2.9,7.5-5.5,11.1-8.4c-3.4-2.6-8.3-2.9-11.8-0.2L103,868.4c-3.7,2.9-4.6,7.8-2.3,11.8
		C111.7,871,122.8,861.8,134.1,852.9z"/>
	<circle fill="#BCBABF" cx="78.4" cy="900.6" r="61.7"/>
	<path fill="#E6E6E5" d="M35.7,924.1c15.7-16.9,32-32.9,49-48.4c8.8-8,17.6-15.8,26.4-24.1c0.6-0.6,1.4-1.4,2.1-2.1
		c-10.1-6.7-22-10.6-34.8-10.6c-34.2,0-61.7,27.5-61.7,61.6c0,12.3,3.7,23.8,10,33.3C29.4,930.7,32.5,927.3,35.7,924.1z"/>
	<circle fill="#622E12" cx="78.4" cy="900.6" r="53.1"/>
</g>
</svg>
