<?xml version="1.0" encoding="utf-8"?>
<!-- Generator: Adobe Illustrator 18.0.0, SVG Export Plug-In . SVG Version: 6.00 Build 0)  -->
<!DOCTYPE svg PUBLIC "-//W3C//DTD SVG 1.1//EN" "http://www.w3.org/Graphics/SVG/1.1/DTD/svg11.dtd">
<svg version="1.1" id="Capa_1" xmlns="http://www.w3.org/2000/svg" xmlns:xlink="http://www.w3.org/1999/xlink" x="0px" y="0px"
	 viewBox="0 0 254 243.3" enable-background="new 0 0 254 243.3" xml:space="preserve">
<g>
	<path fill="#33434F" d="M211,189.6L90.3,242.1c-7,3-15.2-0.2-18.2-7.2L1.1,71.8c-3-7,0.2-15.2,7.2-18.2L129.1,1.1
		c7-3,15.2,0.2,18.2,7.2l70.9,163.1C221.2,178.4,218,186.6,211,189.6z"/>
	
		<rect x="40" y="35" transform="matrix(0.9171 -0.3988 0.3988 0.9171 -40.1663 54.5954)" fill="#FFFFFF" width="142.4" height="177.7"/>
	
		<rect x="73.7" y="197.2" transform="matrix(0.9171 -0.3988 0.3988 0.9171 -68.303 74.481)" fill="#BFBFBF" width="142.4" height="8.5"/>
	
		<rect x="42.4" y="17.7" transform="matrix(0.9171 -0.3988 0.3988 0.9171 -5.3561 30.6511)" fill="#EFEFEF" width="57.3" height="21"/>
	<g>
		<ellipse transform="matrix(0.9187 -0.395 0.395 0.9187 -8.5043 21.4085)" fill="#B7B7B7" cx="47.7" cy="31.4" rx="1.6" ry="1.6"/>
		<ellipse transform="matrix(0.9187 -0.395 0.395 0.9187 2.3135 37.0139)" fill="#A8A8A8" cx="91.1" cy="12.9" rx="1.6" ry="1.6"/>
	</g>
	
		<rect x="21.7" y="56.2" transform="matrix(0.9171 -0.3988 0.3988 0.9171 -16.9627 38.9626)" fill="none" stroke="#BABABA" stroke-width="1.3825" stroke-miterlimit="10" width="126.9" height="8.1"/>
	<g>
		
			<rect x="81.5" y="63.6" transform="matrix(-0.9171 0.3988 -0.3988 -0.9171 262.6724 111.011)" fill="none" stroke="#BABABA" stroke-width="1.3825" stroke-miterlimit="10" width="76.5" height="38.4"/>
	</g>
	<g>
		
			<rect x="34.6" y="91.8" transform="matrix(-0.9171 0.3988 -0.3988 -0.9171 139.5848 155.7051)" fill="#D8D8D8" width="37.9" height="1.1"/>
		
			<rect x="36.3" y="95.7" transform="matrix(0.9171 -0.3988 0.3988 0.9171 -33.7809 30.0192)" fill="#D8D8D8" width="37.9" height="1.1"/>
		
			<rect x="38" y="99.5" transform="matrix(0.9171 -0.3988 0.3988 0.9171 -35.1742 31.0039)" fill="#D8D8D8" width="37.9" height="1.1"/>
		
			<rect x="39.7" y="103.4" transform="matrix(0.9171 -0.3988 0.3988 0.9171 -36.5676 31.9887)" fill="#D8D8D8" width="37.9" height="1.1"/>
		
			<rect x="41.3" y="107.2" transform="matrix(0.9171 -0.3988 0.3988 0.9171 -37.9609 32.9734)" fill="#D8D8D8" width="37.9" height="1.1"/>
		
			<rect x="43" y="111" transform="matrix(0.9171 -0.3988 0.3988 0.9171 -39.3544 33.9583)" fill="#D8D8D8" width="37.9" height="1.1"/>
		
			<rect x="44.7" y="114.9" transform="matrix(0.9171 -0.3988 0.3988 0.9171 -40.7477 34.943)" fill="#D8D8D8" width="37.9" height="1.1"/>
		
			<rect x="46.3" y="118.7" transform="matrix(0.9171 -0.3988 0.3988 0.9171 -42.141 35.9278)" fill="#D8D8D8" width="37.9" height="1.1"/>
		
			<rect x="48" y="122.6" transform="matrix(0.9171 -0.3988 0.3988 0.9171 -43.5344 36.9125)" fill="#D8D8D8" width="37.9" height="1.1"/>
		
			<rect x="49.7" y="126.4" transform="matrix(-0.9171 0.3988 -0.3988 -0.9171 182.1937 215.9933)" fill="#D8D8D8" width="37.9" height="1.1"/>
	</g>
	<g>
		
			<rect x="61.8" y="134.2" transform="matrix(-0.9171 0.3988 -0.3988 -0.9171 232.495 258.5831)" fill="none" stroke="#BABABA" stroke-width="1.3825" stroke-miterlimit="10" width="55.1" height="38.4"/>
	</g>
	<g>
		
			<rect x="119.7" y="108.5" transform="matrix(-0.9171 0.3988 -0.3988 -0.9171 335.9353 185.4762)" fill="none" stroke="#BABABA" stroke-width="1.3825" stroke-miterlimit="10" width="58" height="38.4"/>
	</g>
</g>
<g id="pencil">
	<g>
		<g>
			<path fill="#E5E5E5" d="M239.4,120.8l-1.2,2.2c-0.7,1.4-0.1,3.2,1.4,4l7.5,3.9c1.5,0.8,3.4,0.3,4.1-1.1l1.2-2.2L239.4,120.8z"/>
			<path fill="#C9C9C9" d="M239.4,120.8l1.2-2.2c0.7-1.4,2.6-1.9,4.1-1.1l7.5,3.9c1.5,0.8,2.2,2.6,1.4,4l-1.2,2.2L239.4,120.8z"/>
		</g>
		<g>
			<path fill="#E5E5E5" d="M239.4,120.8l-1.2,2.2c-0.7,1.4-0.1,3.2,1.4,4l7.5,3.9c1.5,0.8,3.4,0.3,4.1-1.1l1.2-2.2L239.4,120.8z"/>
			<path fill="#C9C9C9" d="M239.4,120.8l1.2-2.2c0.7-1.4,2.6-1.9,4.1-1.1l7.5,3.9c1.5,0.8,2.2,2.6,1.4,4l-1.2,2.2L239.4,120.8z"/>
		</g>
	</g>
	<g>
		<g>
			
				<rect x="154.8" y="101.5" transform="matrix(-0.8865 -0.4627 0.4627 -0.8865 332.4046 290.0794)" fill="#FFE048" width="93.9" height="5.6"/>
			
				<rect x="157.4" y="96.6" transform="matrix(-0.8865 -0.4627 0.4627 -0.8865 339.5345 281.9762)" fill="#F7AD4B" width="93.9" height="5.6"/>
		</g>
		<g>
			
				<rect x="154.8" y="101.5" transform="matrix(-0.8865 -0.4627 0.4627 -0.8865 332.4046 290.0794)" fill="#FFE048" width="93.9" height="5.6"/>
			
				<rect x="157.4" y="96.6" transform="matrix(-0.8865 -0.4627 0.4627 -0.8865 339.5345 281.9762)" fill="#F7AD4B" width="93.9" height="5.6"/>
		</g>
	</g>
	<polygon fill="#E8B58B" points="158.6,84.9 159.5,85.3 164.6,75.5 163.7,75 149.2,73.2 149,73.6 148.8,74 	"/>
	<polygon fill="#333231" points="149.3,74.6 147.5,72.8 150,73.3 	"/>
	<g>
		<g>
			
				<rect x="242" y="123.2" transform="matrix(0.8866 0.4625 -0.4625 0.8866 85.8465 -98.2551)" fill="#33434F" width="2.6" height="5.6"/>
			
				<rect x="244.6" y="118.2" transform="matrix(0.8866 0.4625 -0.4625 0.8866 83.8595 -100.003)" fill="#33434F" width="2.6" height="5.6"/>
		</g>
		<g>
			
				<rect x="242" y="123.2" transform="matrix(0.8866 0.4625 -0.4625 0.8866 85.8465 -98.2551)" fill="#33434F" width="2.6" height="5.6"/>
			
				<rect x="244.6" y="118.2" transform="matrix(0.8866 0.4625 -0.4625 0.8866 83.8595 -100.003)" fill="#33434F" width="2.6" height="5.6"/>
		</g>
	</g>
</g>
</svg>
