<?xml version="1.0" encoding="utf-8"?>
<!-- Generator: Adobe Illustrator 18.0.0, SVG Export Plug-In . SVG Version: 6.00 Build 0)  -->
<!DOCTYPE svg PUBLIC "-//W3C//DTD SVG 1.1//EN" "http://www.w3.org/Graphics/SVG/1.1/DTD/svg11.dtd">
<svg version="1.1" id="Capa_1" xmlns="http://www.w3.org/2000/svg" xmlns:xlink="http://www.w3.org/1999/xlink" x="0px" y="0px"
	 viewBox="0 0 238.2 160.1" enable-background="new 0 0 238.2 160.1" xml:space="preserve">
<g id="file-2">
	<polygon fill="#FFFFFF" points="80.6,3.9 17.8,78.7 165.6,155.4 238.2,69 105.2,0 	"/>
	<g>
		<polygon fill="#E7E7E8" points="108.8,64.3 78,101 29.5,75.8 60.3,39.2 		"/>
		<g>
			<polygon fill="#E7E7E8" points="151.1,32.8 89,106.7 85.2,104.7 147.3,30.8 			"/>
			<polygon fill="#E7E7E8" points="159.2,37 97.2,110.9 93.4,108.9 155.4,35.1 			"/>
			<polygon fill="#E7E7E8" points="167.4,41.3 105.3,115.2 101.5,113.2 163.6,39.3 			"/>
			<polygon fill="#E7E7E8" points="175.6,45.5 113.5,119.4 109.7,117.4 171.8,43.6 			"/>
			<polygon fill="#E7E7E8" points="183.7,49.8 121.7,123.6 117.9,121.7 180,47.8 			"/>
			<polygon fill="#E7E7E8" points="191.9,54 129.8,127.9 126,125.9 188.1,52 			"/>
			<polygon fill="#E7E7E8" points="200.1,58.2 138,132.1 134.2,130.1 196.3,56.3 			"/>
			<polygon fill="#E7E7E8" points="208.2,62.5 146.2,136.3 142.4,134.4 204.5,60.5 			"/>
			<polygon fill="#E7E7E8" points="216.4,66.7 154.3,140.6 150.6,138.6 212.6,64.8 			"/>
			<polygon fill="#E7E7E8" points="224.6,71 162.5,144.8 158.7,142.9 220.8,69 			"/>
		</g>
		<g>
			<path fill="#E7E7E8" d="M112.3,39c-2.1,2.3-4.7,3.8-4.7,3.8l-5.7-3l2-2.3l2.8,0.9c0,0,1.3-0.6,2.4-1.9c1.3-1.5,1.7-3.2,0.1-4
				c-3.5-1.8-8.4,6.9-15.7,3c-3.4-1.7-3.9-4.6-2.4-7.5l-3.8-2l2.3-2.7l3.7,1.9c2.1-2.1,4.5-3.4,4.5-3.4l5.2,2.9l-1.8,2.2l-2.8-0.8
				c0,0-1.4,0.8-2.2,1.8c-1.4,1.6-1.2,2.9,0,3.5c3.4,1.8,8.5-6.7,15.6-3.1c3.6,1.9,4.3,4.9,2.8,7.9l4.6,2.4l-2.3,2.7L112.3,39z"/>
		</g>
	</g>
	<polygon fill="#F2F1F1" points="80.6,3.9 105.2,0 95.4,11.6 	"/>
</g>
<g id="file-1">
	<polygon fill="#FFFFFF" points="32.8,34.2 0,120 169.6,160.1 207.5,61 54.9,24.9 	"/>
	<g>
		<polygon fill="#E7E7E8" points="81.9,85.7 65.8,127.8 10.1,114.6 26.2,72.6 		"/>
		<g>
			<polygon fill="#E7E7E8" points="110.9,46 78.4,130.7 74.1,129.7 106.5,45 			"/>
			<polygon fill="#E7E7E8" points="120.2,48.2 87.8,133 83.4,131.9 115.9,47.2 			"/>
			<polygon fill="#E7E7E8" points="129.6,50.4 97.2,135.2 92.8,134.1 125.3,49.4 			"/>
			<polygon fill="#E7E7E8" points="139,52.6 106.5,137.4 102.2,136.4 134.6,51.6 			"/>
			<polygon fill="#E7E7E8" points="148.4,54.8 115.9,139.6 111.6,138.6 144,53.8 			"/>
			<polygon fill="#E7E7E8" points="157.7,57.1 125.3,141.8 120.9,140.8 153.4,56 			"/>
			<polygon fill="#E7E7E8" points="167.1,59.3 134.7,144 130.3,143 162.8,58.3 			"/>
			<polygon fill="#E7E7E8" points="176.5,61.5 144,146.3 139.7,145.2 172.1,60.5 			"/>
			<polygon fill="#E7E7E8" points="185.9,63.7 153.4,148.5 149.1,147.4 181.5,62.7 			"/>
			<polygon fill="#E7E7E8" points="195.2,65.9 162.8,150.7 158.4,149.7 190.9,64.9 			"/>
		</g>
		<g>
			<path fill="#E7E7E8" d="M76,60.7c-1.2,2.6-3.1,4.7-3.1,4.7l-6.6-1.6l1-2.7l3,0.2c0,0,1-0.8,1.6-2.4c0.7-1.8,0.4-3.5-1.4-3.9
				c-4-0.9-5.5,8.4-14,6.4c-3.9-0.9-5.5-3.5-5.1-6.6l-4.4-1l1.2-3.1l4.2,1c1.2-2.5,3.1-4.2,3.1-4.2l6.1,1.6l-1,2.5l-3-0.1
				c0,0-1,1.1-1.5,2.2c-0.7,1.9-0.1,3.1,1.3,3.4c3.9,0.9,5.7-8.4,13.8-6.5c4.2,1,5.9,3.7,5.6,6.9l5.2,1.2l-1.2,3.1L76,60.7z"/>
		</g>
	</g>
	<polygon fill="#F2F1F1" points="32.8,34.2 54.9,24.9 49.8,38.2 	"/>
</g>
</svg>
