<?xml version="1.0" encoding="utf-8"?>
<!-- Generator: Adobe Illustrator 18.0.0, SVG Export Plug-In . SVG Version: 6.00 Build 0)  -->
<!DOCTYPE svg PUBLIC "-//W3C//DTD SVG 1.1//EN" "http://www.w3.org/Graphics/SVG/1.1/DTD/svg11.dtd">
<svg version="1.1" id="Capa_1" xmlns="http://www.w3.org/2000/svg" xmlns:xlink="http://www.w3.org/1999/xlink" x="0px" y="0px"
	 width="726px" height="350.1px" viewBox="-14 90 726 350.1" enable-background="new -14 90 726 350.1" xml:space="preserve">
<g>
	
		<linearGradient id="SVGID_1_" gradientUnits="userSpaceOnUse" x1="242.8217" y1="1426.1833" x2="242.8217" y2="1329.5167" gradientTransform="matrix(0.9868 -0.1618 0.1618 0.9868 -76.2688 -1.7409)">
		<stop  offset="0.3122" style="stop-color:#FFFFFF"/>
		<stop  offset="0.4724" style="stop-color:#FAFBFB"/>
		<stop  offset="0.6503" style="stop-color:#EDEDEE"/>
		<stop  offset="0.8359" style="stop-color:#D7D8D9"/>
		<stop  offset="1" style="stop-color:#BDBEC0"/>
	</linearGradient>
	<polygon fill="url(#SVGID_1_)" points="207.5,1369.8 128,1312 540.6,1248.6 644.5,1325.3 	"/>
	<g>
		<path fill="#BCBABF" d="M279.7,1284.5c1.5,11.7,0.9,28.7,4.2,32.7c3.2,4,8.4,9.8,26,6.9s69.5-11.4,74.7-12.2s18.3-7.4,17.8-15.2
			c-0.5-7.9-6.4-28-7-30.6C394.6,1263.3,279.7,1284.5,279.7,1284.5z"/>
		<path fill="#939298" d="M398.9,1279.6c-1.6-6.5-3.3-12.3-3.6-13.7c-0.6-2.7-115.6,18.5-115.6,18.5c0.6,4.4,0.8,9.5,1.1,14.5
			L398.9,1279.6z"/>
		<path fill="#BECBD3" d="M38.8,1214.2c-0.2-5.3,3.9-10.8,12.6-12.2c15.2-2.5,518.1-84.9,530.7-87c12.6-2.1,14.3-0.1,16.7,1.4
			s5.2,6.1,4.2,10C601.9,1130.4,38.8,1214.2,38.8,1214.2z"/>
		<path fill="#1F1919" d="M74.4,1202.1c-17.3,2.8-47.1,3.5-31,22c16.1,18.5,68.6,70.7,76.9,79.9c8.3,9.2,9.9,11.5,30.1,8.2
			c0,0,377.1-61.8,385.8-63.2c8.6-1.4,12.6-5.4,18.6-17.8c6-12.4,43.6-90.3,46.5-97.6c2.9-7.2,5.7-19.1-21-14.7
			C553.4,1123.2,74.4,1202.1,74.4,1202.1z"/>
		<path fill="#282222" d="M43.4,1224.1c16.1,18.5,68.6,70.7,76.9,79.9c8.3,9.2,9.9,11.5,30.1,8.2c0,0,187-30.7,300.7-49.3
			c-89-10.8-219.3-31.3-332.9-67.9c-27.1,4.5-43.7,7.2-43.7,7.2C57.1,1205,27.2,1205.6,43.4,1224.1z"/>
		<polygon fill="#323232" points="539,1230.7 585.7,1129.3 57.2,1215.9 131.4,1297.5 		"/>
		<path fill="#494949" d="M131.4,1297.5l259.8-42.6c-75.2-10.9-166-27.7-249.9-52.8l-84.1,13.8L131.4,1297.5z"/>
		<path fill="#BCBABF" d="M554.3,1231.9c-53.4,8.8-378.4,62-434.7,71.3c0.3,0.3,0.5,0.6,0.7,0.8c8.3,9.2,9.9,11.5,30.1,8.2
			c0,0,377.1-61.8,385.8-63.2C544.5,1247.5,548.5,1243.6,554.3,1231.9z"/>
	</g>
	<polygon fill="#FFFFFF" points="511.5,1229.1 552.2,1140.9 92.7,1216.2 157.2,1287.2 	"/>
	<polygon fill="#BFBFBF" points="92.7,1216.5 101.2,1225.8 546.9,1152.7 552.2,1141.1 	"/>
	<polygon fill="#BFBFBF" points="287.5,1259.7 278.9,1239.8 147.3,1261.3 161.5,1280.3 	"/>
	<polygon fill="#88BAD8" points="516.7,1192.9 531.9,1162.6 120.2,1230.1 142.5,1254.3 	"/>
	<polygon fill="#525252" points="546.2,1188.9 500.3,1196.4 516.7,1162.9 562.5,1155.4 	"/>
	<polygon fill="#FFFFFF" points="526.2,1171.3 519.9,1172.3 522.4,1167.6 528.7,1166.6 	"/>
	<polygon fill="#E57473" points="528.6,1203.7 522.3,1204.7 524.8,1200 531.2,1199 	"/>
	<polygon fill="#BFBFBF" points="547.6,1167.8 531.1,1170.5 534.7,1165.6 552,1162.8 	"/>
	
		<linearGradient id="SVGID_2_" gradientUnits="userSpaceOnUse" x1="380.6178" y1="1267.7047" x2="423.3661" y2="1267.7047" gradientTransform="matrix(0.9868 -0.1618 0.1618 0.9868 -76.2688 -1.7409)">
		<stop  offset="0.1347" style="stop-color:#FFEF26"/>
		<stop  offset="0.1491" style="stop-color:#DFE920"/>
		<stop  offset="0.1737" style="stop-color:#AEE018"/>
		<stop  offset="0.199" style="stop-color:#83D911"/>
		<stop  offset="0.2245" style="stop-color:#61D30B"/>
		<stop  offset="0.2502" style="stop-color:#46CE06"/>
		<stop  offset="0.2764" style="stop-color:#33CB03"/>
		<stop  offset="0.3033" style="stop-color:#28C901"/>
		<stop  offset="0.332" style="stop-color:#24C800"/>
		<stop  offset="0.4963" style="stop-color:#F18F34"/>
		<stop  offset="0.7755" style="stop-color:#00217F"/>
		<stop  offset="1" style="stop-color:#E3312D"/>
	</linearGradient>
	<polygon fill="url(#SVGID_2_)" points="539.9,1186 509.4,1191 513.6,1182 544.9,1176.9 	"/>
	<polygon fill="#BFBFBF" points="424.9,1237.2 426.5,1215.6 292.6,1237.5 301.3,1257.4 	"/>
</g>
<g>
	<g>
		<polygon fill="#FFFFFF" points="181.5,1415 118.7,1489.8 266.5,1566.5 339,1480.1 206,1411.1 		"/>
		<g>
			<polygon fill="#E7E7E8" points="209.7,1475.4 178.9,1512 130.4,1486.9 161.2,1450.2 			"/>
			<g>
				<polygon fill="#E7E7E8" points="251.9,1443.9 189.9,1517.7 186.1,1515.8 248.2,1441.9 				"/>
				<polygon fill="#E7E7E8" points="260.1,1448.1 198,1522 194.3,1520 256.3,1446.2 				"/>
				<polygon fill="#E7E7E8" points="268.3,1452.4 206.2,1526.2 202.4,1524.3 264.5,1450.4 				"/>
				<polygon fill="#E7E7E8" points="276.4,1456.6 214.4,1530.5 210.6,1528.5 272.7,1454.6 				"/>
				<polygon fill="#E7E7E8" points="284.6,1460.8 222.5,1534.7 218.8,1532.7 280.8,1458.9 				"/>
				<polygon fill="#E7E7E8" points="292.8,1465.1 230.7,1538.9 226.9,1537 289,1463.1 				"/>
				<polygon fill="#E7E7E8" points="300.9,1469.3 238.9,1543.2 235.1,1541.2 297.2,1467.4 				"/>
				<polygon fill="#E7E7E8" points="309.1,1473.6 247,1547.4 243.3,1545.5 305.3,1471.6 				"/>
				<polygon fill="#E7E7E8" points="317.3,1477.8 255.2,1551.7 251.4,1549.7 313.5,1475.8 				"/>
				<polygon fill="#E7E7E8" points="325.4,1482 263.4,1555.9 259.6,1553.9 321.7,1480.1 				"/>
			</g>
			<g>
				<path fill="#E7E7E8" d="M213.2,1450.1c-2.1,2.3-4.7,3.8-4.7,3.8l-5.7-3l2-2.3l2.8,0.9c0,0,1.3-0.6,2.4-1.9
					c1.3-1.5,1.7-3.2,0.1-4c-3.5-1.8-8.4,6.9-15.7,3c-3.4-1.7-3.9-4.6-2.4-7.5l-3.8-2l2.3-2.7l3.7,1.9c2.1-2.1,4.5-3.4,4.5-3.4
					l5.2,2.9l-1.8,2.2l-2.8-0.8c0,0-1.4,0.8-2.2,1.8c-1.4,1.6-1.2,2.9,0,3.5c3.4,1.8,8.5-6.7,15.6-3.1c3.6,1.9,4.3,4.9,2.8,7.9
					l4.6,2.4l-2.3,2.7L213.2,1450.1z"/>
			</g>
		</g>
		<polygon fill="#F2F1F1" points="181.5,1415 206,1411.1 196.3,1422.7 		"/>
	</g>
	<g>
		<polygon fill="#FFFFFF" points="133.7,1445.3 100.9,1531.1 270.5,1571.2 308.4,1472.1 155.8,1436 		"/>
		<g>
			<polygon fill="#E7E7E8" points="182.8,1496.8 166.7,1538.8 111,1525.7 127.1,1483.6 			"/>
			<g>
				<polygon fill="#E7E7E8" points="211.7,1457.1 179.3,1541.8 174.9,1540.8 207.4,1456 				"/>
				<polygon fill="#E7E7E8" points="221.1,1459.3 188.7,1544 184.3,1543 216.8,1458.2 				"/>
				<polygon fill="#E7E7E8" points="230.5,1461.5 198,1546.3 193.7,1545.2 226.1,1460.5 				"/>
				<polygon fill="#E7E7E8" points="239.9,1463.7 207.4,1548.5 203.1,1547.4 235.5,1462.7 				"/>
				<polygon fill="#E7E7E8" points="249.2,1465.9 216.8,1550.7 212.4,1549.7 244.9,1464.9 				"/>
				<polygon fill="#E7E7E8" points="258.6,1468.1 226.2,1552.9 221.8,1551.9 254.3,1467.1 				"/>
				<polygon fill="#E7E7E8" points="268,1470.4 235.5,1555.1 231.2,1554.1 263.6,1469.3 				"/>
				<polygon fill="#E7E7E8" points="277.4,1472.6 244.9,1557.3 240.6,1556.3 273,1471.5 				"/>
				<polygon fill="#E7E7E8" points="286.7,1474.8 254.3,1559.5 249.9,1558.5 282.4,1473.8 				"/>
				<polygon fill="#E7E7E8" points="296.1,1477 263.6,1561.8 259.3,1560.7 291.7,1476 				"/>
			</g>
			<g>
				<path fill="#E7E7E8" d="M176.9,1471.7c-1.2,2.6-3.1,4.7-3.1,4.7l-6.6-1.6l1-2.7l3,0.2c0,0,1-0.8,1.6-2.4
					c0.7-1.8,0.4-3.5-1.4-3.9c-4-0.9-5.5,8.4-14,6.4c-3.9-0.9-5.5-3.5-5.1-6.6l-4.4-1l1.2-3.1l4.2,1c1.2-2.5,3.1-4.2,3.1-4.2
					l6.1,1.6l-1,2.5l-3-0.1c0,0-1,1.1-1.5,2.2c-0.7,1.9-0.1,3.1,1.3,3.4c3.9,0.9,5.7-8.4,13.8-6.5c4.2,1,5.9,3.7,5.6,6.9l5.2,1.2
					l-1.2,3.1L176.9,1471.7z"/>
			</g>
		</g>
		<polygon fill="#F2F1F1" points="133.7,1445.3 155.8,1436 150.7,1449.3 		"/>
	</g>
</g>
<g>
	<g>
		<path fill="#BCBABF" d="M181.5,1594.3c-7.4,1.2-14.4-3.9-15.6-11.3l-18.9-118.7c-1.2-7.4,3.9-14.4,11.3-15.6l48.1-7.6
			c7.4-1.2,14.4,3.9,15.6,11.3l18.9,118.7c1.2,7.4-3.9,14.4-11.3,15.6L181.5,1594.3z"/>
		<path fill="#333333" d="M238.8,1571.4c1,6.2-3.3,12.1-9.5,13.1l-48.1,7.6c-6.2,1-12.1-3.3-13.1-9.5l-18.9-118.7
			c-1-6.2,3.3-12.1,9.5-13.1l48.1-7.6c6.2-1,12.1,3.3,13.1,9.5L238.8,1571.4z"/>
		<path fill="#525252" d="M238.4,1576.7c-20.2-29.3-57.6-84-83.3-124.6c-4.2,2.2-6.7,6.9-5.9,11.9l18.9,118.7
			c1,6.2,6.9,10.5,13.1,9.5l48.1-7.6C233.7,1583.8,237.1,1580.7,238.4,1576.7z"/>
	</g>
	
		<rect x="160.5" y="1456.7" transform="matrix(0.9876 -0.1571 0.1571 0.9876 -235.7179 49.2461)" fill="#1F1919" width="66.4" height="118.4"/>
	<path opacity="0.3" fill="#333333" d="M160.9,1461.2l-9.3,1.5l18.6,117l63.3-10.1C214.2,1541.6,184.1,1497.4,160.9,1461.2z"/>
	<g>
		<path fill="#BCBABF" d="M196.5,1587.3c-2.4,0.4-4.7-1.3-5.1-3.7c-0.4-2.4,1.3-4.7,3.7-5.1l16.8-2.7c2.4-0.4,4.7,1.3,5.1,3.7
			c0.4,2.4-1.3,4.7-3.7,5.1L196.5,1587.3z"/>
		<path fill="#1F1919" d="M216.2,1579.7c0.3,2-1.1,3.9-3.1,4.3l-16.8,2.7c-2,0.3-3.9-1.1-4.3-3.1l0,0c-0.3-2,1.1-3.9,3.1-4.3
			l16.8-2.7C214,1576.3,215.9,1577.7,216.2,1579.7L216.2,1579.7z"/>
		<path fill="#333333" d="M212,1576.6l-13.3,2.1c3,2.7,7.6,5.3,14,5.3l0.4-0.1c2-0.3,3.4-2.2,3.1-4.3
			C215.9,1577.7,214,1576.3,212,1576.6z"/>
	</g>
</g>
<g>
	<path fill="#49789B" d="M339.9,1518.9c0.5,1.3-0.1,2.9-1.4,3.4l-12.8,5.3c-1.3,0.6-2.9-0.1-3.4-1.4l-16.7-40.5
		c-0.5-1.3,0.1-2.9,1.4-3.4l12.8-5.3c1.3-0.6,2.9,0.1,3.4,1.4L339.9,1518.9z"/>
	<path fill="#B73E3E" d="M329.7,1494.2l-6.6-15.9c-0.5-1.3-2.1-2-3.4-1.4l-12.8,5.3c-1.3,0.5-2,2.1-1.4,3.4l6.6,15.9L329.7,1494.2z"
		/>
	<path fill="#C65454" d="M324.3,1481c0.2,0.4,0,1-0.5,1.1l-16,6.6c-0.4,0.2-1,0-1.1-0.5l-1.8-4.3c-0.2-0.4,0-1,0.5-1.1l16-6.6
		c0.4-0.2,1,0,1.1,0.5L324.3,1481z"/>
	
		<rect x="304.9" y="1481.6" transform="matrix(0.9245 -0.3813 0.3813 0.9245 -541.2888 231.7959)" fill="#F2C7C7" width="19" height="1"/>
	<path opacity="0.37" fill="#FCFCFC" d="M325.3,1523.9c0.2,0.5,0,1.2-0.6,1.4l0,0c-0.5,0.2-1.2,0-1.4-0.6l-12.6-30.5
		c-0.2-0.5,0-1.2,0.6-1.4l0,0c0.5-0.2,1.2,0,1.4,0.6L325.3,1523.9z"/>
</g>
<g>
	<path fill="#33434F" d="M621.7,1659L501,1711.5c-7,3-15.2-0.2-18.2-7.2l-70.9-163.1c-3-7,0.2-15.2,7.2-18.2l120.8-52.5
		c7-3,15.2,0.2,18.2,7.2l70.9,163.1C631.9,1647.7,628.7,1655.9,621.7,1659z"/>
	
		<rect x="450.7" y="1504.3" transform="matrix(0.9171 -0.3988 0.3988 0.9171 -592.0149 340.2468)" fill="#FFFFFF" width="142.4" height="177.7"/>
	
		<rect x="484.4" y="1666.5" transform="matrix(0.9171 -0.3988 0.3988 0.9171 -620.1516 360.1324)" fill="#BFBFBF" width="142.4" height="8.5"/>
	
		<rect x="454.2" y="1492.4" transform="matrix(0.9171 -0.3988 0.3988 0.9171 -560.3286 311.8824)" fill="#EFEFEF" width="30.7" height="21"/>
	
		<rect x="481.1" y="1480.7" transform="matrix(0.9171 -0.3988 0.3988 0.9171 -553.4321 321.6404)" fill="#C9C9C9" width="30.7" height="21"/>
	<g>
		
			<ellipse transform="matrix(0.9187 -0.395 0.395 0.9187 -555.4919 303.1236)" fill="#B7B7B7" cx="458.5" cy="1500.7" rx="1.6" ry="1.6"/>
		
			<ellipse transform="matrix(0.9187 -0.395 0.395 0.9187 -544.1187 319.4394)" fill="#A8A8A8" cx="503.8" cy="1481.2" rx="1.6" ry="1.6"/>
	</g>
	
		<rect x="432.4" y="1525.6" transform="matrix(0.9171 -0.3988 0.3988 0.9171 -568.8113 324.614)" fill="none" stroke="#BABABA" stroke-width="1.3825" stroke-miterlimit="10" width="126.9" height="8.1"/>
	<g>
		
			<rect x="492.2" y="1532.9" transform="matrix(-0.9171 0.3988 -0.3988 -0.9171 1635.9589 2764.0557)" fill="none" stroke="#BABABA" stroke-width="1.3825" stroke-miterlimit="10" width="76.5" height="38.4"/>
	</g>
	<g>
		
			<rect x="445.4" y="1561.2" transform="matrix(-0.9171 0.3988 -0.3988 -0.9171 1512.871 2808.75)" fill="#D8D8D8" width="37.9" height="1.1"/>
		
			<rect x="447" y="1565" transform="matrix(0.9171 -0.3988 0.3988 0.9171 -585.6295 315.6706)" fill="#D8D8D8" width="37.9" height="1.1"/>
		
			<rect x="448.7" y="1568.9" transform="matrix(0.9171 -0.3988 0.3988 0.9171 -587.0228 316.6554)" fill="#D8D8D8" width="37.9" height="1.1"/>
		
			<rect x="450.4" y="1572.7" transform="matrix(0.9171 -0.3988 0.3988 0.9171 -588.4161 317.6401)" fill="#D8D8D8" width="37.9" height="1.1"/>
		
			<rect x="452" y="1576.5" transform="matrix(0.9171 -0.3988 0.3988 0.9171 -589.8095 318.6248)" fill="#D8D8D8" width="37.9" height="1.1"/>
		
			<rect x="453.7" y="1580.4" transform="matrix(0.9171 -0.3988 0.3988 0.9171 -591.203 319.6097)" fill="#D8D8D8" width="37.9" height="1.1"/>
		
			<rect x="455.4" y="1584.2" transform="matrix(0.9171 -0.3988 0.3988 0.9171 -592.5963 320.5944)" fill="#D8D8D8" width="37.9" height="1.1"/>
		
			<rect x="457.1" y="1588.1" transform="matrix(0.9171 -0.3988 0.3988 0.9171 -593.9896 321.5792)" fill="#D8D8D8" width="37.9" height="1.1"/>
		
			<rect x="458.7" y="1591.9" transform="matrix(0.9171 -0.3988 0.3988 0.9171 -595.383 322.5639)" fill="#D8D8D8" width="37.9" height="1.1"/>
		
			<rect x="460.4" y="1595.8" transform="matrix(-0.9171 0.3988 -0.3988 -0.9171 1555.4799 2869.0381)" fill="#D8D8D8" width="37.9" height="1.1"/>
	</g>
	<g>
		
			<rect x="472.5" y="1603.6" transform="matrix(-0.9171 0.3988 -0.3988 -0.9171 1605.7817 2911.6274)" fill="none" stroke="#BABABA" stroke-width="1.3825" stroke-miterlimit="10" width="55.1" height="38.4"/>
	</g>
	<g>
		
			<rect x="530.4" y="1577.8" transform="matrix(-0.9171 0.3988 -0.3988 -0.9171 1709.222 2838.5205)" fill="none" stroke="#BABABA" stroke-width="1.3825" stroke-miterlimit="10" width="58" height="38.4"/>
	</g>
</g>
<g>
	<g>
		<g>
			<path fill="#E5E5E5" d="M650.2,1590.1l-1.2,2.2c-0.7,1.4-0.1,3.2,1.4,4l7.5,3.9c1.5,0.8,3.4,0.3,4.1-1.1l1.2-2.2L650.2,1590.1z"
				/>
			<path fill="#C9C9C9" d="M650.2,1590.1l1.2-2.2c0.7-1.4,2.6-1.9,4.1-1.1l7.5,3.9c1.5,0.8,2.2,2.6,1.4,4l-1.2,2.2L650.2,1590.1z"/>
		</g>
		<g>
			<path fill="#E5E5E5" d="M650.2,1590.1l-1.2,2.2c-0.7,1.4-0.1,3.2,1.4,4l7.5,3.9c1.5,0.8,3.4,0.3,4.1-1.1l1.2-2.2L650.2,1590.1z"
				/>
			<path fill="#C9C9C9" d="M650.2,1590.1l1.2-2.2c0.7-1.4,2.6-1.9,4.1-1.1l7.5,3.9c1.5,0.8,2.2,2.6,1.4,4l-1.2,2.2L650.2,1590.1z"/>
		</g>
	</g>
	<g>
		<g>
			
				<rect x="565.5" y="1570.8" transform="matrix(-0.8865 -0.4627 0.4627 -0.8865 427.2902 3252.0505)" fill="#FFE048" width="93.9" height="5.6"/>
			
				<rect x="568.1" y="1565.9" transform="matrix(-0.8865 -0.4627 0.4627 -0.8865 434.4202 3243.947)" fill="#F7AD4B" width="93.9" height="5.6"/>
		</g>
		<g>
			
				<rect x="565.5" y="1570.8" transform="matrix(-0.8865 -0.4627 0.4627 -0.8865 427.2902 3252.0505)" fill="#FFE048" width="93.9" height="5.6"/>
			
				<rect x="568.1" y="1565.9" transform="matrix(-0.8865 -0.4627 0.4627 -0.8865 434.4202 3243.947)" fill="#F7AD4B" width="93.9" height="5.6"/>
		</g>
	</g>
	<polygon fill="#E8B58B" points="569.3,1554.2 570.2,1554.7 575.4,1544.8 574.4,1544.4 559.9,1542.5 559.7,1542.9 559.5,1543.3 	"/>
	<polygon fill="#333231" points="560,1543.9 558.2,1542.2 560.7,1542.6 	"/>
	<g>
		<g>
			
				<rect x="652.7" y="1592.5" transform="matrix(0.8866 0.4625 -0.4625 0.8866 812.0631 -121.6008)" fill="#33434F" width="2.6" height="5.6"/>
			
				<rect x="655.3" y="1587.6" transform="matrix(0.8866 0.4625 -0.4625 0.8866 810.0761 -123.3487)" fill="#33434F" width="2.6" height="5.6"/>
		</g>
		<g>
			
				<rect x="652.7" y="1592.5" transform="matrix(0.8866 0.4625 -0.4625 0.8866 812.0631 -121.6008)" fill="#33434F" width="2.6" height="5.6"/>
			
				<rect x="655.3" y="1587.6" transform="matrix(0.8866 0.4625 -0.4625 0.8866 810.0761 -123.3487)" fill="#33434F" width="2.6" height="5.6"/>
		</g>
	</g>
</g>
<g>
	<path opacity="0.17" fill="#020202" d="M569.1,1390.2c0,0-3.6-4.9-7.8-10.6c5.7-6,5.1-17.6,6.4-19.4c1.4-2,3.9-1.8,3.9-1.8l0.3-4.1
		c0,0-7.2-1.5-29.5-3c-22.3-1.5-26.9,2.9-32.8,2.8c-0.5,0-0.9,0-1.4,0c-0.4,0-0.9-0.1-1.4-0.2c-5.8-0.7-9.9-5.6-32.1-7.1
		c-22.3-1.5-29.6-0.9-29.6-0.9l-0.3,4.1c0,0,2.5,0.2,3.7,2.3c1.2,2.1-1.5,15.4,5.3,21.7c0,0,0,0,0.1,0c-4.6,4.6-8.2,8.5-8.2,8.5
		s-0.9,3.3,1.8,3.6c2.8,0.3,2.7,1.8,7.3-4.5c1-1.4,2.2-3.1,3.6-5c9.6,3.8,27.5,4.1,32.7,2.9c6.2-1.5,9.7-14.7,12.5-17.2
		c0.1-0.1,0.2-0.1,0.2-0.2c0.8-0.2,2.4-0.6,4-0.7c1.6,0.2,3.1,0.8,3.9,1.2c0.1,0.1,0.1,0.1,0.2,0.2c2.4,2.8,4.2,16.4,10.2,18.7
		c5.4,2.1,25.8,4.3,35.1,0.7c1.1,2.2,2.2,4.2,3,5.8c3.8,6.8,3.9,5.4,6.7,5.4C569.6,1393.6,569.1,1390.2,569.1,1390.2z"/>
	<g>
		<path d="M448.4,1382.7c0,0-0.9,3.3,1.8,3.6c2.8,0.3,2.7,1.8,7.3-4.5c4.7-6.3,13.2-19.9,18.3-21.7c5.1-1.9,10.6-2.7,20-1.9
			c9.5,0.8,14.1,0.9,14.1,0.9l-0.7-3l-55.5-6l-0.1,1.9l30.9,4.2c0,0-7.5-1.4-14.7,5C462.7,1367.7,448.4,1382.7,448.4,1382.7"/>
		<path d="M571.9,1390.2c0,0,0.5,3.4-2.3,3.4c-2.8,0-2.9,1.4-6.7-5.4c-3.8-6.8-10.4-21.5-15.2-24c-4.8-2.5-10.1-4-19.6-4.5
			c-9.5-0.5-14.1-0.9-14.1-0.9l1.1-2.8l55.8,1.3l-0.1,1.9l-31.2,0.1c0,0,7.6-0.4,13.9,6.9C559.7,1373.5,571.9,1390.2,571.9,1390.2"
			/>
		<g opacity="0.25">
			<polygon fill="#F0F0F2" points="451.3,1347.1 471.5,1348.4 494.4,1349.9 506.8,1356.6 498.1,1372.3 493.1,1377.9 474.8,1378 
				460,1375 454.7,1368.8 452.3,1356.5 			"/>
		</g>
		<polygon opacity="0.24" fill="#F0F0F2" points="569.9,1354.9 550.3,1353.6 528.1,1352.2 515.2,1357.2 521.5,1373.8 525.6,1380.1 
			543.2,1382.6 557.9,1381.5 563.8,1376 567.7,1364.1 		"/>
		<path d="M545.2,1351.5c-22.3-1.5-26.9,2.9-32.8,2.8c-0.5,0-0.9,0-1.4,0c-0.4,0-0.9-0.1-1.4-0.2c-5.8-0.7-9.9-5.6-32.1-7.1
			c-22.3-1.5-29.6-0.9-29.6-0.9l-0.3,4.1c0,0,2.5,0.2,3.7,2.3c1.2,2.1-1.5,15.4,5.3,21.7c6.7,6.3,31,7,37.2,5.5
			c6.2-1.5,9.7-14.7,12.5-17.2c0.1-0.1,0.2-0.1,0.2-0.2c0.8-0.2,2.4-0.6,4-0.7c1.6,0.2,3.1,0.8,3.9,1.2c0.1,0.1,0.1,0.1,0.2,0.2
			c2.4,2.8,4.2,16.4,10.2,18.7c6,2.3,30.1,4.8,37.6-0.6c7.5-5.4,6.7-18.9,8.1-20.8c1.4-2,3.9-1.8,3.9-1.8l0.3-4.1
			C574.7,1354.5,567.5,1353,545.2,1351.5 M503.6,1359c-0.3,2.2-5,13.9-9.2,16.9c-4.2,3.1-24.4,0.3-32.2-2.1
			c-7.7-2.4-6.9-8.5-7.5-15.1c-0.6-6.6,0-8.6,1.5-9.1c1.5-0.5,32.8,0.7,40,3.1C503.4,1355,503.9,1356.8,503.6,1359 M566.2,1366
			c-1.5,6.5-1.4,12.6-9.4,14c-8,1.4-28.5,1.5-32.2-2.1c-3.7-3.6-6.9-15.8-6.9-18c0-2.2,0.7-3.9,8.1-5.3c7.4-1.4,38.6,1.5,40.1,2.2
			C567.3,1357.5,567.6,1359.5,566.2,1366"/>
		<path fill="#F0F0F2" d="M523.1,1368.5c0,0-4.1-7.6-2.5-9.9c1.5-2.3,6.9-2.8,6.9-2.8s-5.8,1.3-6.1,3.8
			C521,1362.1,523.1,1368.5,523.1,1368.5z"/>
		<path fill="#F0F0F2" d="M457.3,1363.7c0,0,0.3,5.2,2.7,6.6c2.4,1.4,6.2,1.4,6.2,1.4s-4.8-0.8-6.5-2.6S457.3,1363.7,457.3,1363.7z"
			/>
	</g>
</g>
<linearGradient id="SVGID_3_" gradientUnits="userSpaceOnUse" x1="515.2414" y1="1448.7065" x2="515.2414" y2="1356.9614" gradientTransform="matrix(0.9868 -0.1618 0.1618 0.9868 -76.2688 -1.7409)">
	<stop  offset="0.3122" style="stop-color:#FFFFFF"/>
	<stop  offset="0.4724" style="stop-color:#FAFBFB"/>
	<stop  offset="0.6503" style="stop-color:#EDEDEE"/>
	<stop  offset="0.8359" style="stop-color:#D7D8D9"/>
	<stop  offset="1" style="stop-color:#BDBEC0"/>
</linearGradient>
<polygon fill="url(#SVGID_3_)" points="626.3,1351.1 601.9,1304.1 695.1,1246.9 716.2,1293.3 "/>
<g>
	<path fill="#BCBABF" d="M670.1,1270.6c-3,2.4-7.3,1.9-9.7-1.1l-2.4-3c-2.4-3-1.9-7.3,1.1-9.7l22.5-17.8c3-2.4,7.3-1.9,9.7,1.1
		l2.4,3c2.4,3,1.9,7.3-1.1,9.7L670.1,1270.6z"/>
	<path fill="#E6E6E5" d="M682.1,1245.2c2.7-2.1,5.5-4.2,8.2-6.2c-2.5-2-6.1-2.2-8.7-0.1l-22.5,17.8c-2.7,2.1-3.4,5.9-1.7,8.8
		C665.5,1258.5,673.7,1251.8,682.1,1245.2z"/>
	<circle fill="#BCBABF" cx="640.8" cy="1280.5" r="45.7"/>
	<path fill="#E6E6E5" d="M609.2,1297.9c11.6-12.4,23.7-24.4,36.2-35.8c6.5-6,13.1-11.8,19.6-17.9c0.5-0.5,1-1,1.5-1.5
		c-7.3-5-16.1-7.9-25.6-7.9c-25.2,0-45.7,20.4-45.7,45.7c0,9.1,2.7,17.6,7.3,24.7C604.7,1302.8,606.9,1300.4,609.2,1297.9z"/>
	<circle fill="#622E12" cx="640.8" cy="1280.5" r="39.4"/>
</g>
<linearGradient id="SVGID_4_" gradientUnits="userSpaceOnUse" x1="693.6296" y1="404.8652" x2="654.4271" y2="328.1782" gradientTransform="matrix(0.9196 -0.1507 0.1618 0.9868 -27.6516 -9.7106)">
	<stop  offset="0.1867" style="stop-color:#93B2B0"/>
	<stop  offset="0.3007" style="stop-color:#8FAEAC"/>
	<stop  offset="0.423" style="stop-color:#85A19F"/>
	<stop  offset="0.5492" style="stop-color:#738B8A"/>
	<stop  offset="0.6781" style="stop-color:#5A6D6C"/>
	<stop  offset="0.8091" style="stop-color:#3A4746"/>
	<stop  offset="0.94" style="stop-color:#141818"/>
	<stop  offset="1" style="stop-color:#000000"/>
</linearGradient>
<polygon opacity="0.5" fill="url(#SVGID_4_)" points="635.5,290.7 597.1,240.4 661.5,198.6 697.6,248.4 "/>
<g>
	<linearGradient id="SVGID_5_" gradientUnits="userSpaceOnUse" x1="460.3107" y1="431.5823" x2="412.9296" y2="162.871">
		<stop  offset="0.1867" style="stop-color:#93B2B0"/>
		<stop  offset="0.2887" style="stop-color:#8FADAB"/>
		<stop  offset="0.4128" style="stop-color:#829E9C"/>
		<stop  offset="0.5484" style="stop-color:#6E8584"/>
		<stop  offset="0.6922" style="stop-color:#526362"/>
		<stop  offset="0.8426" style="stop-color:#2D3736"/>
		<stop  offset="0.9962" style="stop-color:#010101"/>
		<stop  offset="1" style="stop-color:#000000"/>
	</linearGradient>
	<polygon opacity="0.5" fill="url(#SVGID_5_)" points="489.3,426.5 211.5,198.4 552.2,199.1 656.9,368.5 	"/>
	<g>
		<g>
			<g>
				<path fill="#F1F1F1" d="M552.2,436.5c0,2-1.7,3.6-3.7,3.6H213.1c-2.1,0-3.7-1.6-3.7-3.6V219.1c0-2,1.7-3.6,3.7-3.6h335.4
					c2.1,0,3.7,1.6,3.7,3.6V436.5z"/>
				<g>
					<path fill-rule="evenodd" clip-rule="evenodd" fill="#424242" d="M518.6,247.8h10.7c1.2,0,2.2,1,2.2,2.2v7.9
						c0,1.2-1,2.2-2.2,2.2h-10.7c-1.2,0-2.2-1-2.2-2.2V250C516.4,248.8,517.4,247.8,518.6,247.8"/>
					<path fill-rule="evenodd" clip-rule="evenodd" fill="#424242" d="M519.1,262.9h9.7c1.5,0,2.7,1.2,2.7,2.7v10.8
						c0,1.5-1.2,2.7-2.7,2.7h-9.7c-1.5,0-2.7-1.2-2.7-2.7v-10.8C516.4,264.2,517.6,262.9,519.1,262.9"/>
					<path fill-rule="evenodd" clip-rule="evenodd" fill="#424242" d="M519.1,281.9h9.7c1.5,0,2.7,1.2,2.7,2.7v10.7
						c0,1.5-1.2,2.7-2.7,2.7h-9.7c-1.5,0-2.7-1.2-2.7-2.7v-10.7C516.4,283.1,517.6,281.9,519.1,281.9"/>
					<path fill-rule="evenodd" clip-rule="evenodd" fill="#424242" d="M519.1,300.8h9.7c1.5,0,2.7,1.2,2.7,2.7v10.7
						c0,1.5-1.2,2.7-2.7,2.7h-9.7c-1.5,0-2.7-1.2-2.7-2.7v-10.7C516.4,302,517.6,300.8,519.1,300.8"/>
					<path fill-rule="evenodd" clip-rule="evenodd" fill="#424242" d="M519.1,319.7h9.7c1.5,0,2.7,1.2,2.7,2.7v10.7
						c0,1.5-1.2,2.7-2.7,2.7h-9.7c-1.5,0-2.7-1.2-2.7-2.7v-10.7C516.4,320.9,517.6,319.7,519.1,319.7"/>
					<path fill-rule="evenodd" clip-rule="evenodd" fill="#424242" d="M519.1,338.6h9.7c1.5,0,2.7,1.2,2.7,2.7v10.7
						c0,1.5-1.2,2.7-2.7,2.7h-9.7c-1.5,0-2.7-1.2-2.7-2.7v-10.7C516.4,339.8,517.6,338.6,519.1,338.6"/>
					<path fill-rule="evenodd" clip-rule="evenodd" fill="#424242" d="M499.7,247.8h10.7c1.2,0,2.2,1,2.2,2.2v7.9
						c0,1.2-1,2.2-2.2,2.2h-10.7c-1.2,0-2.2-1-2.2-2.2V250C497.5,248.8,498.5,247.8,499.7,247.8"/>
					<path fill-rule="evenodd" clip-rule="evenodd" fill="#424242" d="M483,262.9h26.7c1.6,0,2.9,1.3,2.9,2.9v10.4
						c0,1.6-1.3,2.9-2.9,2.9H483c-1.6,0-2.9-1.3-2.9-2.9v-10.4C480.1,264.2,481.4,262.9,483,262.9"/>
					<path fill-rule="evenodd" clip-rule="evenodd" fill="#424242" d="M495.3,281.9h14.5c1.6,0,2.9,1.3,2.9,2.9v10.4
						c0,1.6-1.3,2.9-2.9,2.9h-14.5c-1.6,0-2.9-1.3-2.9-2.9v-10.4C492.4,283.2,493.7,281.9,495.3,281.9"/>
					<path fill-rule="evenodd" clip-rule="evenodd" fill="#424242" d="M480.9,300.8h28.9c1.6,0,2.9,1.3,2.9,2.9V314
						c0,1.6-1.3,2.9-2.9,2.9h-28.9c-1.6,0-2.9-1.3-2.9-2.9v-10.4C478,302.1,479.3,300.8,480.9,300.8"/>
					<path fill-rule="evenodd" clip-rule="evenodd" fill="#424242" d="M500.2,319.7h9.7c1.5,0,2.7,1.2,2.7,2.7v10.7
						c0,1.5-1.2,2.7-2.7,2.7h-9.7c-1.5,0-2.7-1.2-2.7-2.7v-10.7C497.5,320.9,498.7,319.7,500.2,319.7"/>
					<path fill-rule="evenodd" clip-rule="evenodd" fill="#424242" d="M500.2,338.6h9.7c1.5,0,2.7,1.2,2.7,2.7v10.7
						c0,1.5-1.2,2.7-2.7,2.7h-9.7c-1.5,0-2.7-1.2-2.7-2.7v-10.7C497.5,339.8,498.7,338.6,500.2,338.6"/>
					<path fill-rule="evenodd" clip-rule="evenodd" fill="#424242" d="M482.3,247.8h9.2c1.2,0,2.2,1,2.2,2.2v7.9
						c0,1.2-1,2.2-2.2,2.2h-9.2c-1.2,0-2.2-1-2.2-2.2V250C480.1,248.8,481.1,247.8,482.3,247.8"/>
					<path fill-rule="evenodd" clip-rule="evenodd" fill="#424242" d="M464.6,247.8h9.2c1.2,0,2.2,1,2.2,2.2v7.9
						c0,1.2-1,2.2-2.2,2.2h-9.2c-1.2,0-2.2-1-2.2-2.2V250C462.4,248.8,463.4,247.8,464.6,247.8"/>
					<path fill-rule="evenodd" clip-rule="evenodd" fill="#424242" d="M446.9,247.8h9.2c1.2,0,2.2,1,2.2,2.2v7.9
						c0,1.2-1,2.2-2.2,2.2h-9.2c-1.2,0-2.2-1-2.2-2.2V250C444.7,248.8,445.7,247.8,446.9,247.8"/>
					<path fill-rule="evenodd" clip-rule="evenodd" fill="#424242" d="M429.2,247.8h9.2c1.2,0,2.2,1,2.2,2.2v7.9
						c0,1.2-1,2.2-2.2,2.2h-9.2c-1.2,0-2.2-1-2.2-2.2V250C427,248.8,428,247.8,429.2,247.8"/>
					<path fill-rule="evenodd" clip-rule="evenodd" fill="#424242" d="M411.5,247.8h9.2c1.2,0,2.2,1,2.2,2.2v7.9
						c0,1.2-1,2.2-2.2,2.2h-9.2c-1.2,0-2.2-1-2.2-2.2V250C409.3,248.8,410.3,247.8,411.5,247.8"/>
					<path fill-rule="evenodd" clip-rule="evenodd" fill="#424242" d="M393.8,247.8h9.2c1.2,0,2.2,1,2.2,2.2v7.9
						c0,1.2-1,2.2-2.2,2.2h-9.2c-1.2,0-2.2-1-2.2-2.2V250C391.6,248.8,392.6,247.8,393.8,247.8"/>
					<path fill-rule="evenodd" clip-rule="evenodd" fill="#424242" d="M376.1,247.8h9.2c1.2,0,2.2,1,2.2,2.2v7.9
						c0,1.2-1,2.2-2.2,2.2h-9.2c-1.2,0-2.2-1-2.2-2.2V250C373.9,248.8,374.9,247.8,376.1,247.8"/>
					<path fill-rule="evenodd" clip-rule="evenodd" fill="#424242" d="M358.4,247.8h9.2c1.2,0,2.2,1,2.2,2.2v7.9
						c0,1.2-1,2.2-2.2,2.2h-9.2c-1.2,0-2.2-1-2.2-2.2V250C356.2,248.8,357.2,247.8,358.4,247.8"/>
					<path fill-rule="evenodd" clip-rule="evenodd" fill="#424242" d="M340.7,247.8h9.2c1.2,0,2.2,1,2.2,2.2v7.9
						c0,1.2-1,2.2-2.2,2.2h-9.2c-1.2,0-2.2-1-2.2-2.2V250C338.5,248.8,339.5,247.8,340.7,247.8"/>
					<path fill-rule="evenodd" clip-rule="evenodd" fill="#424242" d="M323,247.8h9.2c1.2,0,2.2,1,2.2,2.2v7.9c0,1.2-1,2.2-2.2,2.2
						H323c-1.2,0-2.2-1-2.2-2.2V250C320.8,248.8,321.8,247.8,323,247.8"/>
					<path fill-rule="evenodd" clip-rule="evenodd" fill="#424242" d="M305.3,247.8h9.2c1.2,0,2.2,1,2.2,2.2v7.9
						c0,1.2-1,2.2-2.2,2.2h-9.2c-1.2,0-2.2-1-2.2-2.2V250C303.1,248.8,304.1,247.8,305.3,247.8"/>
					<path fill-rule="evenodd" clip-rule="evenodd" fill="#424242" d="M287.6,247.8h9.2c1.2,0,2.2,1,2.2,2.2v7.9
						c0,1.2-1,2.2-2.2,2.2h-9.2c-1.2,0-2.2-1-2.2-2.2V250C285.4,248.8,286.4,247.8,287.6,247.8"/>
					<path fill-rule="evenodd" clip-rule="evenodd" fill="#424242" d="M269.9,247.8h9.2c1.2,0,2.2,1,2.2,2.2v7.9
						c0,1.2-1,2.2-2.2,2.2h-9.2c-1.2,0-2.2-1-2.2-2.2V250C267.7,248.8,268.7,247.8,269.9,247.8"/>
					<path fill-rule="evenodd" clip-rule="evenodd" fill="#424242" d="M252.2,247.8h9.2c1.2,0,2.2,1,2.2,2.2v7.9
						c0,1.2-1,2.2-2.2,2.2h-9.2c-1.2,0-2.2-1-2.2-2.2V250C250,248.8,251,247.8,252.2,247.8"/>
					<path fill-rule="evenodd" clip-rule="evenodd" fill="#424242" d="M232.3,247.8H243c1.2,0,2.2,1,2.2,2.2v7.9
						c0,1.2-1,2.2-2.2,2.2h-10.7c-1.2,0-2.2-1-2.2-2.2V250C230.1,248.8,231.1,247.8,232.3,247.8"/>
					<path fill-rule="evenodd" clip-rule="evenodd" fill="#424242" d="M463.9,262.9h9.5c1.5,0,2.6,1.2,2.6,2.6v10.8
						c0,1.5-1.2,2.6-2.6,2.6h-9.5c-1.5,0-2.6-1.2-2.6-2.6v-10.8C461.2,264.1,462.4,262.9,463.9,262.9"/>
					<path fill-rule="evenodd" clip-rule="evenodd" fill="#424242" d="M444.7,262.9h9.5c1.5,0,2.6,1.2,2.6,2.6v10.8
						c0,1.5-1.2,2.6-2.6,2.6h-9.5c-1.5,0-2.6-1.2-2.6-2.6v-10.8C442,264.1,443.2,262.9,444.7,262.9"/>
					<path fill-rule="evenodd" clip-rule="evenodd" fill="#424242" d="M425.5,262.9h9.5c1.5,0,2.6,1.2,2.6,2.6v10.8
						c0,1.5-1.2,2.6-2.6,2.6h-9.5c-1.5,0-2.6-1.2-2.6-2.6v-10.8C422.8,264.1,424,262.9,425.5,262.9"/>
					<path fill-rule="evenodd" clip-rule="evenodd" fill="#424242" d="M406.3,262.9h9.5c1.5,0,2.6,1.2,2.6,2.6v10.8
						c0,1.5-1.2,2.6-2.6,2.6h-9.5c-1.5,0-2.6-1.2-2.6-2.6v-10.8C403.6,264.1,404.8,262.9,406.3,262.9"/>
					<path fill-rule="evenodd" clip-rule="evenodd" fill="#424242" d="M387.1,262.9h9.5c1.5,0,2.6,1.2,2.6,2.6v10.8
						c0,1.5-1.2,2.6-2.6,2.6l-9.5,0c-1.5,0-2.6-1.2-2.6-2.6v-10.8C384.4,264.1,385.6,262.9,387.1,262.9"/>
					<path fill-rule="evenodd" clip-rule="evenodd" fill="#424242" d="M367.9,262.9h9.5c1.5,0,2.6,1.2,2.6,2.6v10.8
						c0,1.5-1.2,2.6-2.6,2.6h-9.5c-1.5,0-2.6-1.2-2.6-2.6v-10.8C365.2,264.1,366.4,262.9,367.9,262.9"/>
					<path fill-rule="evenodd" clip-rule="evenodd" fill="#424242" d="M348.7,262.9h9.5c1.5,0,2.6,1.2,2.6,2.6v10.8
						c0,1.5-1.2,2.6-2.6,2.6h-9.5c-1.5,0-2.6-1.2-2.6-2.6v-10.8C346,264.1,347.2,262.9,348.7,262.9"/>
					<path fill-rule="evenodd" clip-rule="evenodd" fill="#424242" d="M329.5,262.9h9.5c1.5,0,2.6,1.2,2.6,2.6v10.8
						c0,1.5-1.2,2.6-2.6,2.6h-9.5c-1.5,0-2.6-1.2-2.6-2.6v-10.8C326.8,264.1,328,262.9,329.5,262.9"/>
					<path fill-rule="evenodd" clip-rule="evenodd" fill="#424242" d="M310.2,262.9h9.5c1.5,0,2.6,1.2,2.6,2.6v10.8
						c0,1.5-1.2,2.6-2.6,2.6h-9.5c-1.5,0-2.6-1.2-2.6-2.6v-10.8C307.6,264.1,308.8,262.9,310.2,262.9"/>
					<path fill-rule="evenodd" clip-rule="evenodd" fill="#424242" d="M291,262.9h9.5c1.5,0,2.6,1.2,2.6,2.6v10.8
						c0,1.5-1.2,2.6-2.6,2.6H291c-1.5,0-2.6-1.2-2.6-2.6v-10.8C288.4,264.1,289.6,262.9,291,262.9"/>
					<path fill-rule="evenodd" clip-rule="evenodd" fill="#424242" d="M271.8,262.9h9.5c1.5,0,2.6,1.2,2.6,2.6v10.8
						c0,1.5-1.2,2.6-2.6,2.6h-9.5c-1.5,0-2.6-1.2-2.6-2.6v-10.8C269.2,264.1,270.4,262.9,271.8,262.9"/>
					<path fill-rule="evenodd" clip-rule="evenodd" fill="#424242" d="M252.6,262.9h9.5c1.5,0,2.6,1.2,2.6,2.6v10.8
						c0,1.5-1.2,2.6-2.6,2.6h-9.5c-1.5,0-2.6-1.2-2.6-2.6v-10.8C250,264.1,251.2,262.9,252.6,262.9"/>
					<path fill-rule="evenodd" clip-rule="evenodd" fill="#424242" d="M232.8,262.9h9.7c1.5,0,2.7,1.2,2.7,2.7v10.8
						c0,1.5-1.2,2.7-2.7,2.7h-9.7c-1.5,0-2.7-1.2-2.7-2.7v-10.8C230.1,264.2,231.3,262.9,232.8,262.9"/>
					<path fill-rule="evenodd" clip-rule="evenodd" fill="#424242" d="M233,281.9h19.9c1.6,0,2.9,1.3,2.9,2.9v10.4
						c0,1.6-1.3,2.9-2.9,2.9H233c-1.6,0-2.9-1.3-2.9-2.9v-10.4C230.1,283.2,231.4,281.9,233,281.9"/>
					<path fill-rule="evenodd" clip-rule="evenodd" fill="#424242" d="M233,300.8h23.7c1.6,0,2.9,1.3,2.9,2.9V314
						c0,1.6-1.3,2.9-2.9,2.9H233c-1.6,0-2.9-1.3-2.9-2.9v-10.4C230.1,302.1,231.4,300.8,233,300.8"/>
					<path fill-rule="evenodd" clip-rule="evenodd" fill="#424242" d="M233,319.7h34c1.6,0,2.9,1.3,2.9,2.9V333
						c0,1.6-1.3,2.9-2.9,2.9h-34c-1.6,0-2.9-1.3-2.9-2.9v-10.4C230.1,321,231.4,319.7,233,319.7"/>
					<path fill-rule="evenodd" clip-rule="evenodd" fill="#424242" d="M233,338.6h14.1c1.6,0,2.9,1.3,2.9,2.9v10.4
						c0,1.6-1.3,2.9-2.9,2.9H233c-1.6,0-2.9-1.3-2.9-2.9v-10.4C230.1,339.9,231.4,338.6,233,338.6"/>
					<path fill-rule="evenodd" clip-rule="evenodd" fill="#424242" d="M261.1,281.9h10.2c1.6,0,2.8,1.3,2.8,2.8v10.5
						c0,1.6-1.3,2.8-2.8,2.8h-10.2c-1.6,0-2.8-1.3-2.8-2.8v-10.5C258.2,283.1,259.5,281.9,261.1,281.9"/>
					<path fill-rule="evenodd" clip-rule="evenodd" fill="#424242" d="M280.6,281.9h10.2c1.6,0,2.8,1.3,2.8,2.8v10.5
						c0,1.6-1.3,2.8-2.8,2.8h-10.2c-1.6,0-2.8-1.3-2.8-2.8v-10.5C277.8,283.1,279.1,281.9,280.6,281.9"/>
					<path fill-rule="evenodd" clip-rule="evenodd" fill="#424242" d="M300.2,281.9h10.2c1.6,0,2.8,1.3,2.8,2.8v10.5
						c0,1.6-1.3,2.8-2.8,2.8h-10.2c-1.6,0-2.8-1.3-2.8-2.8v-10.5C297.3,283.1,298.6,281.9,300.2,281.9"/>
					<path fill-rule="evenodd" clip-rule="evenodd" fill="#424242" d="M319.7,281.9h10.2c1.6,0,2.8,1.3,2.8,2.8v10.5
						c0,1.6-1.3,2.8-2.8,2.8h-10.2c-1.6,0-2.8-1.3-2.8-2.8v-10.5C316.9,283.1,318.2,281.9,319.7,281.9"/>
					<path fill-rule="evenodd" clip-rule="evenodd" fill="#424242" d="M339.3,281.9h10.2c1.6,0,2.8,1.3,2.8,2.8v10.5
						c0,1.6-1.3,2.8-2.8,2.8h-10.2c-1.6,0-2.8-1.3-2.8-2.8v-10.5C336.5,283.1,337.8,281.9,339.3,281.9"/>
					<path fill-rule="evenodd" clip-rule="evenodd" fill="#424242" d="M358.9,281.9h10.2c1.6,0,2.8,1.3,2.8,2.8v10.5
						c0,1.6-1.3,2.8-2.8,2.8h-10.2c-1.6,0-2.8-1.3-2.8-2.8v-10.5C356,283.1,357.3,281.9,358.9,281.9"/>
					<path fill-rule="evenodd" clip-rule="evenodd" fill="#424242" d="M378.4,281.9h10.2c1.6,0,2.8,1.3,2.8,2.8v10.5
						c0,1.6-1.3,2.8-2.8,2.8l-10.2,0c-1.6,0-2.8-1.3-2.8-2.8v-10.5C375.6,283.1,376.9,281.9,378.4,281.9"/>
					<path fill-rule="evenodd" clip-rule="evenodd" fill="#424242" d="M398,281.9h10.2c1.6,0,2.8,1.3,2.8,2.8v10.5
						c0,1.6-1.3,2.8-2.8,2.8H398c-1.6,0-2.8-1.3-2.8-2.8v-10.5C395.2,283.1,396.4,281.9,398,281.9"/>
					<path fill-rule="evenodd" clip-rule="evenodd" fill="#424242" d="M417.6,281.9h10.2c1.6,0,2.8,1.3,2.8,2.8v10.5
						c0,1.6-1.3,2.8-2.8,2.8h-10.2c-1.6,0-2.8-1.3-2.8-2.8v-10.5C414.7,283.1,416,281.9,417.6,281.9"/>
					<path fill-rule="evenodd" clip-rule="evenodd" fill="#424242" d="M437.1,281.9h10.2c1.6,0,2.8,1.3,2.8,2.8v10.5
						c0,1.6-1.3,2.8-2.8,2.8h-10.2c-1.6,0-2.8-1.3-2.8-2.8v-10.5C434.3,283.1,435.6,281.9,437.1,281.9"/>
					<path fill-rule="evenodd" clip-rule="evenodd" fill="#424242" d="M456.7,281.9h10.2c1.6,0,2.8,1.3,2.8,2.8v10.5
						c0,1.6-1.3,2.8-2.8,2.8h-10.2c-1.5,0-2.8-1.3-2.8-2.8v-10.5C453.9,283.1,455.1,281.9,456.7,281.9"/>
					<path fill-rule="evenodd" clip-rule="evenodd" fill="#424242" d="M476.3,281.9h10.2c1.6,0,2.8,1.3,2.8,2.8v10.5
						c0,1.6-1.3,2.8-2.8,2.8h-10.2c-1.6,0-2.8-1.3-2.8-2.8v-10.5C473.4,283.1,474.7,281.9,476.3,281.9"/>
					<path fill-rule="evenodd" clip-rule="evenodd" fill="#424242" d="M266.5,300.8h10.2c1.6,0,2.8,1.3,2.8,2.8v10.5
						c0,1.6-1.3,2.8-2.8,2.8h-10.2c-1.6,0-2.8-1.3-2.8-2.8v-10.5C263.7,302.1,264.9,300.8,266.5,300.8"/>
					<path fill-rule="evenodd" clip-rule="evenodd" fill="#424242" d="M286.1,300.8h10.2c1.6,0,2.8,1.3,2.8,2.8v10.5
						c0,1.6-1.3,2.8-2.8,2.8h-10.2c-1.6,0-2.8-1.3-2.8-2.8v-10.5C283.2,302.1,284.5,300.8,286.1,300.8"/>
					<path fill-rule="evenodd" clip-rule="evenodd" fill="#424242" d="M305.6,300.8h10.2c1.6,0,2.8,1.3,2.8,2.8v10.5
						c0,1.6-1.3,2.8-2.8,2.8h-10.2c-1.6,0-2.8-1.3-2.8-2.8v-10.5C302.8,302.1,304.1,300.8,305.6,300.8"/>
					<path fill-rule="evenodd" clip-rule="evenodd" fill="#424242" d="M325.2,300.8h10.2c1.6,0,2.8,1.3,2.8,2.8v10.5
						c0,1.6-1.3,2.8-2.8,2.8h-10.2c-1.6,0-2.8-1.3-2.8-2.8v-10.5C322.4,302.1,323.6,300.8,325.2,300.8"/>
					<path fill-rule="evenodd" clip-rule="evenodd" fill="#424242" d="M344.8,300.8h10.2c1.6,0,2.8,1.3,2.8,2.8v10.5
						c0,1.6-1.3,2.8-2.8,2.8h-10.2c-1.6,0-2.8-1.3-2.8-2.8v-10.5C341.9,302.1,343.2,300.8,344.8,300.8"/>
					<path fill-rule="evenodd" clip-rule="evenodd" fill="#424242" d="M364.3,300.8h10.2c1.6,0,2.8,1.3,2.8,2.8v10.5
						c0,1.6-1.3,2.8-2.8,2.8h-10.2c-1.6,0-2.8-1.3-2.8-2.8v-10.5C361.5,302.1,362.8,300.8,364.3,300.8"/>
					<path fill-rule="evenodd" clip-rule="evenodd" fill="#424242" d="M383.9,300.8h10.2c1.6,0,2.8,1.3,2.8,2.8v10.5
						c0,1.6-1.3,2.8-2.8,2.8l-10.2,0c-1.6,0-2.8-1.3-2.8-2.8v-10.5C381,302.1,382.3,300.8,383.9,300.8"/>
					<path fill-rule="evenodd" clip-rule="evenodd" fill="#424242" d="M403.4,300.8h10.2c1.6,0,2.8,1.3,2.8,2.8v10.5
						c0,1.6-1.3,2.8-2.8,2.8h-10.2c-1.6,0-2.8-1.3-2.8-2.8v-10.5C400.6,302.1,401.9,300.8,403.4,300.8"/>
					<path fill-rule="evenodd" clip-rule="evenodd" fill="#424242" d="M423,300.8h10.2c1.6,0,2.8,1.3,2.8,2.8v10.5
						c0,1.6-1.3,2.8-2.8,2.8H423c-1.6,0-2.8-1.3-2.8-2.8v-10.5C420.2,302.1,421.5,300.8,423,300.8"/>
					<path fill-rule="evenodd" clip-rule="evenodd" fill="#424242" d="M442.6,300.8h10.2c1.6,0,2.8,1.3,2.8,2.8v10.5
						c0,1.6-1.3,2.8-2.8,2.8h-10.2c-1.6,0-2.8-1.3-2.8-2.8v-10.5C439.7,302.1,441,300.8,442.6,300.8"/>
					<path fill-rule="evenodd" clip-rule="evenodd" fill="#424242" d="M462.1,300.8h10.2c1.6,0,2.8,1.3,2.8,2.8v10.5
						c0,1.6-1.3,2.8-2.8,2.8h-10.2c-1.6,0-2.8-1.3-2.8-2.8v-10.5C459.3,302.1,460.6,300.8,462.1,300.8"/>
					<path fill-rule="evenodd" clip-rule="evenodd" fill="#424242" d="M276.7,319.7h10.2c1.6,0,2.8,1.3,2.8,2.8V333
						c0,1.6-1.3,2.8-2.8,2.8h-10.2c-1.6,0-2.8-1.3-2.8-2.8v-10.5C273.9,321,275.2,319.7,276.7,319.7"/>
					<path fill-rule="evenodd" clip-rule="evenodd" fill="#424242" d="M296.3,319.7h10.2c1.6,0,2.8,1.3,2.8,2.8V333
						c0,1.6-1.3,2.8-2.8,2.8h-10.2c-1.6,0-2.8-1.3-2.8-2.8v-10.5C293.5,321,294.7,319.7,296.3,319.7"/>
					<path fill-rule="evenodd" clip-rule="evenodd" fill="#424242" d="M315.9,319.7h10.2c1.6,0,2.8,1.3,2.8,2.8V333
						c0,1.6-1.3,2.8-2.8,2.8h-10.2c-1.6,0-2.8-1.3-2.8-2.8v-10.5C313,321,314.3,319.7,315.9,319.7"/>
					<path fill-rule="evenodd" clip-rule="evenodd" fill="#424242" d="M335.4,319.7h10.2c1.6,0,2.8,1.3,2.8,2.8V333
						c0,1.6-1.3,2.8-2.8,2.8h-10.2c-1.6,0-2.8-1.3-2.8-2.8v-10.5C332.6,321,333.9,319.7,335.4,319.7"/>
					<path fill-rule="evenodd" clip-rule="evenodd" fill="#424242" d="M355,319.7h10.2c1.6,0,2.8,1.3,2.8,2.8V333
						c0,1.6-1.3,2.8-2.8,2.8H355c-1.6,0-2.8-1.3-2.8-2.8v-10.5C352.2,321,353.4,319.7,355,319.7"/>
					<path fill-rule="evenodd" clip-rule="evenodd" fill="#424242" d="M374.6,319.7h10.2c1.6,0,2.8,1.3,2.8,2.8V333
						c0,1.6-1.3,2.8-2.8,2.8h-10.2c-1.6,0-2.8-1.3-2.8-2.8v-10.5C371.7,321,373,319.7,374.6,319.7"/>
					<path fill-rule="evenodd" clip-rule="evenodd" fill="#424242" d="M394.1,319.7h10.2c1.6,0,2.8,1.3,2.8,2.8V333
						c0,1.6-1.3,2.8-2.8,2.8h-10.2c-1.6,0-2.8-1.3-2.8-2.8v-10.5C391.3,321,392.6,319.7,394.1,319.7"/>
					<path fill-rule="evenodd" clip-rule="evenodd" fill="#424242" d="M413.7,319.7h10.2c1.6,0,2.8,1.3,2.8,2.8V333
						c0,1.6-1.3,2.8-2.8,2.8h-10.2c-1.6,0-2.8-1.3-2.8-2.8v-10.5C410.9,321,412.1,319.7,413.7,319.7"/>
					<path fill-rule="evenodd" clip-rule="evenodd" fill="#424242" d="M433.3,319.7h10.2c1.6,0,2.8,1.3,2.8,2.8V333
						c0,1.6-1.3,2.8-2.8,2.8h-10.2c-1.6,0-2.8-1.3-2.8-2.8v-10.5C430.4,321,431.7,319.7,433.3,319.7"/>
					<path fill-rule="evenodd" clip-rule="evenodd" fill="#424242" d="M452.8,319.7H463c1.6,0,2.8,1.3,2.8,2.8V333
						c0,1.6-1.3,2.8-2.8,2.8h-10.2c-1.6,0-2.8-1.3-2.8-2.8v-10.5C450,321,451.3,319.7,452.8,319.7"/>
					<path fill-rule="evenodd" clip-rule="evenodd" fill="#424242" d="M472.4,319.7h18.4c1.6,0,2.9,1.3,2.9,2.9V333
						c0,1.6-1.3,2.9-2.9,2.9h-18.4c-1.6,0-2.9-1.3-2.9-2.9v-10.4C469.5,321,470.8,319.7,472.4,319.7"/>
					<path fill-rule="evenodd" clip-rule="evenodd" fill="#424242" d="M256.9,338.6H267c1.6,0,2.8,1.3,2.8,2.8v10.5
						c0,1.6-1.3,2.8-2.8,2.8h-10.2c-1.6,0-2.8-1.3-2.8-2.8v-10.5C254,339.9,255.3,338.6,256.9,338.6"/>
					<path fill-rule="evenodd" clip-rule="evenodd" fill="#424242" d="M276.4,338.6h10.2c1.6,0,2.8,1.3,2.8,2.8v10.5
						c0,1.6-1.3,2.8-2.8,2.8h-10.2c-1.6,0-2.8-1.3-2.8-2.8v-10.5C273.6,339.9,274.9,338.6,276.4,338.6"/>
					<path fill-rule="evenodd" clip-rule="evenodd" fill="#424242" d="M296,338.6h10.2c1.6,0,2.8,1.3,2.8,2.8v10.5
						c0,1.6-1.3,2.8-2.8,2.8H296c-1.6,0-2.8-1.3-2.8-2.8v-10.5C293.2,339.9,294.4,338.6,296,338.6"/>
					<path fill-rule="evenodd" clip-rule="evenodd" fill="#424242" d="M315.5,338.6h88.3c1.6,0,2.8,1.3,2.8,2.8v10.5
						c0,1.6-1.3,2.8-2.8,2.8h-88.3c-1.6,0-2.8-1.3-2.8-2.8v-10.5C312.7,339.9,314,338.6,315.5,338.6"/>
					<path fill-rule="evenodd" clip-rule="evenodd" fill="#424242" d="M413.4,338.6h10.2c1.6,0,2.8,1.3,2.8,2.8v10.5
						c0,1.6-1.3,2.8-2.8,2.8h-10.2c-1.6,0-2.8-1.3-2.8-2.8v-10.5C410.5,339.9,411.8,338.6,413.4,338.6"/>
					<path fill-rule="evenodd" clip-rule="evenodd" fill="#424242" d="M432.9,338.6h10.2c1.6,0,2.8,1.3,2.8,2.8v10.5
						c0,1.6-1.3,2.8-2.8,2.8h-10.2c-1.6,0-2.8-1.3-2.8-2.8v-10.5C430.1,339.9,431.4,338.6,432.9,338.6"/>
					<path fill-rule="evenodd" clip-rule="evenodd" fill="#424242" d="M452.5,338.6H471c1.6,0,2.9,1.3,2.9,2.9v10.4
						c0,1.6-1.3,2.9-2.9,2.9h-18.4c-1.6,0-2.9-1.3-2.9-2.9v-10.4C449.7,339.9,451,338.6,452.5,338.6"/>
					<path fill-rule="evenodd" clip-rule="evenodd" fill="#424242" d="M481.4,338.6h9.7c1.5,0,2.7,1.2,2.7,2.7v10.7
						c0,1.5-1.2,2.7-2.7,2.7h-9.7c-1.5,0-2.7-1.2-2.7-2.7v-10.7C478.7,339.8,479.9,338.6,481.4,338.6"/>
					<path fill-rule="evenodd" clip-rule="evenodd" fill="#D3D3D3" d="M334.3,368.5l89.9,0c1.4,0,2.5,1.1,2.5,2.5v43.2
						c0,1.4-1.1,2.5-2.5,2.5h-89.9c-1.4,0-2.5-1.1-2.5-2.5V371C331.8,369.6,333,368.5,334.3,368.5"/>
					<path fill-rule="evenodd" clip-rule="evenodd" fill="#D3D3D3" d="M332.4,420h44.7c0.3,0,0.5,0.2,0.5,0.5v9
						c0,0.3-0.2,0.5-0.5,0.5h-44.7c-0.3,0-0.5-0.2-0.5-0.5v-9C331.8,420.2,332.1,420,332.4,420"/>
					<path fill-rule="evenodd" clip-rule="evenodd" fill="#D3D3D3" d="M381.5,420h44.7c0.3,0,0.5,0.2,0.5,0.5v9
						c0,0.3-0.2,0.5-0.5,0.5h-44.7c-0.3,0-0.5-0.2-0.5-0.5v-9C381,420.2,381.2,420,381.5,420"/>
				</g>
			</g>
			<g>
				<path fill-rule="evenodd" clip-rule="evenodd" fill="#424242" d="M187.1,101.5h386.4c9.3,0,12.1,5,8.3,12l-32.3,99.3H210.9
					l-28.8-93.3C175.6,107.7,176.9,101.5,187.1,101.5"/>
				<polygon fill-rule="evenodd" clip-rule="evenodd" fill="#F1F1F1" points="562,119.4 538.5,198.9 222.1,198.9 198.4,119.4 				
					"/>
				<path fill-rule="evenodd" clip-rule="evenodd" fill="#D3D3D3" d="M235.9,205.9h13.5c0.9,0,1.6,0.8,1.6,1.8v18.5
					c0,1-0.7,1.8-1.6,1.8h-13.5c-0.9,0-1.6-0.8-1.6-1.8v-18.5C234.3,206.8,235,205.9,235.9,205.9"/>
				<path fill-rule="evenodd" clip-rule="evenodd" fill="#D3D3D3" d="M511.9,205.9h13.5c0.9,0,1.6,0.8,1.6,1.8v18.5
					c0,1-0.7,1.8-1.6,1.8h-13.5c-0.9,0-1.6-0.8-1.6-1.8v-18.5C510.4,206.8,511.1,205.9,511.9,205.9"/>
			</g>
		</g>
	</g>
	<g>
		<polygon fill="#FFFFFF" points="528.7,189.4 547.4,127 213.2,126.5 232.6,187.4 		"/>
		<polygon fill="#BFBFBF" points="213.2,126.7 215.4,134.7 544.9,135.2 547.4,127 		"/>
		<polygon fill="#88BAD8" points="525.5,161.4 529.7,142.3 239.7,140.4 243.8,161.4 		"/>
		<polygon fill="#BFBFBF" points="518.1,183.1 523,167.2 417.3,167.1 412.4,183 		"/>
	</g>
	<g>
		<polygon fill-rule="evenodd" clip-rule="evenodd" fill="#2C2E3A" points="422.3,127.9 410.3,190.4 249.4,190.4 237.3,127.9 		"/>
		<polygon fill-rule="evenodd" clip-rule="evenodd" fill="none" points="394.7,191.9 260.5,191.9 246.5,140.4 415.8,140.4 		"/>
		<text transform="matrix(1 0 0 1 247.6982 144.6538)"><tspan x="0" y="0" fill="#A20000" font-family="'MyriadPro-Regular'" font-size="6">&lt;</tspan><tspan x="3.6" y="0" fill="#C90D0D" font-family="'MyriadPro-Regular'" font-size="6">!DO</tspan><tspan x="13.1" y="0" fill="#C90D0D" font-family="'MyriadPro-Regular'" font-size="6">CT</tspan><tspan x="19.9" y="0" fill="#C90D0D" font-family="'MyriadPro-Regular'" font-size="6">Y</tspan><tspan x="23.1" y="0" fill="#C90D0D" font-family="'MyriadPro-Regular'" font-size="6">PE </tspan><tspan x="30.5" y="0" fill="#FFFFFF" font-family="'MyriadPro-Regular'" font-size="6">h</tspan><tspan x="33.8" y="0" fill="#FFFFFF" font-family="'MyriadPro-Regular'" font-size="6">tml</tspan><tspan x="42.2" y="0" fill="#A20000" font-family="'MyriadPro-Regular'" font-size="6">&gt;</tspan><tspan x="2" y="7.2" fill="#FFFFFF" font-family="'MyriadPro-Regular'" font-size="6">&lt;</tspan><tspan x="5.5" y="7.2" fill="#FFFFFF" font-family="'MyriadPro-Regular'" font-size="6">h</tspan><tspan x="8.8" y="7.2" fill="#FFFFFF" font-family="'MyriadPro-Regular'" font-size="6">tml </tspan><tspan x="18.5" y="7.2" fill="#14DD31" font-family="'MyriadPro-Regular'" font-size="6">lang</tspan><tspan x="29.5" y="7.2" fill="#FFFFFF" font-family="'MyriadPro-Regular'" font-size="6">=</tspan><tspan x="33.1" y="7.2" fill="#FFFFFF" font-family="'MyriadPro-Regular'" font-size="6">&quot;</tspan><tspan x="35.1" y="7.2" fill="#EFB90A" font-family="'MyriadPro-Regular'" font-size="6">e</tspan><tspan x="38.1" y="7.2" fill="#EFB90A" font-family="'MyriadPro-Regular'" font-size="6">n</tspan><tspan x="41.4" y="7.2" fill="#FFFFFF" font-family="'MyriadPro-Regular'" font-size="6">&quot;&gt;</tspan><tspan x="3.9" y="14.4" fill="#FFFFFF" font-family="'MyriadPro-Regular'" font-size="6">       &lt;% include main/_head-</tspan><tspan x="74.4" y="14.4" fill="#FFFFFF" font-family="'MyriadPro-Regular'" font-size="6">h</tspan><tspan x="77.7" y="14.4" fill="#FFFFFF" font-family="'MyriadPro-Regular'" font-size="6">tml %&gt;</tspan><tspan x="5.5" y="20.4" fill="#FFFFFF" font-family="'MyriadPro-Regular'" font-size="5">&lt;</tspan><tspan x="8.5" y="20.4" fill="#F20A3D" font-family="'MyriadPro-Regular'" font-size="5">body </tspan><tspan x="20.3" y="20.4" fill="#0CEF32" font-family="'MyriadPro-Regular'" font-size="5">d</tspan><tspan x="23.2" y="20.4" fill="#0CEF32" font-family="'MyriadPro-Regular'" font-size="5">a</tspan><tspan x="25.6" y="20.4" fill="#0CEF32" font-family="'MyriadPro-Regular'" font-size="5">ta-ng-app</tspan><tspan x="46.4" y="20.4" fill="#FFFFFF" font-family="'MyriadPro-Regular'" font-size="5">=&quot;</tspan><tspan x="51" y="20.4" fill="#FFC524" font-family="'MyriadPro-Regular'" font-size="5">ap</tspan><tspan x="56.3" y="20.4" fill="#FFC524" font-family="'MyriadPro-Regular'" font-size="5">p</tspan><tspan x="59.1" y="20.4" fill="#FFFFFF" font-family="'MyriadPro-Regular'" font-size="5">&quot;&gt;</tspan><tspan x="7.2" y="26.4" fill="#FFFFFF" font-family="'MyriadPro-Regular'" font-size="5">     &lt;</tspan><tspan x="15.5" y="26.4" fill="#F20A3D" font-family="'MyriadPro-Regular'" font-size="5">se</tspan><tspan x="19.9" y="26.4" fill="#F20A3D" font-family="'MyriadPro-Regular'" font-size="5">c</tspan><tspan x="22.2" y="26.4" fill="#F20A3D" font-family="'MyriadPro-Regular'" font-size="5">tion</tspan><tspan x="30.6" y="26.4" fill="#FFFFFF" font-family="'MyriadPro-Regular'" font-size="5"> </tspan><tspan x="31.6" y="26.4" fill="#0CEF32" font-family="'MyriadPro-Regular'" font-size="5">id</tspan><tspan x="35.6" y="26.4" fill="#FFFFFF" font-family="'MyriadPro-Regular'" font-size="5">=</tspan><tspan x="38.6" y="26.4" fill="#FFFFFF" font-family="'MyriadPro-Regular'" font-size="5">&quot;</tspan><tspan x="40.4" y="26.4" fill="#FFC524" font-family="'MyriadPro-Regular'" font-size="5">t</tspan><tspan x="42" y="26.4" fill="#FFC524" font-family="'MyriadPro-Regular'" font-size="5">o</tspan><tspan x="44.8" y="26.4" fill="#FFC524" font-family="'MyriadPro-Regular'" font-size="5">p</tspan><tspan x="47.6" y="26.4" fill="#FFFFFF" font-family="'MyriadPro-Regular'" font-size="5">&quot;&gt;</tspan><tspan x="8.8" y="32.4" fill="#FFFFFF" font-family="'MyriadPro-Regular'" font-size="5">         &lt;% include main/_header %&gt;</tspan><tspan x="10.4" y="38.4" fill="#FFFFFF" font-family="'MyriadPro-Regular'" font-size="5" letter-spacing="23">	</tspan><tspan x="34.8" y="38.4" fill="#F4062E" font-family="'MyriadPro-Regular'" font-size="5">&lt;div&gt;</tspan></text>
		<polyline fill="#101116" points="238.7,134.7 420.9,135.2 422.3,127.9 237.3,127.9 		"/>
	</g>
</g>
<g>
	<g>
		<g>
			<g>
				<path fill="#424242" d="M131.1,371.3c-1.6,5.3-7.2,8.3-12.6,6.7L5.2,343.7c-5.3-1.6-8.3-7.3-6.7-12.6l46.9-154.6
					c1.6-5.3,7.3-8.3,12.6-6.7l113.4,34.3c5.3,1.6,8.3,7.3,6.7,12.6L131.1,371.3z"/>
				<path fill="#424242" d="M129.6,370.9c-1.4,4.5-6.2,7.1-10.7,5.7L5.6,342.2c-4.5-1.4-7.1-6.2-5.7-10.7l46.9-154.6
					c1.4-4.5,6.2-7.1,10.7-5.7l113.4,34.3c4.5,1.4,7.1,6.2,5.7,10.7L129.6,370.9z"/>
			</g>
			
				<rect x="23.3" y="196.8" transform="matrix(0.9567 0.2911 -0.2911 0.9567 83.0081 -14.0658)" fill="#2C2E3A" width="130.9" height="150.4"/>
			<circle fill="#FFFFFF" cx="64.4" cy="352" r="5.9"/>
			<path fill="#343A54" d="M120.9,197.8l-17.4-5.3c-0.2-0.1-0.3-0.2-0.2-0.4l0-0.1c0.1-0.2,0.2-0.3,0.4-0.2l17.4,5.3
				c0.2,0.1,0.3,0.2,0.2,0.4l0,0.1C121.2,197.7,121.1,197.8,120.9,197.8z"/>
			<circle fill="#343A54" cx="100.6" cy="191.2" r="0.9"/>
		</g>
	</g>
	
		<rect x="29.7" y="204" transform="matrix(0.9567 0.2911 -0.2911 0.9567 83.0081 -14.0658)" fill="#FFFFFF" width="118.3" height="135.9"/>
	
		<rect x="55" y="221.7" transform="matrix(0.9567 0.2911 -0.2911 0.9567 72.2999 -19.5804)" fill="#FF6B6B" width="93.8" height="23"/>
	
		<rect x="46" y="244.8" transform="matrix(0.9567 0.2911 -0.2911 0.9567 77.5972 -9.0432)" opacity="0.8" fill="#DEDEE0" width="46.3" height="23"/>
	
		<rect x="94" y="259.5" transform="matrix(0.9567 0.2911 -0.2911 0.9567 83.9667 -22.3784)" opacity="0.8" fill="#DEDEE0" width="46.3" height="23"/>
</g>
<g>
	<path fill="#BCBABF" d="M641.4,212.9c-2.2,1.7-5.4,1.4-7.1-0.8l-1.7-2.2c-1.7-2.2-1.4-5.4,0.8-7.1l16.4-13c2.2-1.7,5.4-1.4,7.1,0.8
		l1.7,2.2c1.7,2.2,1.4,5.4-0.8,7.1L641.4,212.9z"/>
	<path fill="#E6E6E5" d="M650.1,194.3c2-1.5,4-3.1,6-4.5c-1.8-1.5-4.5-1.6-6.4-0.1l-16.4,13c-2,1.6-2.5,4.3-1.3,6.4
		C638,204.1,644,199.1,650.1,194.3z"/>
	<circle fill="#BCBABF" cx="619.9" cy="220.2" r="33.4"/>
	<path fill="#E6E6E5" d="M596.8,232.9c8.5-9.1,17.3-17.8,26.4-26.2c4.8-4.4,9.6-8.7,14.3-13.1c0.4-0.4,0.7-0.7,1.1-1.1
		c-5.3-3.6-11.8-5.8-18.7-5.8c-18.4,0-33.4,14.9-33.4,33.4c0,6.7,2,12.9,5.3,18.1C593.5,236.4,595.1,234.7,596.8,232.9z"/>
	<circle fill="#622E12" cx="619.9" cy="220.2" r="28.8"/>
</g>
</svg>
