<?xml version="1.0" encoding="utf-8"?>
<!-- Generator: Adobe Illustrator 18.0.0, SVG Export Plug-In . SVG Version: 6.00 Build 0)  -->
<!DOCTYPE svg PUBLIC "-//W3C//DTD SVG 1.1//EN" "http://www.w3.org/Graphics/SVG/1.1/DTD/svg11.dtd">
<svg version="1.1" id="Capa_1" xmlns="http://www.w3.org/2000/svg" xmlns:xlink="http://www.w3.org/1999/xlink" x="0px" y="0px"
	 viewBox="0 0 129.8 47.8" enable-background="new 0 0 129.8 47.8" xml:space="preserve">
<g>
	<path opacity="0.17" fill="#020202" d="M124.3,44.3c0,0-3.6-4.9-7.8-10.6c5.7-6,5.1-17.6,6.4-19.4c1.4-2,3.9-1.8,3.9-1.8l0.3-4.1
		c0,0-7.2-1.5-29.5-3C75.3,4,70.6,8.4,64.8,8.3c-0.5,0-0.9,0-1.4,0c-0.4,0-0.9-0.1-1.4-0.2C56.2,7.4,52.2,2.5,29.9,1
		C7.6-0.4,0.3,0.1,0.3,0.1L0,4.2c0,0,2.5,0.2,3.7,2.3c1.2,2.1-1.5,15.4,5.3,21.7c0,0,0,0,0.1,0c-4.6,4.6-8.2,8.5-8.2,8.5
		s-0.9,3.3,1.8,3.6c2.8,0.3,2.7,1.8,7.3-4.5c1-1.4,2.2-3.1,3.6-5c9.6,3.8,27.5,4.1,32.7,2.9c6.2-1.5,9.7-14.7,12.5-17.2
		c0.1-0.1,0.2-0.1,0.2-0.2c0.8-0.2,2.4-0.6,4-0.7c1.6,0.2,3.1,0.8,3.9,1.2c0.1,0.1,0.1,0.1,0.2,0.2c2.4,2.8,4.2,16.4,10.2,18.7
		c5.4,2.1,25.8,4.3,35.1,0.7c1.1,2.2,2.2,4.2,3,5.8c3.8,6.8,3.9,5.4,6.7,5.4C124.8,47.7,124.3,44.3,124.3,44.3z"/>
	<g>
		<path d="M3.5,36.8c0,0-0.9,3.3,1.8,3.6c2.8,0.3,2.7,1.8,7.3-4.5c4.7-6.3,13.2-19.9,18.3-21.7c5.1-1.9,10.6-2.7,20-1.9
			C60.3,13,65,13.2,65,13.2l-0.7-3l-55.5-6L8.7,6.1l30.9,4.2c0,0-7.5-1.4-14.7,5C17.8,21.8,3.5,36.8,3.5,36.8"/>
		<path d="M127,44.3c0,0,0.5,3.4-2.3,3.4c-2.8,0-2.9,1.4-6.7-5.4c-3.8-6.8-10.4-21.5-15.2-24s-10.1-4-19.6-4.5
			c-9.5-0.5-14.1-0.9-14.1-0.9l1.1-2.8l55.8,1.3l-0.1,1.9l-31.2,0.1c0,0,7.6-0.4,13.9,6.9C114.8,27.6,127,44.3,127,44.3"/>
		<g opacity="0.25">
			<polygon fill="#F0F0F2" points="6.4,1.2 26.6,2.5 49.5,4 61.9,10.7 53.3,26.4 48.2,32 29.9,32.1 15.1,29.1 9.8,22.9 7.4,10.6 			
				"/>
		</g>
		<polygon opacity="0.24" fill="#F0F0F2" points="125,9 105.4,7.7 83.2,6.3 70.4,11.3 76.6,27.9 80.8,34.2 98.4,36.6 113.1,35.6 
			119,30.1 122.9,18.2 		"/>
		<path d="M100.3,5.6C78,4.1,73.4,8.5,67.5,8.4c-0.5,0-0.9,0-1.4,0c-0.4,0-0.9-0.1-1.4-0.2c-5.8-0.7-9.9-5.6-32.1-7.1
			C10.3-0.4,3,0.2,3,0.2L2.7,4.2c0,0,2.5,0.2,3.7,2.3c1.2,2.1-1.5,15.4,5.3,21.7c6.7,6.3,31,7,37.2,5.5c6.2-1.5,9.7-14.7,12.5-17.2
			c0.1-0.1,0.2-0.1,0.2-0.2c0.8-0.2,2.4-0.6,4-0.7c1.6,0.2,3.1,0.8,3.9,1.2c0.1,0.1,0.1,0.1,0.2,0.2c2.4,2.8,4.2,16.4,10.2,18.7
			c6,2.3,30.1,4.8,37.6-0.6c7.5-5.4,6.7-18.9,8.1-20.8c1.4-2,3.9-1.8,3.9-1.8l0.3-4.1C129.8,8.5,122.6,7,100.3,5.6 M58.7,13.1
			c-0.3,2.2-5,13.9-9.2,16.9c-4.2,3.1-24.4,0.3-32.2-2.1c-7.7-2.4-6.9-8.5-7.5-15.1c-0.6-6.6,0-8.6,1.5-9.1c1.5-0.5,32.8,0.7,40,3.1
			C58.5,9.1,59,10.9,58.7,13.1 M121.3,20.1c-1.5,6.5-1.4,12.6-9.4,14c-8,1.4-28.5,1.5-32.2-2.1c-3.7-3.6-6.9-15.8-6.9-18
			c0-2.2,0.7-3.9,8.1-5.3c7.4-1.4,38.6,1.5,40.1,2.2C122.4,11.6,122.7,13.6,121.3,20.1"/>
		<path fill="#F0F0F2" d="M78.2,22.5c0,0-4.1-7.6-2.5-9.9c1.5-2.3,6.9-2.8,6.9-2.8s-5.8,1.3-6.1,3.8C76.1,16.1,78.2,22.5,78.2,22.5z
			"/>
		<path fill="#F0F0F2" d="M12.4,17.8c0,0,0.3,5.2,2.7,6.6c2.4,1.4,6.2,1.4,6.2,1.4s-4.8-0.8-6.5-2.6C13.1,21.5,12.4,17.8,12.4,17.8z
			"/>
	</g>
</g>
</svg>
