<?xml version="1.0" encoding="utf-8"?>
<!-- Generator: Adobe Illustrator 18.0.0, SVG Export Plug-In . SVG Version: 6.00 Build 0)  -->
<!DOCTYPE svg PUBLIC "-//W3C//DTD SVG 1.1//EN" "http://www.w3.org/Graphics/SVG/1.1/DTD/svg11.dtd">
<svg version="1.1" id="imac" xmlns="http://www.w3.org/2000/svg" xmlns:xlink="http://www.w3.org/1999/xlink" x="0px" y="0px"
	 viewBox="0 297.3 1210 608.3" enable-background="new 0 297.3 1210 608.3" xml:space="preserve">
	<g>
	
		<linearGradient id="SVGID_1_" gradientUnits="userSpaceOnUse" x1="1174.9945" y1="-327.8319" x2="1137.1302" y2="-58.4138" gradientTransform="matrix(0.8384 0 0 -0.8384 -286.3704 564.4464)">
		<stop  offset="0" style="stop-color:#E2A1A1"/>
		<stop  offset="0.3557" style="stop-color:#E0A0A0"/>
		<stop  offset="0.4951" style="stop-color:#D99B9B"/>
		<stop  offset="0.5967" style="stop-color:#CD9292"/>
		<stop  offset="0.6799" style="stop-color:#BC8686"/>
		<stop  offset="0.7518" style="stop-color:#A57676"/>
		<stop  offset="0.8159" style="stop-color:#896262"/>
		<stop  offset="0.8742" style="stop-color:#684A4A"/>
		<stop  offset="0.9281" style="stop-color:#422F2F"/>
		<stop  offset="0.9764" style="stop-color:#171111"/>
		<stop  offset="1" style="stop-color:#000000"/>
		</linearGradient>
		<polygon opacity="0.5" fill="url(#SVGID_1_)" enable-background="new    " points="338,890 164.8,684 1038,568 1200,762 	"/>
	
			<path fill="#BCBABF" d="M503.2,653.2c3.2,24.4,2,60,8.8,68.4s17.6,20.4,54.4,14.4s145.2-24,156-25.6s38.4-15.6,37.2-31.6
				c-1.2-16.4-13.2-58.4-14.8-64C742.8,608.8,503.2,653.2,503.2,653.2z"/>
			<path fill="#939298" d="M752,642.8c-3.2-13.6-6.8-25.6-7.6-28.8c-1.2-5.6-241.2,38.8-241.2,38.8c1.2,9.2,1.6,20,2.4,30.4
				L752,642.8z"/>
			<path fill="#BECBD3" d="M0.4,506.4c-0.4-11.2,8-22.4,26-25.6c31.6-5.2,1082-177.2,1108.4-181.6c26.4-4.4,30-0.4,34.8,2.8
				c4.8,3.2,10.8,12.8,8.8,20.8C1176,331.2,0.4,506.4,0.4,506.4z"/>
			<path fill="#1F1919" d="M74.4,481.2c-36,6-98.4,7.2-64.8,46S152.8,674.8,170,694s20.8,24,62.8,17.2c0,0,787.6-129.2,805.6-132
				c18-2.8,26.4-11.2,38.8-37.2s91.2-188.4,97.2-204c6-15.2,12-40-44-30.8C1074.4,316.4,74.4,481.2,74.4,481.2z"/>
			<path fill="#282222" d="M10,526.8c33.6,38.8,143.2,147.6,160.4,166.8s20.8,24,62.8,17.2c0,0,390.4-64,628-102.8
				c-186.4-22.4-458.4-65.2-695.6-142c-56.4,9.2-91.2,15.2-91.2,15.2C38.4,487.2-24,488.4,10,526.8z"/>
			<polygon fill="#323232" points="1044.4,540.8 1142,329.2 38.8,510 193.2,680.4 		"/>
			<path fill="#494949" d="M193.2,680.4l542.4-88.8c-156.8-23.2-346-58-521.6-110.4L38.4,510L193.2,680.4z"/>
			<path fill="#C5C4C6" d="M1076.4,543.2c-111.6,18.4-790.3,129.8-907.9,149c0.8,0.9,1.3,1.6,1.7,2c17.2,19.2,20.9,24.5,63.2,17.3
				c0,0,787-129.5,805-132.3C1056.7,576.2,1064.1,569,1076.4,543.2z"/>
	
		<g id="contenido">
			<polygon fill="#FFFFFF" points="987.2,537.6 1072,353.2 112.4,510.4 247.2,658.8 		"/>
			<polygon fill="#BFBFBF" points="112.4,511.2 130.4,530.4 1060.8,378 1072,353.6 		"/>
			<polygon fill="#BFBFBF" points="519.2,601.2 501.2,559.6 226.4,604.8 256,644.4 		"/>
			<polygon id="rectangulo-blue" fill="#88BAD8" points="998,462 1029.6,398.4 170,539.6 216.4,590 		"/>
			<polygon fill="#525252" points="1059.6,453.6 963.6,469.2 998,399.2 1093.6,383.6 		"/>
			<polygon id="white" fill="#FFFFFF" points="1017.6,416.8 1004.4,418.8 1010,408.8 1022.8,406.8 		"/>
			<polygon id="red" fill="#E57473" points="1013.2,410.8 1000.4,412.8 1005.6,403.2 1019.2,401.2 		"/>
			<polygon id="gray-2" fill="#BFBFBF" points="1062.4,409.2 1028,415.2 1035.6,404.8 1071.6,398.8 		"/>
			
				<linearGradient id="SVGID_2_" gradientUnits="userSpaceOnUse" x1="1545.8451" y1="-120.7821" x2="1652.2869" y2="-120.7821" gradientTransform="matrix(0.8276 -0.1357 -0.1357 -0.8276 -323.1569 560.7695)">
				<stop  offset="0.1347" style="stop-color:#FFEF26"/>
				<stop  offset="0.1491" style="stop-color:#DFE920"/>
				<stop  offset="0.1737" style="stop-color:#AEE018"/>
				<stop  offset="0.199" style="stop-color:#83D911"/>
				<stop  offset="0.2245" style="stop-color:#61D30B"/>
				<stop  offset="0.2502" style="stop-color:#46CE06"/>
				<stop  offset="0.2764" style="stop-color:#33CB03"/>
				<stop  offset="0.3033" style="stop-color:#28C901"/>
				<stop  offset="0.332" style="stop-color:#24C800"/>
				<stop  offset="0.4963" style="stop-color:#F18F34"/>
				<stop  offset="0.7755" style="stop-color:#00217F"/>
				<stop  offset="1" style="stop-color:#E3312D"/>
			</linearGradient>
			<polygon fill="url(#SVGID_2_)" points="1046.4,447.6 982.8,458 991.6,439.2 1056.8,428.4 		"/>
			<polygon id="gray" fill="#BFBFBF" points="806.4,554.4 809.6,509.2 530,554.8 548,596.4 		"/>
		</g>
	</g>
</svg>
