<?xml version="1.0" encoding="utf-8"?>
<!-- Generator: Adobe Illustrator 18.0.0, SVG Export Plug-In . SVG Version: 6.00 Build 0)  -->
<!DOCTYPE svg PUBLIC "-//W3C//DTD SVG 1.1//EN" "http://www.w3.org/Graphics/SVG/1.1/DTD/svg11.dtd">
<svg version="1.1" id="Capa_1" xmlns="http://www.w3.org/2000/svg" xmlns:xlink="http://www.w3.org/1999/xlink" x="0px" y="0px"
	 width="726px" height="600px" viewBox="-14 0 726 600" enable-background="new -14 0 726 600" xml:space="preserve">
<g>
	
		<linearGradient id="SVGID_1_" gradientUnits="userSpaceOnUse" x1="242.8217" y1="1426.1833" x2="242.8217" y2="1329.5167" gradientTransform="matrix(0.9868 -0.1618 0.1618 0.9868 -76.2688 -1.7409)">
		<stop  offset="0.3122" style="stop-color:#FFFFFF"/>
		<stop  offset="0.4724" style="stop-color:#FAFBFB"/>
		<stop  offset="0.6503" style="stop-color:#EDEDEE"/>
		<stop  offset="0.8359" style="stop-color:#D7D8D9"/>
		<stop  offset="1" style="stop-color:#BDBEC0"/>
	</linearGradient>
	<polygon fill="url(#SVGID_1_)" points="207.5,1369.8 128,1312 540.6,1248.6 644.5,1325.3 	"/>
	<g>
		<path fill="#BCBABF" d="M279.7,1284.5c1.5,11.7,0.9,28.7,4.2,32.7c3.2,4,8.4,9.8,26,6.9s69.5-11.4,74.7-12.2s18.3-7.4,17.8-15.2
			c-0.5-7.9-6.4-28-7-30.6C394.6,1263.3,279.7,1284.5,279.7,1284.5z"/>
		<path fill="#939298" d="M398.9,1279.6c-1.6-6.5-3.3-12.3-3.6-13.7c-0.6-2.7-115.6,18.5-115.6,18.5c0.6,4.4,0.8,9.5,1.1,14.5
			L398.9,1279.6z"/>
		<path fill="#BECBD3" d="M38.8,1214.2c-0.2-5.3,3.9-10.8,12.6-12.2c15.2-2.5,518.1-84.9,530.7-87c12.6-2.1,14.3-0.1,16.7,1.4
			s5.2,6.1,4.2,10C601.9,1130.4,38.8,1214.2,38.8,1214.2z"/>
		<path fill="#1F1919" d="M74.4,1202.1c-17.3,2.8-47.1,3.5-31,22c16.1,18.5,68.6,70.7,76.9,79.9c8.3,9.2,9.9,11.5,30.1,8.2
			c0,0,377.1-61.8,385.8-63.2c8.6-1.4,12.6-5.4,18.6-17.8c6-12.4,43.6-90.3,46.5-97.6c2.9-7.2,5.7-19.1-21-14.7
			C553.4,1123.2,74.4,1202.1,74.4,1202.1z"/>
		<path fill="#282222" d="M43.4,1224.1c16.1,18.5,68.6,70.7,76.9,79.9c8.3,9.2,9.9,11.5,30.1,8.2c0,0,187-30.7,300.7-49.3
			c-89-10.8-219.3-31.3-332.9-67.9c-27.1,4.5-43.7,7.2-43.7,7.2C57.1,1205,27.2,1205.6,43.4,1224.1z"/>
		<polygon fill="#323232" points="539,1230.7 585.7,1129.3 57.2,1215.9 131.4,1297.5 		"/>
		<path fill="#494949" d="M131.4,1297.5l259.8-42.6c-75.2-10.9-166-27.7-249.9-52.8l-84.1,13.8L131.4,1297.5z"/>
		<path fill="#BCBABF" d="M554.3,1231.9c-53.4,8.8-378.4,62-434.7,71.3c0.3,0.3,0.5,0.6,0.7,0.8c8.3,9.2,9.9,11.5,30.1,8.2
			c0,0,377.1-61.8,385.8-63.2C544.5,1247.5,548.5,1243.6,554.3,1231.9z"/>
	</g>
	<polygon fill="#FFFFFF" points="511.5,1229.1 552.2,1140.9 92.7,1216.2 157.2,1287.2 	"/>
	<polygon fill="#BFBFBF" points="92.7,1216.5 101.2,1225.8 546.9,1152.7 552.2,1141.1 	"/>
	<polygon fill="#BFBFBF" points="287.5,1259.7 278.9,1239.8 147.3,1261.3 161.5,1280.3 	"/>
	<polygon fill="#88BAD8" points="516.7,1192.9 531.9,1162.6 120.2,1230.1 142.5,1254.3 	"/>
	<polygon fill="#525252" points="546.2,1188.9 500.3,1196.4 516.7,1162.9 562.5,1155.4 	"/>
	<polygon fill="#FFFFFF" points="526.2,1171.3 519.9,1172.3 522.4,1167.6 528.7,1166.6 	"/>
	<polygon fill="#E57473" points="528.6,1203.7 522.3,1204.7 524.8,1200 531.2,1199 	"/>
	<polygon fill="#BFBFBF" points="547.6,1167.8 531.1,1170.5 534.7,1165.6 552,1162.8 	"/>
	
		<linearGradient id="SVGID_2_" gradientUnits="userSpaceOnUse" x1="380.6178" y1="1267.7047" x2="423.3661" y2="1267.7047" gradientTransform="matrix(0.9868 -0.1618 0.1618 0.9868 -76.2688 -1.7409)">
		<stop  offset="0.1347" style="stop-color:#FFEF26"/>
		<stop  offset="0.1491" style="stop-color:#DFE920"/>
		<stop  offset="0.1737" style="stop-color:#AEE018"/>
		<stop  offset="0.199" style="stop-color:#83D911"/>
		<stop  offset="0.2245" style="stop-color:#61D30B"/>
		<stop  offset="0.2502" style="stop-color:#46CE06"/>
		<stop  offset="0.2764" style="stop-color:#33CB03"/>
		<stop  offset="0.3033" style="stop-color:#28C901"/>
		<stop  offset="0.332" style="stop-color:#24C800"/>
		<stop  offset="0.4963" style="stop-color:#F18F34"/>
		<stop  offset="0.7755" style="stop-color:#00217F"/>
		<stop  offset="1" style="stop-color:#E3312D"/>
	</linearGradient>
	<polygon fill="url(#SVGID_2_)" points="539.9,1186 509.4,1191 513.6,1182 544.9,1176.9 	"/>
	<polygon fill="#BFBFBF" points="424.9,1237.2 426.5,1215.6 292.6,1237.5 301.3,1257.4 	"/>
</g>
<g>
	<g>
		<polygon fill="#FFFFFF" points="181.5,1415 118.7,1489.8 266.5,1566.5 339,1480.1 206,1411.1 		"/>
		<g>
			<polygon fill="#E7E7E8" points="209.7,1475.4 178.9,1512 130.4,1486.9 161.2,1450.2 			"/>
			<g>
				<polygon fill="#E7E7E8" points="251.9,1443.9 189.9,1517.7 186.1,1515.8 248.2,1441.9 				"/>
				<polygon fill="#E7E7E8" points="260.1,1448.1 198,1522 194.3,1520 256.3,1446.2 				"/>
				<polygon fill="#E7E7E8" points="268.3,1452.4 206.2,1526.2 202.4,1524.3 264.5,1450.4 				"/>
				<polygon fill="#E7E7E8" points="276.4,1456.6 214.4,1530.5 210.6,1528.5 272.7,1454.6 				"/>
				<polygon fill="#E7E7E8" points="284.6,1460.8 222.5,1534.7 218.8,1532.7 280.8,1458.9 				"/>
				<polygon fill="#E7E7E8" points="292.8,1465.1 230.7,1538.9 226.9,1537 289,1463.1 				"/>
				<polygon fill="#E7E7E8" points="300.9,1469.3 238.9,1543.2 235.1,1541.2 297.2,1467.4 				"/>
				<polygon fill="#E7E7E8" points="309.1,1473.6 247,1547.4 243.3,1545.5 305.3,1471.6 				"/>
				<polygon fill="#E7E7E8" points="317.3,1477.8 255.2,1551.7 251.4,1549.7 313.5,1475.8 				"/>
				<polygon fill="#E7E7E8" points="325.4,1482 263.4,1555.9 259.6,1553.9 321.7,1480.1 				"/>
			</g>
			<g>
				<path fill="#E7E7E8" d="M213.2,1450.1c-2.1,2.3-4.7,3.8-4.7,3.8l-5.7-3l2-2.3l2.8,0.9c0,0,1.3-0.6,2.4-1.9
					c1.3-1.5,1.7-3.2,0.1-4c-3.5-1.8-8.4,6.9-15.7,3c-3.4-1.7-3.9-4.6-2.4-7.5l-3.8-2l2.3-2.7l3.7,1.9c2.1-2.1,4.5-3.4,4.5-3.4
					l5.2,2.9l-1.8,2.2l-2.8-0.8c0,0-1.4,0.8-2.2,1.8c-1.4,1.6-1.2,2.9,0,3.5c3.4,1.8,8.5-6.7,15.6-3.1c3.6,1.9,4.3,4.9,2.8,7.9
					l4.6,2.4l-2.3,2.7L213.2,1450.1z"/>
			</g>
		</g>
		<polygon fill="#F2F1F1" points="181.5,1415 206,1411.1 196.3,1422.7 		"/>
	</g>
	<g>
		<polygon fill="#FFFFFF" points="133.7,1445.3 100.9,1531.1 270.5,1571.2 308.4,1472.1 155.8,1436 		"/>
		<g>
			<polygon fill="#E7E7E8" points="182.8,1496.8 166.7,1538.8 111,1525.7 127.1,1483.6 			"/>
			<g>
				<polygon fill="#E7E7E8" points="211.7,1457.1 179.3,1541.8 174.9,1540.8 207.4,1456 				"/>
				<polygon fill="#E7E7E8" points="221.1,1459.3 188.7,1544 184.3,1543 216.8,1458.2 				"/>
				<polygon fill="#E7E7E8" points="230.5,1461.5 198,1546.3 193.7,1545.2 226.1,1460.5 				"/>
				<polygon fill="#E7E7E8" points="239.9,1463.7 207.4,1548.5 203.1,1547.4 235.5,1462.7 				"/>
				<polygon fill="#E7E7E8" points="249.2,1465.9 216.8,1550.7 212.4,1549.7 244.9,1464.9 				"/>
				<polygon fill="#E7E7E8" points="258.6,1468.1 226.2,1552.9 221.8,1551.9 254.3,1467.1 				"/>
				<polygon fill="#E7E7E8" points="268,1470.4 235.5,1555.1 231.2,1554.1 263.6,1469.3 				"/>
				<polygon fill="#E7E7E8" points="277.4,1472.6 244.9,1557.3 240.6,1556.3 273,1471.5 				"/>
				<polygon fill="#E7E7E8" points="286.7,1474.8 254.3,1559.5 249.9,1558.5 282.4,1473.8 				"/>
				<polygon fill="#E7E7E8" points="296.1,1477 263.6,1561.8 259.3,1560.7 291.7,1476 				"/>
			</g>
			<g>
				<path fill="#E7E7E8" d="M176.9,1471.7c-1.2,2.6-3.1,4.7-3.1,4.7l-6.6-1.6l1-2.7l3,0.2c0,0,1-0.8,1.6-2.4
					c0.7-1.8,0.4-3.5-1.4-3.9c-4-0.9-5.5,8.4-14,6.4c-3.9-0.9-5.5-3.5-5.1-6.6l-4.4-1l1.2-3.1l4.2,1c1.2-2.5,3.1-4.2,3.1-4.2
					l6.1,1.6l-1,2.5l-3-0.1c0,0-1,1.1-1.5,2.2c-0.7,1.9-0.1,3.1,1.3,3.4c3.9,0.9,5.7-8.4,13.8-6.5c4.2,1,5.9,3.7,5.6,6.9l5.2,1.2
					l-1.2,3.1L176.9,1471.7z"/>
			</g>
		</g>
		<polygon fill="#F2F1F1" points="133.7,1445.3 155.8,1436 150.7,1449.3 		"/>
	</g>
</g>
<g>
	<g>
		<path fill="#BCBABF" d="M181.5,1594.3c-7.4,1.2-14.4-3.9-15.6-11.3l-18.9-118.7c-1.2-7.4,3.9-14.4,11.3-15.6l48.1-7.6
			c7.4-1.2,14.4,3.9,15.6,11.3l18.9,118.7c1.2,7.4-3.9,14.4-11.3,15.6L181.5,1594.3z"/>
		<path fill="#333333" d="M238.8,1571.4c1,6.2-3.3,12.1-9.5,13.1l-48.1,7.6c-6.2,1-12.1-3.3-13.1-9.5l-18.9-118.7
			c-1-6.2,3.3-12.1,9.5-13.1l48.1-7.6c6.2-1,12.1,3.3,13.1,9.5L238.8,1571.4z"/>
		<path fill="#525252" d="M238.4,1576.7c-20.2-29.3-57.6-84-83.3-124.6c-4.2,2.2-6.7,6.9-5.9,11.9l18.9,118.7
			c1,6.2,6.9,10.5,13.1,9.5l48.1-7.6C233.7,1583.8,237.1,1580.7,238.4,1576.7z"/>
	</g>
	
		<rect x="160.5" y="1456.7" transform="matrix(0.9876 -0.1571 0.1571 0.9876 -235.7179 49.2461)" fill="#1F1919" width="66.4" height="118.4"/>
	<path opacity="0.3" fill="#333333" d="M160.9,1461.2l-9.3,1.5l18.6,117l63.3-10.1C214.2,1541.6,184.1,1497.4,160.9,1461.2z"/>
	<g>
		<path fill="#BCBABF" d="M196.5,1587.3c-2.4,0.4-4.7-1.3-5.1-3.7c-0.4-2.4,1.3-4.7,3.7-5.1l16.8-2.7c2.4-0.4,4.7,1.3,5.1,3.7
			c0.4,2.4-1.3,4.7-3.7,5.1L196.5,1587.3z"/>
		<path fill="#1F1919" d="M216.2,1579.7c0.3,2-1.1,3.9-3.1,4.3l-16.8,2.7c-2,0.3-3.9-1.1-4.3-3.1l0,0c-0.3-2,1.1-3.9,3.1-4.3
			l16.8-2.7C214,1576.3,215.9,1577.7,216.2,1579.7L216.2,1579.7z"/>
		<path fill="#333333" d="M212,1576.6l-13.3,2.1c3,2.7,7.6,5.3,14,5.3l0.4-0.1c2-0.3,3.4-2.2,3.1-4.3
			C215.9,1577.7,214,1576.3,212,1576.6z"/>
	</g>
</g>
<g>
	<path fill="#49789B" d="M339.9,1518.9c0.5,1.3-0.1,2.9-1.4,3.4l-12.8,5.3c-1.3,0.6-2.9-0.1-3.4-1.4l-16.7-40.5
		c-0.5-1.3,0.1-2.9,1.4-3.4l12.8-5.3c1.3-0.6,2.9,0.1,3.4,1.4L339.9,1518.9z"/>
	<path fill="#B73E3E" d="M329.7,1494.2l-6.6-15.9c-0.5-1.3-2.1-2-3.4-1.4l-12.8,5.3c-1.3,0.5-2,2.1-1.4,3.4l6.6,15.9L329.7,1494.2z"
		/>
	<path fill="#C65454" d="M324.3,1481c0.2,0.4,0,1-0.5,1.1l-16,6.6c-0.4,0.2-1,0-1.1-0.5l-1.8-4.3c-0.2-0.4,0-1,0.5-1.1l16-6.6
		c0.4-0.2,1,0,1.1,0.5L324.3,1481z"/>
	
		<rect x="304.9" y="1481.6" transform="matrix(0.9245 -0.3813 0.3813 0.9245 -541.2888 231.7959)" fill="#F2C7C7" width="19" height="1"/>
	<path opacity="0.37" fill="#FCFCFC" d="M325.3,1523.9c0.2,0.5,0,1.2-0.6,1.4l0,0c-0.5,0.2-1.2,0-1.4-0.6l-12.6-30.5
		c-0.2-0.5,0-1.2,0.6-1.4l0,0c0.5-0.2,1.2,0,1.4,0.6L325.3,1523.9z"/>
</g>
<g>
	<path fill="#33434F" d="M621.7,1659L501,1711.5c-7,3-15.2-0.2-18.2-7.2l-70.9-163.1c-3-7,0.2-15.2,7.2-18.2l120.8-52.5
		c7-3,15.2,0.2,18.2,7.2l70.9,163.1C631.9,1647.7,628.7,1655.9,621.7,1659z"/>
	
		<rect x="450.7" y="1504.3" transform="matrix(0.9171 -0.3988 0.3988 0.9171 -592.0149 340.2468)" fill="#FFFFFF" width="142.4" height="177.7"/>
	
		<rect x="484.4" y="1666.5" transform="matrix(0.9171 -0.3988 0.3988 0.9171 -620.1516 360.1324)" fill="#BFBFBF" width="142.4" height="8.5"/>
	
		<rect x="454.2" y="1492.4" transform="matrix(0.9171 -0.3988 0.3988 0.9171 -560.3286 311.8824)" fill="#EFEFEF" width="30.7" height="21"/>
	
		<rect x="481.1" y="1480.7" transform="matrix(0.9171 -0.3988 0.3988 0.9171 -553.4321 321.6404)" fill="#C9C9C9" width="30.7" height="21"/>
	<g>
		
			<ellipse transform="matrix(0.9187 -0.395 0.395 0.9187 -555.4919 303.1236)" fill="#B7B7B7" cx="458.5" cy="1500.7" rx="1.6" ry="1.6"/>
		
			<ellipse transform="matrix(0.9187 -0.395 0.395 0.9187 -544.1187 319.4394)" fill="#A8A8A8" cx="503.8" cy="1481.2" rx="1.6" ry="1.6"/>
	</g>
	
		<rect x="432.4" y="1525.6" transform="matrix(0.9171 -0.3988 0.3988 0.9171 -568.8113 324.614)" fill="none" stroke="#BABABA" stroke-width="1.3825" stroke-miterlimit="10" width="126.9" height="8.1"/>
	<g>
		
			<rect x="492.2" y="1532.9" transform="matrix(-0.9171 0.3988 -0.3988 -0.9171 1635.9589 2764.0557)" fill="none" stroke="#BABABA" stroke-width="1.3825" stroke-miterlimit="10" width="76.5" height="38.4"/>
	</g>
	<g>
		
			<rect x="445.4" y="1561.2" transform="matrix(-0.9171 0.3988 -0.3988 -0.9171 1512.871 2808.75)" fill="#D8D8D8" width="37.9" height="1.1"/>
		
			<rect x="447" y="1565" transform="matrix(0.9171 -0.3988 0.3988 0.9171 -585.6295 315.6706)" fill="#D8D8D8" width="37.9" height="1.1"/>
		
			<rect x="448.7" y="1568.9" transform="matrix(0.9171 -0.3988 0.3988 0.9171 -587.0228 316.6554)" fill="#D8D8D8" width="37.9" height="1.1"/>
		
			<rect x="450.4" y="1572.7" transform="matrix(0.9171 -0.3988 0.3988 0.9171 -588.4161 317.6401)" fill="#D8D8D8" width="37.9" height="1.1"/>
		
			<rect x="452" y="1576.5" transform="matrix(0.9171 -0.3988 0.3988 0.9171 -589.8095 318.6248)" fill="#D8D8D8" width="37.9" height="1.1"/>
		
			<rect x="453.7" y="1580.4" transform="matrix(0.9171 -0.3988 0.3988 0.9171 -591.203 319.6097)" fill="#D8D8D8" width="37.9" height="1.1"/>
		
			<rect x="455.4" y="1584.2" transform="matrix(0.9171 -0.3988 0.3988 0.9171 -592.5963 320.5944)" fill="#D8D8D8" width="37.9" height="1.1"/>
		
			<rect x="457.1" y="1588.1" transform="matrix(0.9171 -0.3988 0.3988 0.9171 -593.9896 321.5792)" fill="#D8D8D8" width="37.9" height="1.1"/>
		
			<rect x="458.7" y="1591.9" transform="matrix(0.9171 -0.3988 0.3988 0.9171 -595.383 322.5639)" fill="#D8D8D8" width="37.9" height="1.1"/>
		
			<rect x="460.4" y="1595.8" transform="matrix(-0.9171 0.3988 -0.3988 -0.9171 1555.4799 2869.0381)" fill="#D8D8D8" width="37.9" height="1.1"/>
	</g>
	<g>
		
			<rect x="472.5" y="1603.6" transform="matrix(-0.9171 0.3988 -0.3988 -0.9171 1605.7817 2911.6274)" fill="none" stroke="#BABABA" stroke-width="1.3825" stroke-miterlimit="10" width="55.1" height="38.4"/>
	</g>
	<g>
		
			<rect x="530.4" y="1577.8" transform="matrix(-0.9171 0.3988 -0.3988 -0.9171 1709.222 2838.5205)" fill="none" stroke="#BABABA" stroke-width="1.3825" stroke-miterlimit="10" width="58" height="38.4"/>
	</g>
</g>
<g>
	<g>
		<g>
			<path fill="#E5E5E5" d="M650.2,1590.1l-1.2,2.2c-0.7,1.4-0.1,3.2,1.4,4l7.5,3.9c1.5,0.8,3.4,0.3,4.1-1.1l1.2-2.2L650.2,1590.1z"
				/>
			<path fill="#C9C9C9" d="M650.2,1590.1l1.2-2.2c0.7-1.4,2.6-1.9,4.1-1.1l7.5,3.9c1.5,0.8,2.2,2.6,1.4,4l-1.2,2.2L650.2,1590.1z"/>
		</g>
		<g>
			<path fill="#E5E5E5" d="M650.2,1590.1l-1.2,2.2c-0.7,1.4-0.1,3.2,1.4,4l7.5,3.9c1.5,0.8,3.4,0.3,4.1-1.1l1.2-2.2L650.2,1590.1z"
				/>
			<path fill="#C9C9C9" d="M650.2,1590.1l1.2-2.2c0.7-1.4,2.6-1.9,4.1-1.1l7.5,3.9c1.5,0.8,2.2,2.6,1.4,4l-1.2,2.2L650.2,1590.1z"/>
		</g>
	</g>
	<g>
		<g>
			
				<rect x="565.5" y="1570.8" transform="matrix(-0.8865 -0.4627 0.4627 -0.8865 427.2902 3252.0505)" fill="#FFE048" width="93.9" height="5.6"/>
			
				<rect x="568.1" y="1565.9" transform="matrix(-0.8865 -0.4627 0.4627 -0.8865 434.4202 3243.947)" fill="#F7AD4B" width="93.9" height="5.6"/>
		</g>
		<g>
			
				<rect x="565.5" y="1570.8" transform="matrix(-0.8865 -0.4627 0.4627 -0.8865 427.2902 3252.0505)" fill="#FFE048" width="93.9" height="5.6"/>
			
				<rect x="568.1" y="1565.9" transform="matrix(-0.8865 -0.4627 0.4627 -0.8865 434.4202 3243.947)" fill="#F7AD4B" width="93.9" height="5.6"/>
		</g>
	</g>
	<polygon fill="#E8B58B" points="569.3,1554.2 570.2,1554.7 575.4,1544.8 574.4,1544.4 559.9,1542.5 559.7,1542.9 559.5,1543.3 	"/>
	<polygon fill="#333231" points="560,1543.9 558.2,1542.2 560.7,1542.6 	"/>
	<g>
		<g>
			
				<rect x="652.7" y="1592.5" transform="matrix(0.8866 0.4625 -0.4625 0.8866 812.0631 -121.6008)" fill="#33434F" width="2.6" height="5.6"/>
			
				<rect x="655.3" y="1587.6" transform="matrix(0.8866 0.4625 -0.4625 0.8866 810.0761 -123.3487)" fill="#33434F" width="2.6" height="5.6"/>
		</g>
		<g>
			
				<rect x="652.7" y="1592.5" transform="matrix(0.8866 0.4625 -0.4625 0.8866 812.0631 -121.6008)" fill="#33434F" width="2.6" height="5.6"/>
			
				<rect x="655.3" y="1587.6" transform="matrix(0.8866 0.4625 -0.4625 0.8866 810.0761 -123.3487)" fill="#33434F" width="2.6" height="5.6"/>
		</g>
	</g>
</g>
<g>
	<path opacity="0.17" fill="#020202" d="M569.1,1390.2c0,0-3.6-4.9-7.8-10.6c5.7-6,5.1-17.6,6.4-19.4c1.4-2,3.9-1.8,3.9-1.8l0.3-4.1
		c0,0-7.2-1.5-29.5-3c-22.3-1.5-26.9,2.9-32.8,2.8c-0.5,0-0.9,0-1.4,0c-0.4,0-0.9-0.1-1.4-0.2c-5.8-0.7-9.9-5.6-32.1-7.1
		c-22.3-1.5-29.6-0.9-29.6-0.9l-0.3,4.1c0,0,2.5,0.2,3.7,2.3c1.2,2.1-1.5,15.4,5.3,21.7c0,0,0,0,0.1,0c-4.6,4.6-8.2,8.5-8.2,8.5
		s-0.9,3.3,1.8,3.6c2.8,0.3,2.7,1.8,7.3-4.5c1-1.4,2.2-3.1,3.6-5c9.6,3.8,27.5,4.1,32.7,2.9c6.2-1.5,9.7-14.7,12.5-17.2
		c0.1-0.1,0.2-0.1,0.2-0.2c0.8-0.2,2.4-0.6,4-0.7c1.6,0.2,3.1,0.8,3.9,1.2c0.1,0.1,0.1,0.1,0.2,0.2c2.4,2.8,4.2,16.4,10.2,18.7
		c5.4,2.1,25.8,4.3,35.1,0.7c1.1,2.2,2.2,4.2,3,5.8c3.8,6.8,3.9,5.4,6.7,5.4C569.6,1393.6,569.1,1390.2,569.1,1390.2z"/>
	<g>
		<path d="M448.4,1382.7c0,0-0.9,3.3,1.8,3.6c2.8,0.3,2.7,1.8,7.3-4.5c4.7-6.3,13.2-19.9,18.3-21.7c5.1-1.9,10.6-2.7,20-1.9
			c9.5,0.8,14.1,0.9,14.1,0.9l-0.7-3l-55.5-6l-0.1,1.9l30.9,4.2c0,0-7.5-1.4-14.7,5C462.7,1367.7,448.4,1382.7,448.4,1382.7"/>
		<path d="M571.9,1390.2c0,0,0.5,3.4-2.3,3.4c-2.8,0-2.9,1.4-6.7-5.4c-3.8-6.8-10.4-21.5-15.2-24c-4.8-2.5-10.1-4-19.6-4.5
			c-9.5-0.5-14.1-0.9-14.1-0.9l1.1-2.8l55.8,1.3l-0.1,1.9l-31.2,0.1c0,0,7.6-0.4,13.9,6.9C559.7,1373.5,571.9,1390.2,571.9,1390.2"
			/>
		<g opacity="0.25">
			<polygon fill="#F0F0F2" points="451.3,1347.1 471.5,1348.4 494.4,1349.9 506.8,1356.6 498.1,1372.3 493.1,1377.9 474.8,1378 
				460,1375 454.7,1368.8 452.3,1356.5 			"/>
		</g>
		<polygon opacity="0.24" fill="#F0F0F2" points="569.9,1354.9 550.3,1353.6 528.1,1352.2 515.2,1357.2 521.5,1373.8 525.6,1380.1 
			543.2,1382.6 557.9,1381.5 563.8,1376 567.7,1364.1 		"/>
		<path d="M545.2,1351.5c-22.3-1.5-26.9,2.9-32.8,2.8c-0.5,0-0.9,0-1.4,0c-0.4,0-0.9-0.1-1.4-0.2c-5.8-0.7-9.9-5.6-32.1-7.1
			c-22.3-1.5-29.6-0.9-29.6-0.9l-0.3,4.1c0,0,2.5,0.2,3.7,2.3c1.2,2.1-1.5,15.4,5.3,21.7c6.7,6.3,31,7,37.2,5.5
			c6.2-1.5,9.7-14.7,12.5-17.2c0.1-0.1,0.2-0.1,0.2-0.2c0.8-0.2,2.4-0.6,4-0.7c1.6,0.2,3.1,0.8,3.9,1.2c0.1,0.1,0.1,0.1,0.2,0.2
			c2.4,2.8,4.2,16.4,10.2,18.7c6,2.3,30.1,4.8,37.6-0.6c7.5-5.4,6.7-18.9,8.1-20.8c1.4-2,3.9-1.8,3.9-1.8l0.3-4.1
			C574.7,1354.5,567.5,1353,545.2,1351.5 M503.6,1359c-0.3,2.2-5,13.9-9.2,16.9c-4.2,3.1-24.4,0.3-32.2-2.1
			c-7.7-2.4-6.9-8.5-7.5-15.1c-0.6-6.6,0-8.6,1.5-9.1c1.5-0.5,32.8,0.7,40,3.1C503.4,1355,503.9,1356.8,503.6,1359 M566.2,1366
			c-1.5,6.5-1.4,12.6-9.4,14c-8,1.4-28.5,1.5-32.2-2.1c-3.7-3.6-6.9-15.8-6.9-18c0-2.2,0.7-3.9,8.1-5.3c7.4-1.4,38.6,1.5,40.1,2.2
			C567.3,1357.5,567.6,1359.5,566.2,1366"/>
		<path fill="#F0F0F2" d="M523.1,1368.5c0,0-4.1-7.6-2.5-9.9c1.5-2.3,6.9-2.8,6.9-2.8s-5.8,1.3-6.1,3.8
			C521,1362.1,523.1,1368.5,523.1,1368.5z"/>
		<path fill="#F0F0F2" d="M457.3,1363.7c0,0,0.3,5.2,2.7,6.6c2.4,1.4,6.2,1.4,6.2,1.4s-4.8-0.8-6.5-2.6S457.3,1363.7,457.3,1363.7z"
			/>
	</g>
</g>
<linearGradient id="SVGID_3_" gradientUnits="userSpaceOnUse" x1="515.2414" y1="1448.7065" x2="515.2414" y2="1356.9614" gradientTransform="matrix(0.9868 -0.1618 0.1618 0.9868 -76.2688 -1.7409)">
	<stop  offset="0.3122" style="stop-color:#FFFFFF"/>
	<stop  offset="0.4724" style="stop-color:#FAFBFB"/>
	<stop  offset="0.6503" style="stop-color:#EDEDEE"/>
	<stop  offset="0.8359" style="stop-color:#D7D8D9"/>
	<stop  offset="1" style="stop-color:#BDBEC0"/>
</linearGradient>
<polygon fill="url(#SVGID_3_)" points="626.3,1351.1 601.9,1304.1 695.1,1246.9 716.2,1293.3 "/>
<g>
	<path fill="#BCBABF" d="M670.1,1270.6c-3,2.4-7.3,1.9-9.7-1.1l-2.4-3c-2.4-3-1.9-7.3,1.1-9.7l22.5-17.8c3-2.4,7.3-1.9,9.7,1.1
		l2.4,3c2.4,3,1.9,7.3-1.1,9.7L670.1,1270.6z"/>
	<path fill="#E6E6E5" d="M682.1,1245.2c2.7-2.1,5.5-4.2,8.2-6.2c-2.5-2-6.1-2.2-8.7-0.1l-22.5,17.8c-2.7,2.1-3.4,5.9-1.7,8.8
		C665.5,1258.5,673.7,1251.8,682.1,1245.2z"/>
	<circle fill="#BCBABF" cx="640.8" cy="1280.5" r="45.7"/>
	<path fill="#E6E6E5" d="M609.2,1297.9c11.6-12.4,23.7-24.4,36.2-35.8c6.5-6,13.1-11.8,19.6-17.9c0.5-0.5,1-1,1.5-1.5
		c-7.3-5-16.1-7.9-25.6-7.9c-25.2,0-45.7,20.4-45.7,45.7c0,9.1,2.7,17.6,7.3,24.7C604.7,1302.8,606.9,1300.4,609.2,1297.9z"/>
	<circle fill="#622E12" cx="640.8" cy="1280.5" r="39.4"/>
</g>
<g>
	<linearGradient id="SVGID_4_" gradientUnits="userSpaceOnUse" x1="329.6177" y1="257.0571" x2="320.0624" y2="147.8398">
		<stop  offset="0.1665" style="stop-color:#E2A1A1"/>
		<stop  offset="0.3262" style="stop-color:#DF9F9F"/>
		<stop  offset="0.442" style="stop-color:#D69898"/>
		<stop  offset="0.5441" style="stop-color:#C68D8D"/>
		<stop  offset="0.6381" style="stop-color:#AF7D7D"/>
		<stop  offset="0.7267" style="stop-color:#936868"/>
		<stop  offset="0.8113" style="stop-color:#6F4F4F"/>
		<stop  offset="0.8926" style="stop-color:#453131"/>
		<stop  offset="0.9694" style="stop-color:#150F0F"/>
		<stop  offset="1" style="stop-color:#000000"/>
	</linearGradient>
	<polygon opacity="0.5" fill="url(#SVGID_4_)" points="172.5,270.8 82,196 494.6,132.6 567.4,206.3 	"/>
	<g>
		<path fill="#BCBABF" d="M233.7,168.5c1.5,11.7,0.9,28.7,4.2,32.7c3.2,4,8.4,9.8,26,6.9c17.6-2.9,69.5-11.4,74.7-12.2
			s18.3-7.4,17.8-15.2c-0.5-7.9-6.4-28-7-30.6C348.6,147.3,233.7,168.5,233.7,168.5z"/>
		<path fill="#939298" d="M352.9,163.6c-1.6-6.5-3.3-12.3-3.6-13.7c-0.6-2.7-115.6,18.5-115.6,18.5c0.6,4.4,0.8,9.5,1.1,14.5
			L352.9,163.6z"/>
		<path fill="#BECBD3" d="M-7.2,98.2C-7.4,92.9-3.3,87.5,5.3,86C20.5,83.5,523.5,1.1,536-1c12.6-2.1,14.3-0.1,16.7,1.4
			s5.2,6.1,4.2,10C555.9,14.4-7.2,98.2-7.2,98.2z"/>
		<path fill="#1F1919" d="M28.4,86.1c-17.3,2.8-47.1,3.5-31,22C13.5,126.6,66,178.8,74.2,188c8.3,9.2,9.9,11.5,30.1,8.2
			c0,0,377.1-61.8,385.8-63.2c8.6-1.4,12.6-5.4,18.6-17.8c6-12.4,43.6-90.3,46.5-97.6s5.7-19.1-21-14.7
			C507.4,7.2,28.4,86.1,28.4,86.1z"/>
		<path fill="#282222" d="M-2.6,108.1C13.5,126.6,66,178.8,74.2,188c8.3,9.2,9.9,11.5,30.1,8.2c0,0,187-30.7,300.7-49.3
			c-89-10.8-219.3-31.3-332.9-67.9c-27.1,4.5-43.7,7.2-43.7,7.2C11.1,89-18.8,89.6-2.6,108.1z"/>
		<polygon fill="#323232" points="493,114.7 539.7,13.3 11.2,99.9 85.4,181.5 		"/>
		<path fill="#494949" d="M85.4,181.5l259.8-42.6C270,128,179.3,111.2,95.3,86.1L11.2,99.9L85.4,181.5z"/>
		<path fill="#BCBABF" d="M508.3,115.9c-53.4,8.8-378.4,62-434.7,71.3c0.3,0.3,0.5,0.6,0.7,0.8c8.3,9.2,9.9,11.5,30.1,8.2
			c0,0,377.1-61.8,385.8-63.2C498.5,131.5,502.5,127.6,508.3,115.9z"/>
	</g>
	<polygon fill="#FFFFFF" points="465.5,113.1 506.2,24.9 46.7,100.2 111.2,171.2 	"/>
	<polygon fill="#BFBFBF" points="46.7,100.5 55.2,109.8 500.9,36.7 506.2,25.1 	"/>
	<polygon fill="#BFBFBF" points="241.5,143.7 232.9,123.8 101.3,145.3 115.5,164.3 	"/>
	<polygon fill="#88BAD8" points="470.7,76.9 485.9,46.6 74.2,114.1 96.5,138.3 	"/>
	<polygon fill="#525252" points="500.2,72.9 454.3,80.4 470.7,46.9 516.5,39.4 	"/>
	<polygon fill="#FFFFFF" points="480.2,55.3 473.9,56.3 476.4,51.6 482.7,50.6 	"/>
	<polygon fill="#E57473" points="482.6,87.7 476.3,88.7 478.8,84 485.2,83 	"/>
	<polygon fill="#BFBFBF" points="501.6,51.8 485.1,54.5 488.7,49.6 506,46.8 	"/>
	
		<linearGradient id="SVGID_5_" gradientUnits="userSpaceOnUse" x1="515.7596" y1="158.9628" x2="558.5078" y2="158.9628" gradientTransform="matrix(0.9868 -0.1618 0.1618 0.9868 -76.2688 -1.7409)">
		<stop  offset="0.1347" style="stop-color:#FFEF26"/>
		<stop  offset="0.1491" style="stop-color:#DFE920"/>
		<stop  offset="0.1737" style="stop-color:#AEE018"/>
		<stop  offset="0.199" style="stop-color:#83D911"/>
		<stop  offset="0.2245" style="stop-color:#61D30B"/>
		<stop  offset="0.2502" style="stop-color:#46CE06"/>
		<stop  offset="0.2764" style="stop-color:#33CB03"/>
		<stop  offset="0.3033" style="stop-color:#28C901"/>
		<stop  offset="0.332" style="stop-color:#24C800"/>
		<stop  offset="0.4963" style="stop-color:#F18F34"/>
		<stop  offset="0.7755" style="stop-color:#00217F"/>
		<stop  offset="1" style="stop-color:#E3312D"/>
	</linearGradient>
	<polygon fill="url(#SVGID_5_)" points="493.9,70 463.4,75 467.6,66 498.9,60.9 	"/>
	<polygon fill="#BFBFBF" points="378.9,121.2 380.5,99.6 246.6,121.5 255.3,141.4 	"/>
</g>
<g>
	<g>
		<polygon fill="#FFFFFF" points="135.5,299 72.7,373.8 220.5,450.5 293,364.1 160,295.1 		"/>
		<g>
			<polygon fill="#E7E7E8" points="163.7,359.4 132.9,396 84.4,370.9 115.2,334.2 			"/>
			<g>
				<polygon fill="#E7E7E8" points="205.9,327.9 143.9,401.7 140.1,399.8 202.2,325.9 				"/>
				<polygon fill="#E7E7E8" points="214.1,332.1 152,406 148.3,404 210.3,330.2 				"/>
				<polygon fill="#E7E7E8" points="222.3,336.4 160.2,410.2 156.4,408.3 218.5,334.4 				"/>
				<polygon fill="#E7E7E8" points="230.4,340.6 168.4,414.5 164.6,412.5 226.7,338.6 				"/>
				<polygon fill="#E7E7E8" points="238.6,344.8 176.5,418.7 172.8,416.7 234.8,342.9 				"/>
				<polygon fill="#E7E7E8" points="246.8,349.1 184.7,422.9 180.9,421 243,347.1 				"/>
				<polygon fill="#E7E7E8" points="254.9,353.3 192.9,427.2 189.1,425.2 251.2,351.4 				"/>
				<polygon fill="#E7E7E8" points="263.1,357.6 201,431.4 197.3,429.5 259.3,355.6 				"/>
				<polygon fill="#E7E7E8" points="271.3,361.8 209.2,435.7 205.4,433.7 267.5,359.8 				"/>
				<polygon fill="#E7E7E8" points="279.4,366 217.4,439.9 213.6,437.9 275.7,364.1 				"/>
			</g>
			<g>
				<path fill="#E7E7E8" d="M167.2,334.1c-2.1,2.3-4.7,3.8-4.7,3.8l-5.7-3l2-2.3l2.8,0.9c0,0,1.3-0.6,2.4-1.9c1.3-1.5,1.7-3.2,0.1-4
					c-3.5-1.8-8.4,6.9-15.7,3c-3.4-1.7-3.9-4.6-2.4-7.5l-3.8-2l2.3-2.7l3.7,1.9c2.1-2.1,4.5-3.4,4.5-3.4l5.2,2.9l-1.8,2.2l-2.8-0.8
					c0,0-1.4,0.8-2.2,1.8c-1.4,1.6-1.2,2.9,0,3.5c3.4,1.8,8.5-6.7,15.6-3.1c3.6,1.9,4.3,4.9,2.8,7.9l4.6,2.4l-2.3,2.7L167.2,334.1z"
					/>
			</g>
		</g>
		<polygon fill="#F2F1F1" points="135.5,299 160,295.1 150.3,306.7 		"/>
	</g>
	<g>
		<polygon fill="#FFFFFF" points="87.7,329.3 54.9,415.1 224.5,455.2 262.4,356.1 109.8,320 		"/>
		<g>
			<polygon fill="#E7E7E8" points="136.8,380.8 120.7,422.8 65,409.7 81.1,367.6 			"/>
			<g>
				<polygon fill="#E7E7E8" points="165.7,341.1 133.3,425.8 128.9,424.8 161.4,340 				"/>
				<polygon fill="#E7E7E8" points="175.1,343.3 142.7,428 138.3,427 170.8,342.2 				"/>
				<polygon fill="#E7E7E8" points="184.5,345.5 152,430.3 147.7,429.2 180.1,344.5 				"/>
				<polygon fill="#E7E7E8" points="193.9,347.7 161.4,432.5 157.1,431.4 189.5,346.7 				"/>
				<polygon fill="#E7E7E8" points="203.2,349.9 170.8,434.7 166.4,433.7 198.9,348.9 				"/>
				<polygon fill="#E7E7E8" points="212.6,352.1 180.2,436.9 175.8,435.9 208.3,351.1 				"/>
				<polygon fill="#E7E7E8" points="222,354.4 189.5,439.1 185.2,438.1 217.6,353.3 				"/>
				<polygon fill="#E7E7E8" points="231.4,356.6 198.9,441.3 194.6,440.3 227,355.5 				"/>
				<polygon fill="#E7E7E8" points="240.7,358.8 208.3,443.5 203.9,442.5 236.4,357.8 				"/>
				<polygon fill="#E7E7E8" points="250.1,361 217.6,445.8 213.3,444.7 245.7,360 				"/>
			</g>
			<g>
				<path fill="#E7E7E8" d="M130.9,355.7c-1.2,2.6-3.1,4.7-3.1,4.7l-6.6-1.6l1-2.7l3,0.2c0,0,1-0.8,1.6-2.4c0.7-1.8,0.4-3.5-1.4-3.9
					c-4-0.9-5.5,8.4-14,6.4c-3.9-0.9-5.5-3.5-5.1-6.6l-4.4-1l1.2-3.1l4.2,1c1.2-2.5,3.1-4.2,3.1-4.2l6.1,1.6l-1,2.5l-3-0.1
					c0,0-1,1.1-1.5,2.2c-0.7,1.9-0.1,3.1,1.3,3.4c3.9,0.9,5.7-8.4,13.8-6.5c4.2,1,5.9,3.7,5.6,6.9l5.2,1.2l-1.2,3.1L130.9,355.7z"/>
			</g>
		</g>
		<polygon fill="#F2F1F1" points="87.7,329.3 109.8,320 104.7,333.3 		"/>
	</g>
</g>
<g>
	<g>
		<path fill="#BCBABF" d="M135.5,478.3c-7.4,1.2-14.4-3.9-15.6-11.3l-18.9-118.7c-1.2-7.4,3.9-14.4,11.3-15.6l48.1-7.6
			c7.4-1.2,14.4,3.9,15.6,11.3l18.9,118.7c1.2,7.4-3.9,14.4-11.3,15.6L135.5,478.3z"/>
		<path fill="#333333" d="M192.8,455.4c1,6.2-3.3,12.1-9.5,13.1l-48.1,7.6c-6.2,1-12.1-3.3-13.1-9.5l-18.9-118.7
			c-1-6.2,3.3-12.1,9.5-13.1l48.1-7.6c6.2-1,12.1,3.3,13.1,9.5L192.8,455.4z"/>
		<path fill="#525252" d="M192.4,460.7c-20.2-29.3-57.6-84-83.3-124.6c-4.2,2.2-6.7,6.9-5.9,11.9l18.9,118.7
			c1,6.2,6.9,10.5,13.1,9.5l48.1-7.6C187.7,467.8,191.1,464.7,192.4,460.7z"/>
	</g>
	
		<rect x="114.5" y="340.7" transform="matrix(0.9876 -0.1571 0.1571 0.9876 -60.9908 28.1669)" fill="#1F1919" width="66.4" height="118.4"/>
	<path opacity="0.3" fill="#333333" d="M114.9,345.2l-9.3,1.5l18.6,117l63.3-10.1C168.2,425.6,138.1,381.4,114.9,345.2z"/>
	<g>
		<path fill="#BCBABF" d="M150.5,471.3c-2.4,0.4-4.7-1.3-5.1-3.7c-0.4-2.4,1.3-4.7,3.7-5.1l16.8-2.7c2.4-0.4,4.7,1.3,5.1,3.7
			c0.4,2.4-1.3,4.7-3.7,5.1L150.5,471.3z"/>
		<path fill="#1F1919" d="M170.2,463.7c0.3,2-1.1,3.9-3.1,4.3l-16.8,2.7c-2,0.3-3.9-1.1-4.3-3.1l0,0c-0.3-2,1.1-3.9,3.1-4.3
			l16.8-2.7C168,460.3,169.9,461.7,170.2,463.7L170.2,463.7z"/>
		<path fill="#333333" d="M166,460.6l-13.3,2.1c3,2.7,7.6,5.3,14,5.3l0.4-0.1c2-0.3,3.4-2.2,3.1-4.3
			C169.9,461.7,168,460.3,166,460.6z"/>
	</g>
</g>
<g>
	<path fill="#49789B" d="M293.9,402.9c0.5,1.3-0.1,2.9-1.4,3.4l-12.8,5.3c-1.3,0.6-2.9-0.1-3.4-1.4l-16.7-40.5
		c-0.5-1.3,0.1-2.9,1.4-3.4l12.8-5.3c1.3-0.6,2.9,0.1,3.4,1.4L293.9,402.9z"/>
	<path fill="#B73E3E" d="M283.7,378.2l-6.6-15.9c-0.5-1.3-2.1-2-3.4-1.4l-12.8,5.3c-1.3,0.5-2,2.1-1.4,3.4l6.6,15.9L283.7,378.2z"/>
	<path fill="#C65454" d="M278.3,365c0.2,0.4,0,1-0.5,1.1l-16,6.6c-0.4,0.2-1,0-1.1-0.5l-1.8-4.3c-0.2-0.4,0-1,0.5-1.1l16-6.6
		c0.4-0.2,1,0,1.1,0.5L278.3,365z"/>
	
		<rect x="258.9" y="365.6" transform="matrix(0.9245 -0.3813 0.3813 0.9245 -119.2857 129.968)" fill="#F2C7C7" width="19" height="1"/>
	<path opacity="0.37" fill="#FCFCFC" d="M279.3,407.9c0.2,0.5,0,1.2-0.6,1.4l0,0c-0.5,0.2-1.2,0-1.4-0.6l-12.6-30.5
		c-0.2-0.5,0-1.2,0.6-1.4l0,0c0.5-0.2,1.2,0,1.4,0.6L279.3,407.9z"/>
</g>
<g>
	<path fill="#33434F" d="M575.7,543L455,595.5c-7,3-15.2-0.2-18.2-7.2l-70.9-163.1c-3-7,0.2-15.2,7.2-18.2l120.8-52.5
		c7-3,15.2,0.2,18.2,7.2l70.9,163.1C585.9,531.7,582.7,539.9,575.7,543z"/>
	
		<rect x="404.7" y="388.3" transform="matrix(0.9171 -0.3988 0.3988 0.9171 -150.8157 229.3383)" fill="#FFFFFF" width="142.4" height="177.7"/>
	
		<rect x="438.4" y="550.5" transform="matrix(0.9171 -0.3988 0.3988 0.9171 -178.9523 249.2239)" fill="#BFBFBF" width="142.4" height="8.5"/>
	
		<rect x="408.2" y="376.4" transform="matrix(0.9171 -0.3988 0.3988 0.9171 -119.1293 200.9739)" fill="#EFEFEF" width="30.7" height="21"/>
	
		<rect x="435.1" y="364.7" transform="matrix(0.9171 -0.3988 0.3988 0.9171 -112.2329 210.7318)" fill="#C9C9C9" width="30.7" height="21"/>
	<g>
		
			<ellipse transform="matrix(0.9187 -0.395 0.395 0.9187 -118.4174 194.204)" fill="#B7B7B7" cx="412.5" cy="384.7" rx="1.6" ry="1.6"/>
		
			<ellipse transform="matrix(0.9187 -0.395 0.395 0.9187 -107.0423 210.5189)" fill="#A8A8A8" cx="457.8" cy="365.2" rx="1.6" ry="1.6"/>
	</g>
	
		<rect x="386.4" y="409.6" transform="matrix(0.9171 -0.3988 0.3988 0.9171 -127.6121 213.7056)" fill="none" stroke="#BABABA" stroke-width="1.3825" stroke-miterlimit="10" width="126.9" height="8.1"/>
	<g>
		
			<rect x="446.2" y="416.9" transform="matrix(-0.9171 0.3988 -0.3988 -0.9171 1102.7594 642.9642)" fill="none" stroke="#BABABA" stroke-width="1.3825" stroke-miterlimit="10" width="76.5" height="38.4"/>
	</g>
	<g>
		
			<rect x="399.4" y="445.2" transform="matrix(-0.9171 0.3988 -0.3988 -0.9171 979.6717 687.6584)" fill="#D8D8D8" width="37.9" height="1.1"/>
		
			<rect x="401" y="449" transform="matrix(0.9171 -0.3988 0.3988 0.9171 -144.4302 204.7621)" fill="#D8D8D8" width="37.9" height="1.1"/>
		
			<rect x="402.7" y="452.9" transform="matrix(0.9171 -0.3988 0.3988 0.9171 -145.8236 205.7468)" fill="#D8D8D8" width="37.9" height="1.1"/>
		
			<rect x="404.4" y="456.7" transform="matrix(0.9171 -0.3988 0.3988 0.9171 -147.2169 206.7316)" fill="#D8D8D8" width="37.9" height="1.1"/>
		
			<rect x="406" y="460.5" transform="matrix(0.9171 -0.3988 0.3988 0.9171 -148.6102 207.7163)" fill="#D8D8D8" width="37.9" height="1.1"/>
		
			<rect x="407.7" y="464.4" transform="matrix(0.9171 -0.3988 0.3988 0.9171 -150.0037 208.7012)" fill="#D8D8D8" width="37.9" height="1.1"/>
		
			<rect x="409.4" y="468.2" transform="matrix(0.9171 -0.3988 0.3988 0.9171 -151.397 209.6859)" fill="#D8D8D8" width="37.9" height="1.1"/>
		
			<rect x="411.1" y="472.1" transform="matrix(0.9171 -0.3988 0.3988 0.9171 -152.7904 210.6707)" fill="#D8D8D8" width="37.9" height="1.1"/>
		
			<rect x="412.7" y="475.9" transform="matrix(0.9171 -0.3988 0.3988 0.9171 -154.1837 211.6554)" fill="#D8D8D8" width="37.9" height="1.1"/>
		
			<rect x="414.4" y="479.8" transform="matrix(-0.9171 0.3988 -0.3988 -0.9171 1022.2806 747.9466)" fill="#D8D8D8" width="37.9" height="1.1"/>
	</g>
	<g>
		
			<rect x="426.5" y="487.6" transform="matrix(-0.9171 0.3988 -0.3988 -0.9171 1072.582 790.5361)" fill="none" stroke="#BABABA" stroke-width="1.3825" stroke-miterlimit="10" width="55.1" height="38.4"/>
	</g>
	<g>
		
			<rect x="484.4" y="461.8" transform="matrix(-0.9171 0.3988 -0.3988 -0.9171 1176.0222 717.4293)" fill="none" stroke="#BABABA" stroke-width="1.3825" stroke-miterlimit="10" width="58" height="38.4"/>
	</g>
</g>
<g>
	<g>
		<g>
			<path fill="#E5E5E5" d="M604.2,474.1l-1.2,2.2c-0.7,1.4-0.1,3.2,1.4,4l7.5,3.9c1.5,0.8,3.4,0.3,4.1-1.1l1.2-2.2L604.2,474.1z"/>
			<path fill="#C9C9C9" d="M604.2,474.1l1.2-2.2c0.7-1.4,2.6-1.9,4.1-1.1l7.5,3.9c1.5,0.8,2.2,2.6,1.4,4l-1.2,2.2L604.2,474.1z"/>
		</g>
		<g>
			<path fill="#E5E5E5" d="M604.2,474.1l-1.2,2.2c-0.7,1.4-0.1,3.2,1.4,4l7.5,3.9c1.5,0.8,3.4,0.3,4.1-1.1l1.2-2.2L604.2,474.1z"/>
			<path fill="#C9C9C9" d="M604.2,474.1l1.2-2.2c0.7-1.4,2.6-1.9,4.1-1.1l7.5,3.9c1.5,0.8,2.2,2.6,1.4,4l-1.2,2.2L604.2,474.1z"/>
		</g>
	</g>
	<g>
		<g>
			
				<rect x="519.5" y="454.8" transform="matrix(-0.8865 -0.4627 0.4627 -0.8865 856.9339 1125.4392)" fill="#FFE048" width="93.9" height="5.6"/>
			
				<rect x="522.1" y="449.9" transform="matrix(-0.8865 -0.4627 0.4627 -0.8865 864.0638 1117.3359)" fill="#F7AD4B" width="93.9" height="5.6"/>
		</g>
		<g>
			
				<rect x="519.5" y="454.8" transform="matrix(-0.8865 -0.4627 0.4627 -0.8865 856.9339 1125.4392)" fill="#FFE048" width="93.9" height="5.6"/>
			
				<rect x="522.1" y="449.9" transform="matrix(-0.8865 -0.4627 0.4627 -0.8865 864.0638 1117.3359)" fill="#F7AD4B" width="93.9" height="5.6"/>
		</g>
	</g>
	<polygon fill="#E8B58B" points="523.3,438.2 524.2,438.7 529.4,428.8 528.4,428.4 513.9,426.5 513.7,426.9 513.5,427.3 	"/>
	<polygon fill="#333231" points="514,427.9 512.2,426.2 514.7,426.6 	"/>
	<g>
		<g>
			
				<rect x="606.7" y="476.5" transform="matrix(0.8866 0.4625 -0.4625 0.8866 290.6465 -226.8828)" fill="#33434F" width="2.6" height="5.6"/>
			
				<rect x="609.3" y="471.6" transform="matrix(0.8866 0.4625 -0.4625 0.8866 288.6595 -228.6307)" fill="#33434F" width="2.6" height="5.6"/>
		</g>
		<g>
			
				<rect x="606.7" y="476.5" transform="matrix(0.8866 0.4625 -0.4625 0.8866 290.6465 -226.8828)" fill="#33434F" width="2.6" height="5.6"/>
			
				<rect x="609.3" y="471.6" transform="matrix(0.8866 0.4625 -0.4625 0.8866 288.6595 -228.6307)" fill="#33434F" width="2.6" height="5.6"/>
		</g>
	</g>
</g>
<g>
	<path opacity="0.17" fill="#020202" d="M523.1,274.2c0,0-3.6-4.9-7.8-10.6c5.7-6,5.1-17.6,6.4-19.4c1.4-2,3.9-1.8,3.9-1.8l0.3-4.1
		c0,0-7.2-1.5-29.5-3c-22.3-1.5-26.9,2.9-32.8,2.8c-0.5,0-0.9,0-1.4,0c-0.4,0-0.9-0.1-1.4-0.2c-5.8-0.7-9.9-5.6-32.1-7.1
		c-22.3-1.5-29.6-0.9-29.6-0.9l-0.3,4.1c0,0,2.5,0.2,3.7,2.3c1.2,2.1-1.5,15.4,5.3,21.7c0,0,0,0,0.1,0c-4.6,4.6-8.2,8.5-8.2,8.5
		s-0.9,3.3,1.8,3.6c2.8,0.3,2.7,1.8,7.3-4.5c1-1.4,2.2-3.1,3.6-5c9.6,3.8,27.5,4.1,32.7,2.9c6.2-1.5,9.7-14.7,12.5-17.2
		c0.1-0.1,0.2-0.1,0.2-0.2c0.8-0.2,2.4-0.6,4-0.7c1.6,0.2,3.1,0.8,3.9,1.2c0.1,0.1,0.1,0.1,0.2,0.2c2.4,2.8,4.2,16.4,10.2,18.7
		c5.4,2.1,25.8,4.3,35.1,0.7c1.1,2.2,2.2,4.2,3,5.8c3.8,6.8,3.9,5.4,6.7,5.4C523.6,277.6,523.1,274.2,523.1,274.2z"/>
	<g>
		<path d="M402.4,266.7c0,0-0.9,3.3,1.8,3.6c2.8,0.3,2.7,1.8,7.3-4.5c4.7-6.3,13.2-19.9,18.3-21.7c5.1-1.9,10.6-2.7,20-1.9
			c9.5,0.8,14.1,0.9,14.1,0.9l-0.7-3l-55.5-6l-0.1,1.9l30.9,4.2c0,0-7.5-1.4-14.7,5C416.7,251.7,402.4,266.7,402.4,266.7"/>
		<path d="M525.9,274.2c0,0,0.5,3.4-2.3,3.4c-2.8,0-2.9,1.4-6.7-5.4c-3.8-6.8-10.4-21.5-15.2-24c-4.8-2.5-10.1-4-19.6-4.5
			c-9.5-0.5-14.1-0.9-14.1-0.9l1.1-2.8l55.8,1.3l-0.1,1.9l-31.2,0.1c0,0,7.6-0.4,13.9,6.9C513.7,257.5,525.9,274.2,525.9,274.2"/>
		<g opacity="0.25">
			<polygon fill="#F0F0F2" points="405.3,231.1 425.5,232.4 448.4,233.9 460.8,240.6 452.1,256.3 447.1,261.9 428.8,262 414,259 
				408.7,252.8 406.3,240.5 			"/>
		</g>
		<polygon opacity="0.24" fill="#F0F0F2" points="523.9,238.9 504.3,237.6 482.1,236.2 469.2,241.2 475.5,257.8 479.6,264.1 
			497.2,266.6 511.9,265.5 517.8,260 521.7,248.1 		"/>
		<path d="M499.2,235.5c-22.3-1.5-26.9,2.9-32.8,2.8c-0.5,0-0.9,0-1.4,0c-0.4,0-0.9-0.1-1.4-0.2c-5.8-0.7-9.9-5.6-32.1-7.1
			c-22.3-1.5-29.6-0.9-29.6-0.9l-0.3,4.1c0,0,2.5,0.2,3.7,2.3c1.2,2.1-1.5,15.4,5.3,21.7c6.7,6.3,31,7,37.2,5.5
			c6.2-1.5,9.7-14.7,12.5-17.2c0.1-0.1,0.2-0.1,0.2-0.2c0.8-0.2,2.4-0.6,4-0.7c1.6,0.2,3.1,0.8,3.9,1.2c0.1,0.1,0.1,0.1,0.2,0.2
			c2.4,2.8,4.2,16.4,10.2,18.7c6,2.3,30.1,4.8,37.6-0.6c7.5-5.4,6.7-18.9,8.1-20.8c1.4-2,3.9-1.8,3.9-1.8l0.3-4.1
			C528.7,238.5,521.5,237,499.2,235.5 M457.6,243c-0.3,2.2-5,13.9-9.2,16.9c-4.2,3.1-24.4,0.3-32.2-2.1c-7.7-2.4-6.9-8.5-7.5-15.1
			c-0.6-6.6,0-8.6,1.5-9.1c1.5-0.5,32.8,0.7,40,3.1C457.4,239,457.9,240.8,457.6,243 M520.2,250c-1.5,6.5-1.4,12.6-9.4,14
			c-8,1.4-28.5,1.5-32.2-2.1c-3.7-3.6-6.9-15.8-6.9-18c0-2.2,0.7-3.9,8.1-5.3c7.4-1.4,38.6,1.5,40.1,2.2
			C521.3,241.5,521.6,243.5,520.2,250"/>
		<path fill="#F0F0F2" d="M477.1,252.5c0,0-4.1-7.6-2.5-9.9c1.5-2.3,6.9-2.8,6.9-2.8s-5.8,1.3-6.1,3.8
			C475,246.1,477.1,252.5,477.1,252.5z"/>
		<path fill="#F0F0F2" d="M411.3,247.7c0,0,0.3,5.2,2.7,6.6c2.4,1.4,6.2,1.4,6.2,1.4s-4.8-0.8-6.5-2.6S411.3,247.7,411.3,247.7z"/>
	</g>
</g>
<linearGradient id="SVGID_6_" gradientUnits="userSpaceOnUse" x1="663.5579" y1="364.5589" x2="663.5776" y2="248.2143" gradientTransform="matrix(0.9868 -0.1618 0.1618 0.9868 -76.2688 -1.7409)">
	<stop  offset="0.1665" style="stop-color:#E2A1A1"/>
	<stop  offset="0.3786" style="stop-color:#E09F9F"/>
	<stop  offset="0.4971" style="stop-color:#D89A9A"/>
	<stop  offset="0.5925" style="stop-color:#CA9090"/>
	<stop  offset="0.6755" style="stop-color:#B68282"/>
	<stop  offset="0.7506" style="stop-color:#9D7070"/>
	<stop  offset="0.82" style="stop-color:#7D5959"/>
	<stop  offset="0.8849" style="stop-color:#583F3F"/>
	<stop  offset="0.9447" style="stop-color:#2E2121"/>
	<stop  offset="1" style="stop-color:#000000"/>
</linearGradient>
<polygon opacity="0.5" fill="url(#SVGID_6_)" points="610.3,255.1 555.9,188.1 649.1,130.9 700.2,197.3 "/>
<g>
	<path fill="#BCBABF" d="M624.1,154.6c-3,2.4-7.3,1.9-9.7-1.1l-2.4-3c-2.4-3-1.9-7.3,1.1-9.7l22.5-17.8c3-2.4,7.3-1.9,9.7,1.1l2.4,3
		c2.4,3,1.9,7.3-1.1,9.7L624.1,154.6z"/>
	<path fill="#E6E6E5" d="M636.1,129.2c2.7-2.1,5.5-4.2,8.2-6.2c-2.5-2-6.1-2.2-8.7-0.1l-22.5,17.8c-2.7,2.1-3.4,5.9-1.7,8.8
		C619.5,142.5,627.7,135.8,636.1,129.2z"/>
	<circle fill="#BCBABF" cx="594.8" cy="164.5" r="45.7"/>
	<path fill="#E6E6E5" d="M563.2,181.9c11.6-12.4,23.7-24.4,36.2-35.8c6.5-6,13.1-11.8,19.6-17.9c0.5-0.5,1-1,1.5-1.5
		c-7.3-5-16.1-7.9-25.6-7.9c-25.2,0-45.7,20.4-45.7,45.7c0,9.1,2.7,17.6,7.3,24.7C558.7,186.8,560.9,184.4,563.2,181.9z"/>
	<circle fill="#622E12" cx="594.8" cy="164.5" r="39.4"/>
</g>
</svg>
