<?xml version="1.0" encoding="utf-8"?>
<!-- Generator: Adobe Illustrator 18.0.0, SVG Export Plug-In . SVG Version: 6.00 Build 0)  -->
<!DOCTYPE svg PUBLIC "-//W3C//DTD SVG 1.1//EN" "http://www.w3.org/Graphics/SVG/1.1/DTD/svg11.dtd">
<svg version="1.1" id="Capa_1" xmlns="http://www.w3.org/2000/svg" xmlns:xlink="http://www.w3.org/1999/xlink" x="0px" y="0px"
	 width="293.6px" height="1112.2px" viewBox="0 0 293.6 1112.2" enable-background="new 0 0 293.6 1112.2" xml:space="preserve">
<g id="foots">
	<path fill="#C6C7C8" d="M60.9,941.4c0,0-45.7,13.3-44.1,34.8c0.7,8.7,9,17.7,10.9,31.5c2.6,18.7-7.2,63.7,12.6,78.1
		c15.1,10.9,39.9,14.3,45.7-5.9c0,0-6.3-52.5-2.1-103.2L60.9,941.4z"/>
	<path fill="#27435C" d="M64.9,938.2c0,0-39,6.1-37.3,27.4c0.7,8.6,8.1,19.6,10,33.2c2.6,18.5-6.3,56.8,10.8,73.9
		c2.5,2.5,4.7,4.4,7.7,6c10.8,6,21.7,6.6,33.8-3.5c0,0,3.2-4.2,1.5-9.5c-5.8-17.8-6.6-54.8-3.5-92.5L64.9,938.2z"/>
	<path fill="#C6C7C8" d="M108.7,1041.6c0,0-2.6,7.6-5.4,29.2c0,0-22,37.6,11.2,40.9c44.8,4.6,39.7-32.1,39.7-32.1
		s-5.5-42.6-9.4-45.9C144.8,1033.8,125.7,1066.7,108.7,1041.6z"/>
	<path fill="#D6B1A5" d="M76.6,933.6c0,0-28.8,3.9-28,35.5c0.8,31.6,23.8,47.6,33.3,20.4l7-26.6L76.6,933.6z"/>
	<path fill="#EAC8BB" d="M107.1,1028.7l-0.4,39c0,0,9.8,16.3,13.8,16.1c5.4-0.2,23.9-17.8,23.9-17.8s-7.6-37.8-17.6-47.8
		L107.1,1028.7z"/>
	<path fill="#27435C" d="M105.2,1046c0,0-2.7,7.7-5.5,29.5c0,0-20.1,27.4,13.4,31.3c33.6,3.9,38-22.4,38-22.4s-5.6-43.1-9.5-46.4
		C141.7,1038,122.4,1071.3,105.2,1046z"/>
	<path fill="#1B3344" d="M115.9,1050.5c0,0-1.8-8.2,2.5-9.3c4.3-1.1,15.9-6.6,16.3,8c0,0-0.7,37.9-17.4,37.8
		C100.5,1086.9,117.5,1052.2,115.9,1050.5z"/>
	<path fill="#1B3344" d="M61.5,999.2c0,0,0.4-14.1,9.1-14.9c8.7-0.8,12,2.9,12,2.9l-0.4,15.8c0,0,7.5,46.3-6.4,46.9
		C52.3,1050.8,61.5,999.2,61.5,999.2z"/>
	<path fill="#ECEDED" d="M59.9,1031.5c0,0,19.5-4.2,27,1c0,0,2.3,1.3-0.1,4.9c0,0-9.5-4.4-26.8-0.6
		C58.3,1037,55.7,1033.4,59.9,1031.5z"/>
	<path fill="#ECEDED" d="M59.5,1013.4c0,0,19.5-4.2,27,1c0,0,2.4,1.3-0.1,4.9c0,0-9.5-4.4-26.8-0.7
		C57.9,1019,55.3,1015.4,59.5,1013.4z"/>
	<path fill="#ECEDED" d="M110.4,1070.7c0,0,19.1-2.1,27,0.8c0,0,4.2-0.4,1.2-4.6c-2.9-4.1-28.2-0.8-28.2-0.8
		S106.2,1067.8,110.4,1070.7z"/>
	<path fill="#ECEDED" d="M107.3,1082.3c0,0,19.1-2.1,27,0.8c0,0,4.1-0.4,1.2-4.6c-2.9-4.1-28.2-0.8-28.2-0.8
		S103.1,1079.4,107.3,1082.3z"/>
	<path fill="#ECEDED" d="M111.2,1058.5c0,0,19.1-2.1,27,0.8c0,0,4.1-0.4,1.2-4.6c-2.9-4.2-28.2-0.8-28.2-0.8
		S107.1,1055.6,111.2,1058.5z"/>
</g>
<path id="bag" fill="#7C4D25" d="M262,483.6c0,0,83.2,179-20.5,210.5l-77.2-128.6l16.2-48.1c0,0,42.3,9.6,51,9.1
	c4.6-0.3,15.4-9.1,17.4-29.9C253.7,488.6,262,483.6,262,483.6z"/>
<path id="hair-back" fill="#892920" d="M178.5,26.1c-48.7-50.7-93.2-9.9-93.2-9.9c-10.2,9.3-24.6,37.1-24.6,37.1
	c-27.6,89.7-5.3,137-5.3,137c8.9,3.7,23,11.3,23,11.3l4.3-19.6l2.1,20c38.9,19.6,100.5-4.7,100.5-4.7c7.7-13,10.9-52.1,10.9-52.1
	c2.2,9.2-4.6,61.2-4.6,61.2C228,91.4,178.5,26.1,178.5,26.1z"/>
<g id="body">
	<path id="neck" fill="#F2BD91" d="M100.3,161.2c0,0,14.2,39.6-2.2,59.4c0,0,31.6,22,72,1.1c0,0-22.7-29.4-6.3-55.6L100.3,161.2z"/>
	<path id="arm_1_" fill="#F2BD91" d="M267.4,284.3c0,0,10.1,47.2,14.5,86.7c2.8,24.6,7.1,59.6-28.1,116.1L238.1,470l-6-19
		c0,0,20.8-58.3,19.2-64.9c-4.5-17.9-22.7-85.7-22.7-85.7L267.4,284.3z"/>
	<path id="arm" fill="#F2BD91" d="M11.6,273.6c0,0,13,101.2,8.1,129.7c-6.3,36.2-17.6,31.6-7.9,151.5c0,0-10.1,26.4-11.7,39.4
		c-0.6,4.8,5.9,10.6,9.7,14.2c27.6,26.3,39,10.8,47.5,2.5c0,0,1.4,5.5-2.7-22.3c0,0,14-1.7,4.5-19.9c-9.4-18.2-16.9-11.1-17.5-18.1
		c-7.4-83.4,13.8-118.7,9.2-147.2c-3.5-21.9,18.5-114,18.5-114S31.9,278.6,11.6,273.6z"/>
	<path id="pants" fill="#101F28" d="M58.4,468c0,0-78.1,18.5-5.9,279.5c19.2,69.6-41.1,40.3,53.7,283.7c0,0,9.4,0.9,21.8-8.4
		c4.5-3.4,3.4-6.7,3.4-6.7S112,869.2,112.1,819.7c0-14,0.1-38.5,2.5-55.4c6.1-42.1,15.1-164.5,16.8-169.5c0.6-1.9,4.4,0.2,4.4,0.2
		S170,789.5,175,806.3c0,0-60.4,45.3-77.2,100.7l11.8,38.6c0,0,135.7-85.1,142.7-115.8c14-61.2,1.1-194.7-21.8-250.1
		c-8-19.4,6.7-58.7-3.4-83.9L58.4,468z"/>
	<path id="shirt" fill="#93B2B0" d="M99.1,208c0,0,14.6,24.8,39.3,20.8c9.1-1.4,21.2-8.5,32.1-19.6c0,0,27.1-0.9,36-1.2
		c21.2-0.6,40.2,4.9,49.1,30.7l20.1,48.7c0,0-8.5,8-22.9,15.7c-22.7,12.1-26.2-22.9-26.2-22.9s9.6,12,13.1,36.4
		c3.1,22-12.5,36.3-16.7,52.3c-10.9,41.4,16.2,109,13.4,141.4c-0.3,3.4-0.3,3.4-0.3,3.4s-122.8,2.4-198.4-29.5
		c0,0,39.6-61.7,31.5-110c-1.8-10.9-13-25.5-15.8-45.1c-1.7-12.2,3.9-17.9,4.9-23.9c0.2-1.3,2.3-6.8,2.1-8.3
		c0,0-56.3,15.3-55.5-15.8C4.9,281.2,18.1,207.1,99.1,208z"/>
	<path id="boob" fill="#769390" d="M64.4,353c4.7,6.7,13.8,27.7,73.8,11.1C134.2,365.2,79.4,370.2,64.4,353z"/>
	<path id="boob_1_" fill="#769390" d="M159,364.2c11.1,3.6,53.4,7.9,71.3-13.8C230.2,350.4,193.7,369.7,159,364.2z"/>
	<path fill="#7C4D25" d="M85.7,199.1c0,0,101.9,112.7,181.8,322.4l-15,14.5c0,0-77.5-211.1-185.5-333.5
		C66.9,202.5,82.2,194.4,85.7,199.1z"/>
	<g id="fingers-">
		<g id="finger-4">
			<path fill="#F2BD91" d="M262.1,481.7c2,2.7,2.1,6,0.2,7.5c-1.4,1.1-15.7,10.8-25,14.5c-3.8,1.5-5.5,1.3-6.4-0.2
				c-0.4-0.7-0.5-1.7,1.6-4c6.4-7,20.9-18.9,22.4-20C256.8,478.1,260,479.1,262.1,481.7z"/>
			<path fill="#C92828" d="M237.3,502.5c0,0-1.2-1.2-2.8-3.8c0,0-1,0.9-2,2c-1,1.1-1.1,1.7-0.9,2.3c0.1,0.6,1.1,1,2.7,0.7
				C235.3,503.4,236.2,503,237.3,502.5z"/>
		</g>
		<g id="finger-3">
			<path fill="#F2BD91" d="M252.5,474.8c2,2.7,2.1,6,0.2,7.5c-0.9,0.7-6.8,3.5-13.3,7.5c-5.8,3.6-12.1,7.8-16.2,8.4
				c-1.4,0.2-1.8,0-2.5-0.8c-0.4-0.4-0.7-1.3,0.2-2.5c4.6-6.2,22.8-21,24.4-22.3C247.2,471.2,250.5,472.2,252.5,474.8z"/>
			<path fill="#C92828" d="M226.4,495.3c0,0-1-0.3-2.5-2.9c0,0-1,0.9-2,2c-1,1.1-1.1,1.7-0.9,2.3c0.1,0.6,1.2,1.6,2.6,0.9
				C224.5,497.1,225.1,496.5,226.4,495.3z"/>
		</g>
		<g id="finger-2">
			<path fill="#F2BD91" d="M271.8,494.3c1.2,2.7,0.6,5.7-1.4,6.6c-1.5,0.7-17.5,5.2-26.1,6.7c-2.8,0.5-4.1-0.1-4.3-0.9
				c-0.3-1.4,0.3-2.6,3.1-4.5c7.3-5,21.4-10.6,22.8-11.3C268,490,270.6,491.5,271.8,494.3z"/>
			<path fill="#C92828" d="M246.7,506.1c0,0-1.1-1.3-2.3-4.1c0,0-1.1,0.8-2.2,1.7c-1.1,0.9-1.3,1.5-1.2,2.2c0.1,0.6,1,1.1,2.6,1
				C244.5,506.8,245.5,506.4,246.7,506.1z"/>
		</g>
		<g id="finger-1_1_">
			<path id="finger-1" fill="#F2BD91" d="M277.6,505.8c0.6,2.5-0.3,4.8-2.1,5.3c-1.4,0.3-15.4,3.9-22.8,3c-2.2-0.3-3.2-1.1-3.2-2.5
				c0-0.9,0.7-2,2.5-2.7c6.7-2.7,19.9-6.4,21.3-6.7C275,501.7,276.9,503.4,277.6,505.8z"/>
			<path fill="#C92828" d="M255.7,513.1c0,0-0.7-1.5-1.2-4.6c0,0-1.3,0.5-2.6,1.1c-1.3,0.6-1.6,1.1-1.7,1.8
				c-0.1,0.6,0.6,1.4,2.2,1.6C253.4,513.2,254.5,513.1,255.7,513.1z"/>
		</g>
	</g>
</g>
<path fill="#E5A980" d="M155.5,183.4c-26.5,33-48.8,0.3-48.2,1.1l-1.5-5.1l50.3-0.8l0.9,1.2L155.5,183.4z"/>
<g id="head">
	<path id="oreja_1_" fill="#F2BD91" d="M199.8,107.1c-2.6,8.9-7.6,15.1-11.1,13.7c-3.5-1.3-4.2-9.6-1.6-18.5
		c2.6-8.9,7.6-15.1,11.1-13.7C201.7,89.9,202.4,98.2,199.8,107.1z"/>
	<path id="face_2_" fill="#F2BD91" d="M191.2,75.2c0,21.1-3.6,66.7-18.8,87.1c-4.9,6.5-11.8,12.2-17.5,18
		c-7.7,7.8-14.6,10.7-23.8,10.7c-8.7,0-16-3-24.6-10.7c-6.6-5.8-13.8-11.6-18.7-17.9c-16-20.6-13.1-65.4-13.1-87.1
		c0-37,17.3-67,54.3-67C166,8.2,191.2,38.2,191.2,75.2z"/>
	<g id="lipbs_1_">
		<g>
			<path fill="#FFFFFF" d="M111.4,155.5l0-1.6l4.5,0l12.9,0.1l15.4,0.1l7.4,0.1l-1.9,3.3l-10,6.6l-10.8,0.6c0,0-7.3-1-8.3-1.5
				C119.6,162.8,111.4,155.5,111.4,155.5z"/>
			<path fill="#E58F97" d="M154.7,153c-0.1,0-0.2,0.1-0.3,0.1c-0.7,0.1-1.5,0.2-2.5,0.3c-0.1,0-0.2,0-0.2,0l0,0
				c-1.8,0.1-3.9,0-6.2-0.6c-5.6-1.4-8.1-1.2-10-0.7c-3.4,1-4.2,0.5-7.2-0.1c-2.7-0.5-5.6-0.1-10.6,1c-2.9,0.6-5.6,0.5-7.3,0.3
				c-0.9-0.2-2.7-0.7-3.5-1.4c-1.1-0.9-3.4,0-1.2,0.8c2.1,0.7,0.6,0.6,2.1,1.2c1.9,2.7,7,15.9,24.6,15.9c17.7,0,20.9-13,23.7-15.7
				c0.2,0,0.4,0,0.6-0.1c1.2-0.1,1.5-0.5,1.7-1.1C158.5,152.2,156.4,152.3,154.7,153z M143.5,160.2c-10,5.5-15.6,3.5-20.5,1.1
				c-3.9-1.9-9.5-5.9-11.1-7.2c15.8,5.6,31.5,2.7,39.4,0.4C150.4,155.2,148.3,157.5,143.5,160.2z"/>
		</g>
	</g>
	<path d="M131.1,89.8"/>
	<path opacity="0.6" fill="#632E25" d="M147.3,89c24.6-8.3,24.1-8.2,25.8-8.2c0,0,3.7-1.5,8,0.2c0,0,8.1,2.9,10.6,4.2
		c0,0-9.5-7.4-11.8-8.2c0,0-3.9-3.4-12.2-1.3c-9.2,2.4-22.2,7-22.2,7s-3.9,1.3-3,4.6C142.4,87.3,143.8,90.7,147.3,89z"/>
	<g id="pecas_1_">
		<g>
			<g>
				<path fill="#D69F7B" d="M122.7,133.2c0.5,0,0.5-0.8,0-0.8C122.1,132.4,122.1,133.2,122.7,133.2L122.7,133.2z"/>
			</g>
		</g>
		<g>
			<g>
				<path fill="#D69F7B" d="M131.7,128.4c0.5,0,0.5-0.8,0-0.8S131.2,128.4,131.7,128.4L131.7,128.4z"/>
			</g>
		</g>
		<g>
			<g>
				<path fill="#D69F7B" d="M132.3,134.2c0.5,0,0.5-0.8,0-0.8S131.7,134.2,132.3,134.2L132.3,134.2z"/>
			</g>
		</g>
		<g>
			<g>
				<path fill="#D69F7B" d="M139.6,131c0.5,0,0.5-0.8,0-0.8S139.1,131,139.6,131L139.6,131z"/>
			</g>
		</g>
		<g>
			<g>
				<path fill="#D69F7B" d="M158,122.6c0.5,0,0.5-0.8,0-0.8S157.4,122.6,158,122.6L158,122.6z"/>
			</g>
		</g>
		<g>
			<g>
				<path fill="#D69F7B" d="M165.2,122.5c0.5,0,0.5-0.8,0-0.8C164.6,121.6,164.6,122.5,165.2,122.5L165.2,122.5z"/>
			</g>
		</g>
		<g>
			<g>
				<path fill="#D69F7B" d="M172.7,120.9c0.5,0,0.5-0.8,0-0.8S172.2,120.9,172.7,120.9L172.7,120.9z"/>
			</g>
		</g>
		<g>
			<g>
				<path fill="#D69F7B" d="M158.1,128.3c0.5,0,0.5-0.8,0-0.8S157.6,128.3,158.1,128.3L158.1,128.3z"/>
			</g>
		</g>
		<g>
			<g>
				<path fill="#D69F7B" d="M172.7,129.8c0.1,0,0.1,0,0.2,0c0.5,0,0.5-0.8,0-0.8c-0.1,0-0.1,0-0.2,0
					C172.1,129,172.1,129.8,172.7,129.8L172.7,129.8z"/>
			</g>
		</g>
		<g>
			<g>
				<path fill="#D69F7B" d="M161.3,132.7c0.5,0,0.5-0.8,0-0.8S160.8,132.7,161.3,132.7L161.3,132.7z"/>
			</g>
		</g>
		<g>
			<g>
				<path fill="#D69F7B" d="M167.5,128.6c0.5,0,0.5-0.8,0-0.8S166.9,128.6,167.5,128.6L167.5,128.6z"/>
			</g>
		</g>
		<g>
			<g>
				<path fill="#D69F7B" d="M99.8,130.9c0.5,0,0.5-0.8,0-0.8S99.3,130.9,99.8,130.9L99.8,130.9z"/>
			</g>
		</g>
		<g>
			<g>
				<path fill="#D69F7B" d="M94.7,128.1c0.5,0,0.5-0.8,0-0.8C94.2,127.2,94.2,128.1,94.7,128.1L94.7,128.1z"/>
			</g>
		</g>
		<g>
			<g>
				<path fill="#D69F7B" d="M97.9,124.7c0.5,0,0.5-0.8,0-0.8C97.3,123.9,97.3,124.7,97.9,124.7L97.9,124.7z"/>
			</g>
		</g>
		<g>
			<g>
				<path fill="#D69F7B" d="M111,125.1c0.5,0,0.5-0.8,0-0.8C110.5,124.2,110.5,125.1,111,125.1L111,125.1z"/>
			</g>
		</g>
		<g>
			<g>
				<path fill="#D69F7B" d="M107.6,127.4c0.5,0,0.5-0.8,0-0.8S107,127.4,107.6,127.4L107.6,127.4z"/>
			</g>
		</g>
		<g>
			<g>
				<path fill="#D69F7B" d="M124.9,129.3c0.5,0,0.5-0.8,0-0.8S124.4,129.3,124.9,129.3L124.9,129.3z"/>
			</g>
		</g>
		<g>
			<g>
				<path fill="#D69F7B" d="M177,117.7c0.5,0,0.5-0.8,0-0.8S176.4,117.7,177,117.7L177,117.7z"/>
			</g>
		</g>
		<g>
			<g>
				<path fill="#D69F7B" d="M178.4,128.6c0.5,0,0.5-0.8,0-0.8S177.9,128.6,178.4,128.6L178.4,128.6z"/>
			</g>
		</g>
		<g>
			<g>
				<path fill="#D69F7B" d="M103,122.7c0.5,0,0.5-0.8,0-0.8S102.4,122.7,103,122.7L103,122.7z"/>
			</g>
		</g>
		<g>
			<g>
				<path fill="#D69F7B" d="M101.2,127c0.5,0,0.5-0.8,0-0.8S100.7,127,101.2,127L101.2,127z"/>
			</g>
		</g>
		<g>
			<g>
				<path fill="#D69F7B" d="M92.1,123c0.5,0,0.5-0.8,0-0.8S91.5,123,92.1,123L92.1,123z"/>
			</g>
		</g>
	</g>
	<path fill="#FFFFFF" d="M148.2,103c0,0,2.3,0.8,4.1,1.6c1.8,0.8,20.2,2.6,27.4-7.7c0,0-4.4-7.2-14.2-5.3
		c-9.8,1.9-17.9,10.1-17.9,10.1"/>
	<path opacity="0.6" fill="#632E25" d="M117.8,89c-24.6-8.3-24.1-8.2-25.8-8.2c0,0-3.7-1.5-8,0.2c0,0-8.1,2.9-10.6,4.2
		c0,0,9.5-7.4,11.8-8.2c0,0,3.9-3.4,12.2-1.3c9.2,2.4,22.2,7,22.2,7s3.9,1.3,3,4.6C122.6,87.3,121.3,90.7,117.8,89z"/>
	<path fill="none" stroke="#271007" stroke-width="0.2171" stroke-miterlimit="10" d="M91.6,89.9"/>
	<path id="nose_3_" fill="#E5A980" d="M143.8,129.4c0,0,5.6,6.5-1.8,8.3c0,0-4.6,1.2-5.5,3c0,0-4.3,4.5-8.8-0.5c0,0-2.1-2.7-7-2.6
		c0,0-5.6-2.7-1.1-8.2c0,0-2.4,6.2,1.9,6.6c0,0,6.3,1.2,7,3.3c0,0,3.7,3.2,7.4,0.3c0,0,1.7-2.2,6-3
		C141.9,136.5,146.7,136.3,143.8,129.4z"/>
	<path id="nose_2_" opacity="0.4" fill="#E5A980" d="M139.4,104.2c0,0-4.3,8.8,1.8,16.4C141.2,120.5,137.3,111,139.4,104.2z"/>
	<path id="zarcillo_1_" fill="#D3870D" d="M192.9,116.7c0,0-5.1,17.3,3.7,15.8c6.8-1.2,8.6-7.2,3-18.7c0,0,3.8,16-2.6,16.2
		C193,130.2,190.6,119.9,192.9,116.7z"/>
	<path fill="#FFFFFF" d="M118.4,103c0,0-2.3,0.8-4.1,1.6c-1.8,0.8-20.2,2.6-27.4-7.7c0,0,4.4-7.2,14.2-5.3
		c9.8,1.9,17.9,10.1,17.9,10.1"/>
	<path fill="#33140A" d="M82.7,90.6c0,0,3.9,3.9,8.9,2.4c2.1-0.6-1.7,2.3-2.4,3.8c-0.4,0.9,2.2,4.9-1.3,1.3
		c-0.5-0.5-2.3-1.2-2.8-1.6C84.1,95.8,82.7,90.6,82.7,90.6z"/>
	<path fill="#33140A" d="M90.8,92.9c0,0-4.7,0.3-4.9-1.5s-0.6,2.2,1.7,2.7C89.8,94.5,90.8,92.9,90.8,92.9z"/>
	<path fill="none" stroke="#271007" stroke-width="0.2171" stroke-miterlimit="10" d="M89.2,99.3c0,0-2.7,0-3.1,1.7"/>
	<path fill="none" stroke="#271007" stroke-width="0.3059" stroke-miterlimit="10" d="M91.7,93.9c0,0-3.3-1.9-3.3-3.7"/>
	<path fill="none" stroke="#271007" stroke-width="0.3059" stroke-miterlimit="10" d="M90.3,94.8c0,0-3.6-2.6-3.1-4.7"/>
	<path fill="none" stroke="#271007" stroke-width="0.2171" stroke-miterlimit="10" d="M88.6,98.6c-0.1,0.4-2.4,0.6-3.1,1.7"/>
	<path fill="none" stroke="#271007" stroke-width="0.2171" stroke-miterlimit="10" d="M89.4,99.8c0,0-2,0.4-2.2,1.4"/>
	<path fill="none" stroke="#271007" stroke-width="0.2171" stroke-miterlimit="10" d="M88.6,98.3c0,0-2.9,0.4-3.2,1"/>
	<circle fill="#5E2916" cx="164.2" cy="99.4" r="6.4"/>
	<path fill="#33140A" d="M150.2,99.4c6.8-4.3,20.9-9.3,29.5-3.4c0,0-9-16.4-31.8,5l0,0c-0.7,0.5-0.5,1.3-0.4,1.8
		c0.2,1.1,3,1.3,3,1.3l-2.5-2l0.8-1.7C149.2,100.1,149.6,99.8,150.2,99.4z"/>
	<path opacity="0.2" fill="#FFFFFF" d="M195.1,96.4c0,0,9,7.8-1.4,15.8"/>
	<path fill="none" stroke="#271007" stroke-width="0.2171" stroke-miterlimit="10" d="M174.1,89.9"/>
	<path fill="#33140A" d="M147.5,102.8c0,0,19.5,8.5,32.2-5.8C179.7,96.9,169.8,114.2,147.5,102.8z"/>
	<path fill="#33140A" d="M183.9,90.6c0,0-3.9,3.9-8.9,2.4c-2.1-0.6,1.7,2.3,2.4,3.8c0.4,0.9-2.2,4.9,1.3,1.3
		c0.5-0.5,2.3-1.2,2.8-1.6C182.5,95.8,183.9,90.6,183.9,90.6z"/>
	<path fill="#33140A" d="M175.8,92.9c0,0,4.7,0.3,4.9-1.5c0.2-1.8,0.6,2.2-1.7,2.7C176.8,94.5,175.8,92.9,175.8,92.9z"/>
	<path fill="none" stroke="#271007" stroke-width="0.2171" stroke-miterlimit="10" d="M177.4,99.3c0,0,2.7,0,3.1,1.7"/>
	<path fill="none" stroke="#271007" stroke-width="0.3059" stroke-miterlimit="10" d="M174.9,93.9c0,0,3.3-1.9,3.3-3.7"/>
	<path fill="none" stroke="#271007" stroke-width="0.3059" stroke-miterlimit="10" d="M176.2,94.8c0,0,3.6-2.6,3.1-4.7"/>
	<path fill="none" stroke="#271007" stroke-width="0.2171" stroke-miterlimit="10" d="M178,98.6c0.1,0.4,2.4,0.6,3.1,1.7"/>
	<path fill="none" stroke="#271007" stroke-width="0.2171" stroke-miterlimit="10" d="M177.2,99.8c0,0,2,0.4,2.2,1.4"/>
	<path fill="none" stroke="#271007" stroke-width="0.2171" stroke-miterlimit="10" d="M178,98.3c0,0,2.9,0.4,3.2,1"/>
	<path fill="none" stroke="#271007" stroke-width="0.2171" stroke-miterlimit="10" d="M177.8,92.6"/>
	<circle fill="#33140A" cx="164.2" cy="99.4" r="2.7"/>
	<circle fill="#5E2916" cx="102.9" cy="99.4" r="6.4"/>
	<circle fill="#33140A" cx="102.9" cy="99.4" r="2.7"/>
	<path fill="#33140A" d="M119.1,102.8c0,0-19.5,8.5-32.2-5.8C86.9,96.9,96.8,114.2,119.1,102.8z"/>
	<path fill="#33140A" d="M116.4,99.4c-6.8-4.3-20.9-9.3-29.5-3.4c0,0,9-16.4,31.8,5l0,0c0.7,0.5,0.5,1.3,0.4,1.8
		c-0.2,1.1-3,1.3-3,1.3l2.5-2l-0.8-1.7C117.4,100.1,117,99.8,116.4,99.4z"/>
	<path fill="#892920" d="M185.4,34.8c-10.8-21.9-29.3-39.3-55.2-33.5c-3.2,0.7-5-0.1-8.3-0.5c-6.3-0.9-12.7-0.7-18.8,0.8
		C89.6,4.9,77.2,15.3,69.7,26.9c-9.1,14.3-10.9,30.8-12.7,47.2C55.7,86.6,56,99.4,55.8,112c-0.2,28.1,0.5,97.4,0.6,103.9
		c0,2.4,12.1,18.1,15.2,22.6c0.6-8,1.2-16,1.8-23.9c2.9,10.1,5.9,20.2,8.8,30.3c1.1,3.8,12.7,14.1,16.9,17.6
		c-1.2-7.6-2.5-15.3-3.7-22.9c3,12.3,10.2,24.1,18.9,33.2c-6.1-26.8-12.1-53.7-18.2-80.5c-3.1-13.6,0.3-26.9-0.4-40.6
		c-0.7-14.5-6.8-27.7-9.6-41.9c-1.4-6.9-2.3-14-3.1-21c-0.3-3.2-3-16.2,0.1-17.3c21.8-7.7,42.1-19.9,61.6-31.9
		c4.5-2.8,29.4,19.2,34,23.1c4.1,3.4,0.8,11.9,7.8,13.7c-2.2-2.8-3.2-6.5-3.4-10c5.8,4.8,5.7,12.8,6.3,19.9
		c0.2,2.1,0.3,12.3,2.4,5.2C196.9,72.8,193.8,51.7,185.4,34.8C170.6,4.6,200.3,65,185.4,34.8z"/>
</g>
</svg>
