<?xml version="1.0" encoding="utf-8"?>
<svg version="1.1" id="tablet" viewBox="-121.2 748.3 342.4 250" enable-background="new -121.2 748.3 342.4 250">
	<linearGradient id="SVGID_1_" gradientUnits="userSpaceOnUse" x1="87.6335" y1="408.4358" x2="48.1999" y2="632.0751" gradientTransform="matrix(0.9524 0 0 -0.9524 -2.381 1397.1571)">
		<stop  offset="0" style="stop-color:#93B7BE"/>
		
		<stop  offset="1" style="stop-color:#000000"/>
	</linearGradient>
	<path opacity="0.5" fill="url(#SVGID_1_)" enable-background="new    " d="M100.1,976.1L-96.6,819.9l256.5-15.8l61.3,179.4
		L100.1,976.1z"/>

		
	<path fill="#F1F1F1" d="M155,995.7c0,1.5-1.3,2.6-2.8,2.6H-95.3c-1.5,0-2.8-1.1-2.8-2.6V835.2c0-1.5,1.3-2.6,2.8-2.6h247.7
				c1.5,0,2.8,1.1,2.8,2.6v160.5H155z"/>
		<g id="teclado">
			<path fill="#424242" d="M130.1,856.4h8c0.8,0,1.6,0.8,1.6,1.6v5.9c0,0.8-0.8,1.6-1.6,1.6h-8c-0.8,0-1.6-0.8-1.6-1.6v-5.9
				C128.4,857.2,129.2,856.4,130.1,856.4 M130.4,867.5h7.2c1.1,0,2,0.8,2,2v8c0,1.1-0.8,2-2,2h-7.2c-1.1,0-2-0.8-2-2v-8
				C128.4,868.3,129.4,867.5,130.4,867.5 M130.4,881.5h7.2c1.1,0,2,0.8,2,2v8c0,1.1-0.8,2-2,2h-7.2c-1.1,0-2-0.8-2-2v-8
				C128.4,882.5,129.4,881.5,130.4,881.5 M130.4,895.6h7.2c1.1,0,2,0.8,2,2v8c0,1.1-0.8,2-2,2h-7.2c-1.1,0-2-0.8-2-2v-8
				C128.4,896.4,129.4,895.6,130.4,895.6 M130.4,909.4h7.2c1.1,0,2,0.8,2,2v8c0,1.1-0.8,2-2,2h-7.2c-1.1,0-2-0.8-2-2v-8
				C128.4,910.4,129.4,909.4,130.4,909.4 M130.4,923.4h7.2c1.1,0,2,0.8,2,2v8c0,1.1-0.8,2-2,2h-7.2c-1.1,0-2-0.8-2-2v-8
				C128.4,924.4,129.4,923.4,130.4,923.4 M116.2,856.4h8c0.8,0,1.6,0.8,1.6,1.6v5.9c0,0.8-0.8,1.6-1.6,1.6h-8
				c-0.8,0-1.6-0.8-1.6-1.6v-5.9C114.6,857.2,115.4,856.4,116.2,856.4 M103.8,867.5h19.7c1.1,0,2.1,1,2.1,2.1v7.7
				c0,1.1-1,2.1-2.1,2.1h-19.7c-1.1,0-2.1-1-2.1-2.1v-7.7C101.7,868.5,102.7,867.5,103.8,867.5 M112.9,881.5h10.6
				c1.1,0,2.1,1,2.1,2.1v7.7c0,1.1-1,2.1-2.1,2.1h-10.6c-1.1,0-2.1-1-2.1-2.1v-7.7C110.8,882.5,111.8,881.5,112.9,881.5
				 M116.7,909.4h7.2c1.1,0,2,0.8,2,2v8c0,1.1-0.8,2-2,2h-7.2c-1.1,0-2-0.8-2-2v-8C114.6,910.4,115.5,909.4,116.7,909.4
				 M116.7,923.4h7.2c1.1,0,2,0.8,2,2v8c0,1.1-0.8,2-2,2h-7.2c-1.1,0-2-0.8-2-2v-8C114.6,924.4,115.5,923.4,116.7,923.4
				 M103.3,856.4h6.7c0.8,0,1.6,0.8,1.6,1.6v5.9c0,0.8-0.8,1.6-1.6,1.6h-6.7c-0.8,0-1.6-0.8-1.6-1.6v-5.9
				C101.7,857.2,102.5,856.4,103.3,856.4 M90.3,856.4H97c0.8,0,1.6,0.8,1.6,1.6v5.9c0,0.8-0.8,1.6-1.6,1.6h-6.7
				c-0.8,0-1.6-0.8-1.6-1.6v-5.9C88.6,857.2,89.5,856.4,90.3,856.4 M77.2,856.4h6.7c0.8,0,1.6,0.8,1.6,1.6v5.9
				c0,0.8-0.8,1.6-1.6,1.6h-6.7c-0.8,0-1.6-0.8-1.6-1.6v-5.9C75.6,857.2,76.4,856.4,77.2,856.4 M64.2,856.4h6.7
				c0.8,0,1.6,0.8,1.6,1.6v5.9c0,0.8-0.8,1.6-1.6,1.6h-6.7c-0.8,0-1.6-0.8-1.6-1.6v-5.9C62.5,857.2,63.2,856.4,64.2,856.4
				 M51.1,856.4h6.7c0.8,0,1.6,0.8,1.6,1.6v5.9c0,0.8-0.8,1.6-1.6,1.6h-6.7c-0.8,0-1.6-0.8-1.6-1.6v-5.9
				C49.5,857.2,50.2,856.4,51.1,856.4 M38.1,856.4h6.7c0.8,0,1.6,0.8,1.6,1.6v5.9c0,0.8-0.8,1.6-1.6,1.6h-6.7
				c-0.8,0-1.6-0.8-1.6-1.6v-5.9C36.5,857.2,37.1,856.4,38.1,856.4 M25,856.4h6.7c0.8,0,1.6,0.8,1.6,1.6v5.9c0,0.8-0.8,1.6-1.6,1.6
				H25c-0.8,0-1.6-0.8-1.6-1.6v-5.9C23.4,857.2,24.1,856.4,25,856.4 M12,856.4h6.7c0.8,0,1.6,0.8,1.6,1.6v5.9
				c0,0.8-0.8,1.6-1.6,1.6H12c-0.8,0-1.6-0.8-1.6-1.6v-5.9C10.4,857.2,11,856.4,12,856.4 M-1.2,856.4h6.7c0.8,0,1.6,0.8,1.6,1.6
				v5.9c0,0.8-0.8,1.6-1.6,1.6h-6.7c-0.8,0-1.6-0.8-1.6-1.6v-5.9C-2.8,857.2-2,856.4-1.2,856.4 M-14.3,856.4h6.7
				c0.8,0,1.6,0.8,1.6,1.6v5.9c0,0.8-0.8,1.6-1.6,1.6h-6.7c-0.8,0-1.6-0.8-1.6-1.6v-5.9C-15.9,857.2-15.1,856.4-14.3,856.4
				 M-27.3,856.4h6.7c0.8,0,1.6,0.8,1.6,1.6v5.9c0,0.8-0.8,1.6-1.6,1.6h-6.7c-0.8,0-1.6-0.8-1.6-1.6v-5.9
				C-28.9,857.2-28.1,856.4-27.3,856.4 M-40.4,856.4h6.7c0.8,0,1.6,0.8,1.6,1.6v5.9c0,0.8-0.8,1.6-1.6,1.6h-6.7
				c-0.8,0-1.6-0.8-1.6-1.6v-5.9C-42,857.2-41.2,856.4-40.4,856.4 M-53.6,856.4h6.7c0.8,0,1.6,0.8,1.6,1.6v5.9
				c0,0.8-0.8,1.6-1.6,1.6h-6.7c-0.8,0-1.6-0.8-1.6-1.6v-5.9C-55,857.2-54.4,856.4-53.6,856.4 M-66.6,856.4h6.7
				c0.8,0,1.6,0.8,1.6,1.6v5.9c0,0.8-0.8,1.6-1.6,1.6h-6.7c-0.8,0-1.6-0.8-1.6-1.6v-5.9C-68.2,857.2-67.4,856.4-66.6,856.4
				 M-81.3,856.4h8c0.8,0,1.6,0.8,1.6,1.6v5.9c0,0.8-0.8,1.6-1.6,1.6h-8c-0.8,0-1.6-0.8-1.6-1.6v-5.9
				C-82.9,857.2-82.1,856.4-81.3,856.4 M89.6,867.5h7c1.1,0,2,0.8,2,2v8c0,1.1-0.8,2-2,2h-7c-1.1,0-2-0.8-2-2v-8
				C87.8,868.3,88.6,867.5,89.6,867.5 M75.6,867.5h7c1.1,0,2,0.8,2,2v8c0,1.1-0.8,2-2,2h-7c-1.1,0-2-0.8-2-2v-8
				C73.6,868.3,74.6,867.5,75.6,867.5 M61.4,867.5h7c1.1,0,2,0.8,2,2v8c0,1.1-0.8,2-2,2h-7c-1.1,0-2-0.8-2-2v-8
				C59.4,868.3,60.3,867.5,61.4,867.5 M33,867.5h7c1.1,0,2,0.8,2,2v8c0,1.1-0.8,2-2,2h-7c-1.1,0-2-0.8-2-2v-8
				C31.1,868.3,31.9,867.5,33,867.5 M18.8,867.5h7c1.1,0,2,0.8,2,2v8c0,1.1-0.8,2-2,2h-7c-1.1,0-2-0.8-2-2v-8
				C16.9,868.3,17.9,867.5,18.8,867.5 M4.7,867.5h7c1.1,0,2,0.8,2,2v8c0,1.1-0.8,2-2,2h-7c-1.1,0-2-0.8-2-2v-8
				C2.7,868.3,3.5,867.5,4.7,867.5 M-9.5,867.5h7c1.1,0,2,0.8,2,2v8c0,1.1-0.8,2-2,2h-7c-1.1,0-2-0.8-2-2v-8
				C-11.5,868.3-10.5,867.5-9.5,867.5 M-23.7,867.5h7c1.1,0,2,0.8,2,2v8c0,1.1-0.8,2-2,2h-7c-1.1,0-2-0.8-2-2v-8
				C-25.5,868.3-24.7,867.5-23.7,867.5 M-52.1,867.5h7c1.1,0,2,0.8,2,2v8c0,1.1-0.8,2-2,2h-7c-1.1,0-2-0.8-2-2v-8
				C-53.9,868.3-53.1,867.5-52.1,867.5 M-66.3,867.5h7c1.1,0,2,0.8,2,2v8c0,1.1-0.8,2-2,2h-7c-1.1,0-2-0.8-2-2v-8
				C-68.2,868.3-67.3,867.5-66.3,867.5 M-81,867.5h7.2c1.1,0,2,0.8,2,2v8c0,1.1-0.8,2-2,2H-81c-1.1,0-2-0.8-2-2v-8
				C-82.9,868.3-81.9,867.5-81,867.5 M-80.6,881.5H-66c1.1,0,2.1,1,2.1,2.1v7.7c0,1.1-1,2.1-2.1,2.1h-14.7c-1.1,0-2.1-1-2.1-2.1
				v-7.7C-82.9,882.5-81.9,881.5-80.6,881.5 M-80.6,895.6h17.4c1.1,0,2.1,1,2.1,2.1v7.7c0,1.1-1,2.1-2.1,2.1h-17.4
				c-1.1,0-2.1-1-2.1-2.1v-7.7C-82.9,896.5-81.9,895.6-80.6,895.6 M-80.6,909.4h25.1c1.1,0,2.1,1,2.1,2.1v7.7c0,1.1-1,2.1-2.1,2.1
				h-25.1c-1.1,0-2.1-1-2.1-2.1v-7.7C-82.9,910.4-81.9,909.4-80.6,909.4 M-80.6,923.4h10.4c1.1,0,2.1,1,2.1,2.1v7.7
				c0,1.1-1,2.1-2.1,2.1h-10.4c-1.1,0-2.1-1-2.1-2.1v-7.7C-82.9,924.4-81.9,923.4-80.6,923.4 M-60.1,881.5h7.5c1.1,0,2.1,1,2.1,2.1
				v7.7c0,1.1-1,2.1-2.1,2.1h-7.5c-1.1,0-2.1-1-2.1-2.1v-7.7C-62,882.5-61.1,881.5-60.1,881.5 M-45.6,881.5h7.5
				c1.1,0,2.1,1,2.1,2.1v7.7c0,1.1-1,2.1-2.1,2.1h-7.5c-1.1,0-2.1-1-2.1-2.1v-7.7C-47.7,882.5-46.7,881.5-45.6,881.5 M-31.1,881.5
				h7.5c1.1,0,2.1,1,2.1,2.1v7.7c0,1.1-1,2.1-2.1,2.1h-7.5c-1.1,0-2.1-1-2.1-2.1v-7.7C-33.2,882.5-32.4,881.5-31.1,881.5
				 M-16.7,881.5h7.5c1.1,0,2.1,1,2.1,2.1v7.7c0,1.1-1,2.1-2.1,2.1h-7.5c-1.1,0-2.1-1-2.1-2.1v-7.7
				C-18.7,882.5-17.7,881.5-16.7,881.5 M12.2,881.5h7.5c1.1,0,2.1,1,2.1,2.1v7.7c0,1.1-1,2.1-2.1,2.1h-7.5c-1.1,0-2.1-1-2.1-2.1
				v-7.7C10,882.5,11,881.5,12.2,881.5 M26.7,881.5h7.7c1.1,0,2.1,1,2.1,2.1v7.7c0,1.1-1,2.1-2.1,2.1h-7.7c-1.1,0-2.1-1-2.1-2.1
				v-7.7C24.5,882.5,25.5,881.5,26.7,881.5 M41.2,881.5h7.5c1.1,0,2.1,1,2.1,2.1v7.7c0,1.1-1,2.1-2.1,2.1h-7.5
				c-1.1,0-2.1-1-2.1-2.1v-7.7C39.1,882.5,40,881.5,41.2,881.5 M55.5,881.5H63c1.1,0,2.1,1,2.1,2.1v7.7c0,1.1-1,2.1-2.1,2.1h-7.5
				c-1.1,0-2.1-1-2.1-2.1v-7.7C53.4,882.5,54.4,881.5,55.5,881.5 M70,881.5h7.5c1.1,0,2.1,1,2.1,2.1v7.7c0,1.1-1,2.1-2.1,2.1H70
				c-1.1,0-2.1-1-2.1-2.1v-7.7C67.9,882.5,68.7,881.5,70,881.5 M84.4,881.5h7.5c1.1,0,2.1,1,2.1,2.1v7.7c0,1.1-1,2.1-2.1,2.1h-7.5
				c-1.1,0-2.1-1-2.1-2.1v-7.7C82.4,882.5,83.3,881.5,84.4,881.5 M98.9,881.5h7.5c1.1,0,2.1,1,2.1,2.1v7.7c0,1.1-1,2.1-2.1,2.1
				h-7.5c-1.1,0-2.1-1-2.1-2.1v-7.7C96.8,882.5,97.8,881.5,98.9,881.5 M-56,895.6h7.7c1.1,0,2.1,1,2.1,2.1v7.7c0,1.1-1,2.1-2.1,2.1
				H-56c-1.1,0-2.1-1-2.1-2.1v-7.7C-58.1,896.4-57.2,895.6-56,895.6 M-41.5,895.6h7.5c1.1,0,2.1,1,2.1,2.1v7.7c0,1.1-1,2.1-2.1,2.1
				h-7.5c-1.1,0-2.1-1-2.1-2.1v-7.7C-43.6,896.4-42.6,895.6-41.5,895.6 M-12.6,895.6h7.5c1.1,0,2.1,1,2.1,2.1v7.7
				c0,1.1-1,2.1-2.1,2.1h-7.5c-1.1,0-2.1-1-2.1-2.1v-7.7C-14.8,896.4-13.8,895.6-12.6,895.6 M1.9,895.6h7.5c1.1,0,2.1,1,2.1,2.1
				v7.7c0,1.1-1,2.1-2.1,2.1H1.9c-1.1,0-2.1-1-2.1-2.1v-7.7C-0.4,896.4,0.6,895.6,1.9,895.6 M16.2,895.6h7.5c1.1,0,2.1,1,2.1,2.1
				v7.7c0,1.1-1,2.1-2.1,2.1h-7.5c-1.1,0-2.1-1-2.1-2.1v-7.7C14.3,896.4,15.1,895.6,16.2,895.6 M30.7,895.6h7.5
				c1.1,0,2.1,1,2.1,2.1v7.7c0,1.1-1,2.1-2.1,2.1h-7.5c-1.1,0-2.1-1-2.1-2.1v-7.7C28.6,896.4,29.6,895.6,30.7,895.6 M45.1,895.6
				h7.5c1.1,0,2.1,1,2.1,2.1v7.7c0,1.1-1,2.1-2.1,2.1h-7.5c-1.1,0-2.1-1-2.1-2.1v-7.7C43,896.4,44,895.6,45.1,895.6 M59.6,895.6
				h7.5c1.1,0,2.1,1,2.1,2.1v7.7c0,1.1-1,2.1-2.1,2.1h-7.5c-1.1,0-2.1-1-2.1-2.1v-7.7C57.5,896.4,58.3,895.6,59.6,895.6
				 M88.5,895.6H96c1.1,0,2.1,1,2.1,2.1v7.7c0,1.1-1,2.1-2.1,2.1h-7.5c-1.1,0-2.1-1-2.1-2.1v-7.7C86.4,896.4,87.3,895.6,88.5,895.6
				 M-48.3,909.4h7.5c1.1,0,2.1,1,2.1,2.1v7.7c0,1.1-1,2.1-2.1,2.1h-7.5c-1.1,0-2.1-1-2.1-2.1v-7.7
				C-50.5,910.4-49.7,909.4-48.3,909.4 M-34,909.4h7.5c1.1,0,2.1,1,2.1,2.1v7.7c0,1.1-1,2.1-2.1,2.1H-34c-1.1,0-2.1-1-2.1-2.1v-7.7
				C-36.1,910.4-35.1,909.4-34,909.4 M-19.6,909.4h7.5c1.1,0,2.1,1,2.1,2.1v7.7c0,1.1-1,2.1-2.1,2.1h-7.5c-1.1,0-2.1-1-2.1-2.1
				v-7.7C-21.6,910.4-20.6,909.4-19.6,909.4 M-5.1,909.4h7.5c1.1,0,2.1,1,2.1,2.1v7.7c0,1.1-1,2.1-2.1,2.1h-7.5
				c-1.1,0-2.1-1-2.1-2.1v-7.7C-7.3,910.4-6.3,909.4-5.1,909.4 M9.4,909.4h7.5c1.1,0,2.1,1,2.1,2.1v7.7c0,1.1-1,2.1-2.1,2.1H9.4
				c-1.1,0-2.1-1-2.1-2.1v-7.7C7.3,910.4,8.2,909.4,9.4,909.4 M23.7,909.4h7.5c1.1,0,2.1,1,2.1,2.1v7.7c0,1.1-1,2.1-2.1,2.1h-7.5
				c-1.1,0-2.1-1-2.1-2.1v-7.7C21.8,910.4,22.8,909.4,23.7,909.4 M38.2,909.4h7.5c1.1,0,2.1,1,2.1,2.1v7.7c0,1.1-1,2.1-2.1,2.1
				h-7.5c-1.1,0-2.1-1-2.1-2.1v-7.7C36.1,910.4,37.1,909.4,38.2,909.4 M52.8,909.4h7.5c1.1,0,2.1,1,2.1,2.1v7.7
				c0,1.1-1,2.1-2.1,2.1h-7.5c-1.1,0-2.1-1-2.1-2.1v-7.7C50.5,910.4,51.5,909.4,52.8,909.4 M67.1,909.4h7.5c1.1,0,2.1,1,2.1,2.1
				v7.7c0,1.1-1,2.1-2.1,2.1h-7.5c-1.1,0-2.1-1-2.1-2.1v-7.7C65.2,910.4,66,909.4,67.1,909.4 M81.6,909.4h7.5c1.1,0,2.1,1,2.1,2.1
				v7.7c0,1.1-1,2.1-2.1,2.1h-7.5c-1.1,0-2.1-1-2.1-2.1v-7.7C79.5,910.4,80.5,909.4,81.6,909.4 M96.1,909.4h13.5
				c1.1,0,2.1,1,2.1,2.1v7.7c0,1.1-1,2.1-2.1,2.1H96.1c-1.1,0-2.1-1-2.1-2.1v-7.7C93.9,910.4,94.8,909.4,96.1,909.4 M-63.2,923.4
				h7.5c1.1,0,2.1,1,2.1,2.1v7.7c0,1.1-1,2.1-2.1,2.1h-7.5c-1.1,0-2.1-1-2.1-2.1v-7.7C-65.3,924.4-64.3,923.4-63.2,923.4
				 M-48.7,923.4h7.5c1.1,0,2.1,1,2.1,2.1v7.7c0,1.1-1,2.1-2.1,2.1h-7.5c-1.1,0-2.1-1-2.1-2.1v-7.7
				C-50.6,924.4-49.8,923.4-48.7,923.4 M-34.2,923.4h7.5c1.1,0,2.1,1,2.1,2.1v7.7c0,1.1-1,2.1-2.1,2.1h-7.7c-1.1,0-2.1-1-2.1-2.1
				v-7.7C-36.3,924.4-35.3,923.4-34.2,923.4"/>
				<g id="teclado-color">
					<path id="tecl-8" fill="#424242" d="M102.3,895.6h21.4c1.1,0,2.1,1,2.1,2.1v7.7c0,1.1-1,2.1-2.1,2.1h-21.4
						c-1.1,0-2.1-1-2.1-2.1v-7.7C100.1,896.5,101,895.6,102.3,895.6"/>
					<path id="tecl-7" fill="#424242" d="M47.2,867.5h7c1.1,0,2,0.8,2,2v8c0,1.1-0.8,2-2,2h-7c-1.1,0-2-0.8-2-2v-8
						C45.3,868.3,46.2,867.5,47.2,867.5"/>
					<path id="tecl-6" fill="#424242" d="M-2.2,881.5h7.5c1.1,0,2.1,1,2.1,2.1v7.7c0,1.1-1,2.1-2.1,2.1h-7.5c-1.1,0-2.1-1-2.1-2.1
						v-7.7C-4.3,882.5-3.3,881.5-2.2,881.5"/>
					<path id="tecla-5" fill="#424242" d="M-19.8,923.4h65.2c1.1,0,2.1,1,2.1,2.1v7.7c0,1.1-1,2.1-2.1,2.1h-65.2
						c-1.1,0-2.1-1-2.1-2.1v-7.7C-21.9,924.4-21,923.4-19.8,923.4"/>
					<path id="tecl-3" fill="#424242" d="M-37.9,867.5h7c1.1,0,2,0.8,2,2v8c0,1.1-0.8,2-2,2h-7c-1.1,0-2-0.8-2-2v-8
						C-39.9,868.3-38.9,867.5-37.9,867.5"/>
					<path id="tecl-2" fill="#424242" d="M-27.1,895.6h7.5c1.1,0,2.1,1,2.1,2.1v7.7c0,1.1-1,2.1-2.1,2.1h-7.5c-1.1,0-2.1-1-2.1-2.1
						v-7.7C-29.1,896.4-28.3,895.6-27.1,895.6"/>
					<path id="tecl-1" fill="#424242" d="M74,895.6h7.5c1.1,0,2.1,1,2.1,2.1v7.7c0,1.1-1,2.1-2.1,2.1H74c-1.1,0-2.1-1-2.1-2.1v-7.7
						C72,896.4,73,895.6,74,895.6"/>
				</g>
			<path fill="#424242" d="M52.4,923.4h7.5c1.1,0,2.1,1,2.1,2.1v7.7c0,1.1-1,2.1-2.1,2.1h-7.5c-1.1,0-2.1-1-2.1-2.1v-7.7
				C50.3,924.4,51.3,923.4,52.4,923.4 M66.9,923.4h7.5c1.1,0,2.1,1,2.1,2.1v7.7c0,1.1-1,2.1-2.1,2.1h-7.5c-1.1,0-2.1-1-2.1-2.1
				v-7.7C64.8,924.4,65.8,923.4,66.9,923.4 M81.5,923.4H95c1.1,0,2.1,1,2.1,2.1v7.7c0,1.1-1,2.1-2.1,2.1H81.5c-1.1,0-2.1-1-2.1-2.1
				v-7.7C79.2,924.4,80.2,923.4,81.5,923.4 M102.7,923.4h7.2c1.1,0,2,0.8,2,2v8c0,1.1-0.8,2-2,2h-7.2c-1.1,0-2-0.8-2-2v-8
				C100.7,924.4,101.5,923.4,102.7,923.4"/>
			<path fill="#D3D3D3" d="M-5.9,945.6h66.4c1.1,0,1.8,0.8,1.8,1.8v31.8c0,1.1-0.8,1.8-1.8,1.8H-5.9c-1.1,0-1.8-0.8-1.8-1.8v-31.8
				C-7.7,946.3-6.9,945.6-5.9,945.6 M-7.4,983.5h33.1c0.2,0,0.3,0.2,0.3,0.3v6.7c0,0.2-0.2,0.3-0.3,0.3H-7.4
				c-0.2,0-0.3-0.2-0.3-0.3v-6.7C-7.7,983.8-7.6,983.5-7.4,983.5 M29,983.5h33.1c0.2,0,0.3,0.2,0.3,0.3v6.7c0,0.2-0.2,0.3-0.3,0.3
				H29c-0.2,0-0.3-0.2-0.3-0.3v-6.7C28.5,983.8,28.6,983.5,29,983.5"/>
		</g>
		<g>
			<path fill="#424242" d="M-114.6,748.3h285.2c6.8,0,9,3.8,6,9l-23.8,73.2h-250l-21.2-69C-123,752.9-122.1,748.3-114.6,748.3"/>
			<path fill="#F1F1F1" d="M162.2,761.7l-17.3,58.7H-88.8l-17.4-58.7H162.2z"/>
			<path fill="#D3D3D3" d="M-78.7,825.4h9.9c0.7,0,1.1,0.5,1.1,1.3v13.7c0,0.8-0.5,1.3-1.1,1.3h-9.9c-0.7,0-1.1-0.5-1.1-1.3v-13.7
				C-79.7,826.1-79.3,825.4-78.7,825.4 M125.2,825.4h9.9c0.7,0,1.1,0.5,1.1,1.3v13.7c0,0.8-0.5,1.3-1.1,1.3h-9.9
				c-0.7,0-1.1-0.5-1.1-1.3v-13.7C124,826.1,124.5,825.4,125.2,825.4"/>
		</g>
		<g>
			<path fill="#FFFFFF" d="M137.6,813.2l13.9-46l-246.7-0.3l14.2,45L137.6,813.2z"/>
			<path fill="#BFBFBF" d="M-95.3,766.9l1.6,6l243.3,0.3l1.8-6L-95.3,766.9z"/>
			<path id="rect-color" fill="#88BAD8" d="M135.3,792.7l3.1-14.2L-75.7,777l2.9,15.7H135.3z"/>
			<path fill="#BFBFBF" d="M129.7,808.6l3.6-11.7h-78l-3.6,11.7H129.7z"/>
		</g>
		<path fill="#2C2E3A" d="M59,767.9L50.2,814H-68.6l-9.1-46.2H59z"/>
		<g>
			<path fill="#A20000" d="M-69.5,779l2.1-1.1v0.3l-1.8,0.8l1.8,0.8v0.3L-69.5,779z"/>
			<path fill="#C90D0D" d="M-66.9,779.9c0-0.2,0.2-0.3,0.3-0.3c0.2,0,0.3,0.2,0.3,0.3s-0.2,0.3-0.3,0.3
				C-66.8,780.3-66.9,780.1-66.9,779.9z M-66.9,779.3l-0.2-2.1h0.5l-0.2,2.1C-66.8,779.3-66.9,779.3-66.9,779.3z M-66,777.3
				c0.2,0,0.5-0.2,0.8-0.2c0.5,0,1,0.2,1.1,0.3c0.3,0.2,0.5,0.5,0.5,1.1c0,0.5-0.2,1-0.3,1.3c-0.3,0.3-0.8,0.5-1.3,0.5h-0.7
				C-66,780.3-66,777.3-66,777.3z M-65.5,779.9h0.3c0.8,0,1.3-0.5,1.3-1.3c0-0.8-0.3-1.1-1.1-1.1c-0.2,0-0.3,0-0.5,0.2V779.9z
				 M-60.4,778.6c0,1.1-0.5,1.5-1.5,1.5c-0.8,0-1.3-0.5-1.3-1.5c0-1,0.5-1.5,1.5-1.5S-60.4,777.8-60.4,778.6z M-62.7,778.6
				c0,0.7,0.3,1.1,1,1.1s1-0.5,1-1.3c0-0.5-0.3-1.1-1-1.1C-62.4,777.5-62.7,778.1-62.7,778.6z M-57.8,780.1c-0.2,0.2-0.5,0.2-0.8,0.2
				c-0.8,0-1.5-0.5-1.5-1.5c0-1,0.7-1.5,1.5-1.5c0.3,0,0.5,0.2,0.8,0.2v0.5c-0.2-0.2-0.3-0.2-0.5-0.2c-0.7,0-1.1,0.5-1.1,1.3
				c0,0.8,0.5,1.1,1.1,1.1C-58.1,780.1-58,779.9-57.8,780.1z M-56.7,777.5h-0.8v-0.3h2.1v0.3h-0.8v2.6h-0.3L-56.7,777.5z M-54.2,780.3
				V779l-1-1.8h0.5l0.5,0.8c0.2,0.2,0.2,0.5,0.3,0.5c0.2-0.2,0.2-0.3,0.3-0.5l0.5-0.8h0.3l-1.1,1.8v1.3H-54.2z M-52.6,777.3
				c0.2,0,0.5-0.2,0.8-0.2s0.7,0.2,0.8,0.2c0.2,0.2,0.3,0.3,0.3,0.5c0,0.3-0.2,0.5-0.2,0.7c-0.2,0.2-0.5,0.3-0.8,0.3h-0.3v1.1h-0.3
				C-52.3,779.9-52.6,777.3-52.6,777.3z M-52.1,778.6h0.3c0.5,0,0.8-0.2,0.8-0.7c0-0.3-0.3-0.5-0.8-0.5h-0.3V778.6L-52.1,778.6z
				 M-48.7,778.8h-1.1v1.1h1.5v0.3h-1.8v-2.9h1.6v0.3h-1.3v1h1.1V778.8L-48.7,778.8z"/>
			<path fill="#FFFFFF" d="M-47,777h0.3v1.3l0.3-0.3c0.2-0.2,0.2-0.2,0.3-0.2c0.3,0,0.8,0.2,0.8,0.8v1.3h-0.3v-1.1
				c0-0.3-0.2-0.7-0.5-0.7c-0.2,0-0.5,0.2-0.5,0.3v1.5h-0.3C-47,780.1-47,777-47,777L-47,777z M-44.1,777.5v0.5h0.5v0.3h-0.5v1.1
				c0,0.3,0.2,0.5,0.3,0.5h0.2v0.3c-0.2,0-0.2,0.2-0.3,0.2s-0.3-0.2-0.5-0.2c-0.2-0.2-0.2-0.3-0.2-0.5v-1.1h-0.3v-0.3h0.3v-0.5
				L-44.1,777.5z M-43.1,778.6v-0.5h0.3v0.3c0.2-0.2,0.3-0.3,0.7-0.3s0.5,0.2,0.5,0.5c0.2-0.2,0.2-0.2,0.2-0.3
				c0.2-0.2,0.3-0.2,0.5-0.2c0.3,0,0.8,0.2,0.8,1v1.3h-0.3v-1.1c0-0.5-0.2-0.7-0.5-0.7c-0.2,0-0.3,0.2-0.5,0.3v1.5h-0.3v-1.3
				c0-0.3-0.2-0.5-0.5-0.5c-0.2,0-0.5,0.2-0.5,0.3v1.5H-43L-43.1,778.6z M-39.4,777h0.3v3.1h-0.3V777z"/>
			<path fill="#A20000" d="M-36.3,779.1l-2.1,1.1v-0.3l1.8-0.8l-1.8-0.8V778L-36.3,779.1z"/>
			<path fill="#FFFFFF" d="M-68.2,784.2l2.1-1.1v0.3l-1.8,0.8l1.8,1v0.3l-2.1-1.1V784.2z M-65.5,782.4h0.3v1.3l0.3-0.3
				c0.2-0.2,0.2-0.2,0.3-0.2c0.3,0,0.8,0.2,0.8,0.8v1.3H-64v-1.1c0-0.3-0.2-0.7-0.5-0.7c-0.2,0-0.5,0.2-0.5,0.3v1.5h-0.3v-2.9
				L-65.5,782.4z M-62.5,782.9v0.5h0.5v0.3h-0.5v1.1c0,0.2,0.2,0.5,0.3,0.5h0.2v0.3c-0.2,0-0.2,0.2-0.3,0.2s-0.3-0.2-0.5-0.2
				c-0.2-0.2-0.2-0.3-0.2-0.7v-1.1h-0.3v-0.3h0.3V783L-62.5,782.9z M-61.6,783.9v-0.5h0.3v0.3c0.2-0.2,0.3-0.3,0.7-0.3
				s0.5,0.2,0.5,0.5c0.2-0.2,0.2-0.2,0.2-0.3c0.2-0.2,0.3-0.2,0.5-0.2c0.3,0,0.8,0.2,0.8,1v1.3h-0.3v-1.1c0-0.5-0.2-0.7-0.5-0.7
				c-0.2,0-0.3,0.2-0.5,0.3v1.5h-0.3v-1.3c0-0.3-0.2-0.5-0.5-0.5c-0.2,0-0.5,0.2-0.5,0.3v1.5h-0.5v-1.8H-61.6z M-57.8,782.4h0.3v3.1
				h-0.3V782.4z"/>
			<path fill="#14DD31" d="M-55.8,782.4h0.3v3.1h-0.3V782.4z M-53.7,785.5v-0.3c-0.2,0.2-0.3,0.3-0.7,0.3c-0.5,0-0.7-0.3-0.7-0.5
				c0-0.5,0.5-0.8,1.3-0.8V784c0-0.2-0.2-0.5-0.5-0.5c-0.2,0-0.5,0.2-0.5,0.2l-0.2-0.2c0.2-0.2,0.5-0.2,0.8-0.2c0.7,0,0.8,0.5,0.8,0.8
				v1.3H-53.7z M-53.7,784.5c-0.5,0-0.8,0.2-0.8,0.5c0,0.2,0.2,0.3,0.3,0.3c0.3,0,0.5-0.2,0.5-0.3V784.5z M-52.8,783.9v-0.5h0.3v0.3
				c0.2-0.2,0.3-0.3,0.8-0.3c0.3,0,0.8,0.2,0.8,0.8v1.3h-0.3v-1.3c0-0.3-0.2-0.7-0.5-0.7c-0.2,0-0.5,0.2-0.5,0.3v1.5h-0.3L-52.8,783.9
				L-52.8,783.9z M-48.3,783.4v1.8c0,0.5-0.2,0.8-0.3,1s-0.5,0.2-0.8,0.2c-0.2,0-0.5-0.2-0.8-0.2l0.2-0.3c0.2,0.2,0.3,0.2,0.7,0.2
				c0.3,0,0.7-0.2,0.7-0.8V785c-0.2,0.2-0.3,0.3-0.7,0.3c-0.5,0-0.8-0.5-0.8-1.1c0-0.8,0.5-1.1,1-1.1c0.3,0,0.5,0.2,0.7,0.3V783
				L-48.3,783.4z M-48.8,784.2c-0.2-0.3-0.3-0.5-0.5-0.5c-0.3,0-0.7,0.3-0.7,0.8s0.2,0.8,0.7,0.8c0.2,0,0.5-0.2,0.5-0.3V784.2z"/>
			<path fill="#FFFFFF" d="M-48,784v-0.2h2.3v0.3L-48,784z M-48,784.8v-0.3h2.3v0.3H-48z M-44.8,782.5l-0.2,1.1h-0.2l-0.2-1.1
				C-45.2,782.5-44.8,782.5-44.8,782.5z M-44.1,782.5l-0.2,1.1h-0.2l-0.2-1.1C-44.6,782.5-44.1,782.5-44.1,782.5z"/>
			<path fill="#EFB90A" d="M-43.5,784.5c0,0.5,0.3,0.8,0.8,0.8c0.3,0,0.5-0.2,0.5-0.2l0.2,0.3c-0.2,0.2-0.3,0.2-0.8,0.2
				c-0.7,0-1.1-0.5-1.1-1.1c0-0.7,0.3-1.1,1.1-1.1c0.7,0,0.8,0.5,0.8,1.1v0.2h-1.5C-43.5,784.7-43.5,784.5-43.5,784.5z M-42.3,784.2
				c0-0.2-0.2-0.7-0.5-0.7c-0.3,0-0.5,0.3-0.5,0.7C-43.3,784.2-42.3,784.2-42.3,784.2z M-41.5,783.9v-0.5h0.3v0.3
				c0.2-0.2,0.3-0.3,0.8-0.3c0.3,0,0.8,0.2,0.8,0.8v1.3H-40v-1.3c0-0.3-0.2-0.7-0.5-0.7c-0.2,0-0.5,0.2-0.5,0.3v1.5h-0.3
				C-41.5,785.3-41.5,783.9-41.5,783.9L-41.5,783.9z"/>
			<path fill="#FFFFFF" d="M-38.7,782.5l-0.2,1.1h-0.2l-0.2-1.1H-38.7z M-38.1,782.5l-0.2,1.1h-0.2l-0.2-1.1H-38.1z M-35.5,784.5
				l-2.1,1.1v-0.3l1.8-0.8l-1.8-0.8v-0.3L-35.5,784.5z M-60.1,789.6l2.1-1.1v0.3l-1.6,0.8l1.8,0.8v0.3l-2.1-1.1H-60.1z M-56.2,788.7
				c0,0.5-0.3,0.8-0.7,0.8s-0.7-0.3-0.7-0.8s0.3-0.8,0.7-0.8S-56.2,788.3-56.2,788.7z M-57.3,788.7c0,0.3,0.2,0.7,0.3,0.7
				c0.2,0,0.3-0.3,0.3-0.7s-0.2-0.7-0.3-0.7C-57.2,788.1-57.3,788.4-57.3,788.7z M-57,790.9l1.8-2.9h0.2l-1.8,2.9H-57z M-54.4,790
				c0,0.5-0.3,0.8-0.7,0.8s-0.7-0.3-0.7-0.8c0-0.5,0.3-0.8,0.7-0.8C-54.5,789.1-54.4,789.4-54.4,790z M-55.5,790
				c0,0.3,0.2,0.7,0.3,0.7c0.2,0,0.3-0.3,0.3-0.7s-0.2-0.7-0.3-0.7C-55.4,789.4-55.5,789.7-55.5,790z M-52.6,788.1
				c0,0.2-0.2,0.2-0.2,0.2l-0.2-0.2c0-0.2,0.2-0.2,0.2-0.2S-52.6,787.9-52.6,788.1z M-52.9,790.9v-2.1h0.3v2.1H-52.9z M-51.9,789.2
				v-0.5h0.3v0.3c0.2-0.2,0.3-0.3,0.8-0.3c0.3,0,0.8,0.2,0.8,0.8v1.3h-0.3v-1.3c0-0.3-0.2-0.7-0.5-0.7c-0.2,0-0.5,0.2-0.5,0.3v1.5
				h-0.3L-51.9,789.2L-51.9,789.2z M-48,790.7c-0.2,0.2-0.3,0.2-0.5,0.2c-0.7,0-1.1-0.5-1.1-1.1s0.5-1.1,1.1-1.1
				c0.2,0,0.5,0.2,0.5,0.2l-0.2,0.3c-0.2,0-0.3-0.2-0.5-0.2c-0.5,0-0.8,0.3-0.8,0.8c0,0.5,0.3,0.8,0.8,0.8c0.2,0,0.3-0.2,0.5-0.2
				L-48,790.7z M-47.5,787.8h0.3v3.1h-0.3V787.8z M-44.8,790.2v0.5h-0.3v-0.3c-0.2,0.2-0.3,0.3-0.8,0.3c-0.3,0-0.8-0.2-0.8-1v-1.1h0.5
				v1.1c0,0.5,0.2,0.7,0.5,0.7c0.3,0,0.5-0.2,0.5-0.3v-1.5h0.3v1.8L-44.8,790.2L-44.8,790.2z M-42.2,787.8v3.1h-0.3v-0.3
				c-0.2,0.2-0.3,0.5-0.8,0.5c-0.5,0-0.8-0.5-0.8-1.1c0-0.8,0.5-1.1,1-1.1c0.3,0,0.5,0.2,0.7,0.3v-1.3L-42.2,787.8L-42.2,787.8z
				 M-42.6,789.6C-42.6,789.4-42.6,789.4-42.6,789.6c-0.2-0.3-0.3-0.5-0.5-0.5c-0.3,0-0.7,0.3-0.7,0.8c0,0.5,0.2,0.8,0.7,0.8
				c0.3,0,0.5-0.2,0.5-0.5V789.6L-42.6,789.6z M-41.3,789.9c0,0.5,0.3,0.8,0.8,0.8c0.3,0,0.5-0.2,0.5-0.2l0.2,0.3
				c-0.2,0.2-0.3,0.2-0.8,0.2c-0.7,0-1.1-0.5-1.1-1.1s0.3-1.1,1.1-1.1c0.7,0,0.8,0.5,0.8,1.1v0.2h-1.5V789.9z M-40.2,789.6
				c0-0.2-0.2-0.7-0.5-0.7c-0.3,0-0.5,0.3-0.5,0.7H-40.2z M-38.4,789.2v-0.5h0.3v0.3c0.2-0.2,0.3-0.3,0.7-0.3c0.3,0,0.5,0.2,0.5,0.5
				c0.2-0.2,0.2-0.2,0.2-0.3c0.2-0.2,0.3-0.2,0.5-0.2c0.3,0,0.8,0.2,0.8,1v1.3h-0.3v-1.3c0-0.5-0.2-0.7-0.5-0.7
				c-0.2,0-0.3,0.2-0.5,0.3v1.5h-0.3v-1.1c0-0.3-0.2-0.5-0.5-0.5c-0.2,0-0.5,0.2-0.5,0.3v1.5h-0.3V789.2z M-33.5,790.9v-0.3
				c-0.2,0.2-0.3,0.3-0.7,0.3c-0.5,0-0.7-0.3-0.7-0.5c0-0.5,0.5-0.8,1.3-0.8v-0.2c0-0.2-0.2-0.5-0.5-0.5c-0.2,0-0.5,0.2-0.5,0.2
				l-0.2-0.2c0.2-0.2,0.5-0.2,0.8-0.2c0.7,0,0.8,0.5,0.8,0.8v1.3H-33.5z M-33.5,789.7c-0.5,0-0.8,0.2-0.8,0.5c0,0.2,0.2,0.3,0.3,0.3
				c0.3,0,0.5-0.2,0.5-0.3V789.7L-33.5,789.7z M-32,788.1c0,0.2-0.2,0.2-0.2,0.2l-0.2-0.2c0-0.2,0.2-0.2,0.2-0.2
				C-32.2,787.8-32,787.9-32,788.1z M-32.5,790.9v-2.1h0.3v2.1H-32.5z M-31.6,789.2v-0.5h0.3v0.3c0.2-0.2,0.3-0.3,0.8-0.3
				c0.3,0,0.8,0.2,0.8,0.8v1.3h-0.5v-1.3c0-0.3-0.2-0.7-0.5-0.7c-0.2,0-0.5,0.2-0.5,0.3v1.5h-0.3L-31.6,789.2L-31.6,789.2z M-29.4,791
				l1.3-3.1h0.3l-1.3,3.1H-29.4z M-25.5,791.2v0.2h-2.3v-0.2H-25.5z M-25.4,787.8h0.3v1.3l0.3-0.3c0.2,0,0.2-0.2,0.5-0.2
				c0.3,0,0.8,0.2,0.8,0.8v1.3h-0.5v-1.3c0-0.3-0.2-0.7-0.5-0.7c-0.2,0-0.5,0.2-0.5,0.3v1.6h-0.3C-25.2,790.7-25.4,787.8-25.4,787.8z
				 M-22.6,789.9c0,0.5,0.3,0.8,0.8,0.8c0.3,0,0.5-0.2,0.5-0.2l0.2,0.2c-0.2,0.2-0.3,0.2-0.8,0.2c-0.7,0-1.1-0.5-1.1-1.1
				s0.3-1.1,1.1-1.1c0.8,0,0.8,0.5,0.8,1.1v0.2C-21.1,789.9-22.6,789.9-22.6,789.9z M-21.4,789.6c0-0.2-0.2-0.7-0.5-0.7
				c-0.3,0-0.5,0.3-0.5,0.7H-21.4z M-19.3,790.9v-0.3c-0.2,0.2-0.3,0.3-0.7,0.3c-0.5,0-0.7-0.3-0.7-0.5c0-0.5,0.5-0.8,1.3-0.8v-0.2
				c0-0.2-0.2-0.5-0.5-0.5c-0.2,0-0.5,0.2-0.5,0.2l-0.2-0.2c0.2-0.2,0.5-0.2,0.8-0.2c0.7,0,0.8,0.5,0.8,0.8v1.3H-19.3z M-19.5,789.7
				c-0.5,0-0.8,0.2-0.8,0.5c0,0.2,0.2,0.3,0.3,0.3c0.3,0,0.5-0.2,0.5-0.3V789.7L-19.5,789.7z M-16.7,787.8v3.1H-17v-0.3
				c-0.2,0.2-0.3,0.5-0.8,0.5s-0.8-0.5-0.8-1.1c0-0.8,0.5-1.1,1-1.1c0.3,0,0.5,0.2,0.7,0.3v-1.3L-16.7,787.8L-16.7,787.8z M-17,789.6
				C-17,789.4-17,789.4-17,789.6c-0.2-0.3-0.3-0.5-0.5-0.5c-0.3,0-0.7,0.3-0.7,0.8c0,0.5,0.2,0.8,0.7,0.8c0.3,0,0.5-0.2,0.5-0.5V789.6
				L-17,789.6z M-15.1,789.4v0.3h-1.1v-0.3H-15.1z M-14.6,787.8h0.3v1.3l0.3-0.3c0.2-0.2,0.2-0.2,0.3-0.2c0.3,0,0.8,0.2,0.8,0.8v1.3
				h-0.3v-1.3c0-0.3-0.2-0.7-0.5-0.7c-0.2,0-0.5,0.2-0.5,0.3v1.6h-0.3v-2.9H-14.6z M-11.8,788.1v0.5h0.5v0.3h-0.5v1.1
				c0,0.3,0.2,0.5,0.3,0.5h0.2v0.3c-0.2,0-0.2,0.2-0.3,0.2c-0.2,0-0.3-0.2-0.5-0.2c-0.2-0.2-0.2-0.3-0.2-0.5v-1.3h-0.5v-0.3h0.3v-0.5
				L-11.8,788.1L-11.8,788.1z M-10.7,789.2v-0.5h0.3v0.3c0.2-0.2,0.3-0.3,0.7-0.3c0.3,0,0.5,0.2,0.5,0.5c0.2-0.2,0.2-0.2,0.2-0.3
				c0.2-0.2,0.3-0.2,0.5-0.2c0.3,0,0.8,0.2,0.8,1v1.3h-0.3v-1.3c0-0.5-0.2-0.7-0.5-0.7c-0.2,0-0.3,0.2-0.5,0.3v1.5h-0.3v-1.1
				c0-0.3-0.2-0.5-0.5-0.5c-0.2,0-0.5,0.2-0.5,0.3v1.5h-0.3V789.2z M-6.9,787.8h0.3v3.1h-0.3V787.8z M-4,788.7c0,0.5-0.3,0.8-0.7,0.8
				c-0.3,0-0.7-0.3-0.7-0.8s0.3-0.8,0.7-0.8C-4.2,787.9-4,788.3-4,788.7z M-5,788.7c0,0.3,0.2,0.7,0.3,0.7c0.2,0,0.3-0.3,0.3-0.7
				s-0.2-0.7-0.3-0.7C-4.8,788.1-5,788.4-5,788.7z M-4.6,790.9l1.8-2.9h0.2l-1.8,2.9H-4.6z M-2,790c0,0.5-0.3,0.8-0.7,0.8
				s-0.7-0.3-0.7-0.8c0-0.5,0.3-0.8,0.7-0.8C-2.4,789.1-2,789.4-2,790z M-3,790c0,0.3,0.2,0.7,0.3,0.7s0.3-0.3,0.3-0.7
				s-0.2-0.7-0.3-0.7S-3,789.7-3,790z M0.4,789.7l-2.1,1.1v-0.3l1.8-0.8l-1.8-0.8v-0.3L0.4,789.7z M-65.6,794.3l1.8-0.8v0.2l-1.5,0.8
				l1.5,0.8v0.2l-1.8-0.8V794.3z"/>
			<path fill="#F20A3D" d="M-63.4,795.3v-2.6h0.3v1.1c0.2-0.2,0.3-0.3,0.5-0.3c0.5,0,0.8,0.3,0.8,0.8c0,0.7-0.3,1-0.8,1
				c-0.2,0-0.5-0.2-0.5-0.3v0.3H-63.4z M-63,794.6c0.2,0.5,0.2,0.5,0.5,0.5s0.5-0.3,0.5-0.7s-0.2-0.7-0.5-0.7c-0.2,0-0.5,0.2-0.5,0.3
				V794.6z M-59.6,794.3c0,0.7-0.5,1-0.8,1c-0.5,0-0.8-0.3-0.8-0.8s0.3-1,0.8-1C-59.9,793.5-59.6,793.8-59.6,794.3z M-61.1,794.3
				c0,0.3,0.2,0.7,0.5,0.7c0.3,0,0.5-0.3,0.5-0.7s-0.2-0.7-0.5-0.7C-60.7,793.6-61.1,794.1-61.1,794.3z M-57.6,792.7v2.6H-58v-0.3
				c-0.2,0.2-0.3,0.3-0.5,0.3c-0.5,0-0.8-0.3-0.8-0.8s0.3-1,0.8-1c0.3,0,0.5,0.2,0.5,0.3v-1.1H-57.6z M-58,794.3
				C-58,794.1-58,794.1-58,794.3c-0.2-0.3-0.2-0.5-0.5-0.5s-0.5,0.3-0.5,0.7s0.2,0.7,0.5,0.7c0.2,0,0.5-0.2,0.5-0.3V794.3z M-57,793.5
				l0.3,1.1c0.2,0.2,0.2,0.3,0.2,0.3c0-0.2,0.2-0.2,0.2-0.3l0.3-1.1h0.3l-0.5,1.3c-0.2,0.5-0.3,1-0.5,1.1c-0.2,0.2-0.3,0.2-0.3,0.2
				l-0.2-0.3c0.2,0,0.2-0.2,0.3-0.2l0.3-0.3v-0.2l-0.7-1.6L-57,793.5L-57,793.5z"/>
			<path fill="#0CEF32" d="M-52.9,792.7v2.6h-0.3v-0.3c-0.2,0.2-0.3,0.3-0.5,0.3c-0.5,0-0.8-0.3-0.8-0.8s0.3-1,0.8-1
				c0.3,0,0.5,0.2,0.5,0.3v-1.1H-52.9z M-53.4,794.3C-53.4,794.1-53.4,794.1-53.4,794.3c-0.2-0.3-0.2-0.5-0.5-0.5
				c-0.3,0-0.5,0.3-0.5,0.7s0.2,0.7,0.5,0.7c0.2,0,0.5-0.2,0.5-0.3V794.3z M-51.6,795.3v-0.2c-0.2,0.2-0.3,0.3-0.5,0.3
				c-0.3,0-0.5-0.2-0.5-0.5c0-0.5,0.3-0.7,1.1-0.7v-0.2c0-0.2-0.2-0.5-0.5-0.5c-0.2,0-0.3,0.2-0.5,0.2l-0.2-0.2
				c0.2-0.2,0.3-0.2,0.5-0.2c0.5,0,0.7,0.3,0.7,0.8v1.3C-51.4,795.6-51.6,795.3-51.6,795.3z M-51.6,794.3c-0.3,0-0.8,0.2-0.8,0.3
				s0.2,0.3,0.3,0.3c0.2,0,0.3-0.2,0.5-0.3V794.3z M-50.3,793v0.5h0.5v0.2h-0.5v1c0,0.2,0.2,0.3,0.2,0.3h0.2v0.2
				c-0.2,0-0.2,0.2-0.3,0.2c-0.2,0-0.3-0.2-0.3-0.2c-0.2-0.2-0.2-0.2-0.2-0.5v-1h-0.3v-0.2h0.3V793L-50.3,793L-50.3,793z M-48.5,795.3
				v-0.2c-0.2,0.2-0.3,0.3-0.5,0.3c-0.3,0-0.5-0.2-0.5-0.5c0-0.5,0.3-0.7,1.1-0.7v-0.2c0-0.2-0.2-0.5-0.5-0.5c-0.2,0-0.3,0.2-0.5,0.2
				l-0.2-0.3c0.2-0.2,0.3-0.2,0.5-0.2c0.5,0,0.7,0.3,0.7,0.8v1.3C-48.3,795.4-48.5,795.3-48.5,795.3z M-48.7,794.3
				c-0.3,0-0.8,0.2-0.8,0.3s0.2,0.3,0.3,0.3s0.3-0.2,0.5-0.3v-0.2V794.3z M-47,794.1v0.2h-0.8v-0.2H-47z M-46.6,794v-0.5h0.3v0.3
				c0.2-0.2,0.3-0.3,0.5-0.3s0.7,0.2,0.7,0.8v1.1h-0.3v-1.1c0-0.3-0.2-0.5-0.5-0.5c-0.2,0-0.3,0.2-0.5,0.3v1.3h-0.3L-46.6,794
				L-46.6,794z M-43,793.5v1.6c0,0.5-0.2,0.7-0.2,0.8c-0.2,0.2-0.5,0.2-0.7,0.2s-0.5-0.2-0.5-0.2l0.2-0.2c0.2,0.2,0.3,0.2,0.5,0.2
				c0.3,0,0.5-0.2,0.5-0.5v-0.3c-0.2,0.2-0.3,0.3-0.5,0.3c-0.5,0-0.8-0.3-0.8-0.8s0.3-1,0.8-1c0.3,0,0.5,0.2,0.5,0.3v-0.3
				C-43.1,793.5-43,793.5-43,793.5z M-43.3,794.3C-43.3,794.1-43.3,794.1-43.3,794.3c-0.2-0.3-0.2-0.5-0.5-0.5c-0.3,0-0.5,0.3-0.5,0.7
				s0.2,0.7,0.5,0.7c0.2,0,0.3-0.2,0.5-0.3V794.3z M-41.8,794.1v0.2h-0.8v-0.2H-41.8z M-40.4,795.3v-0.2c-0.2,0.2-0.3,0.3-0.5,0.3
				c-0.3,0-0.5-0.2-0.5-0.5c0-0.5,0.3-0.7,1.1-0.7v-0.2c0-0.2-0.2-0.5-0.5-0.5c-0.2,0-0.3,0.2-0.5,0.2l-0.2-0.3
				c0.2-0.2,0.3-0.2,0.5-0.2c0.5,0,0.7,0.3,0.7,0.8v1.3C-40.2,795.4-40.4,795.3-40.4,795.3z M-40.4,794.3c-0.3,0-0.8,0.2-0.8,0.3
				s0.2,0.3,0.3,0.3s0.3-0.2,0.5-0.3v-0.2C-40.4,794.5-40.4,794.3-40.4,794.3z M-39.5,794.1v-0.5h0.3v0.3c0.2-0.2,0.3-0.3,0.7-0.3
				c0.5,0,0.8,0.3,0.8,0.8c0,0.7-0.3,1-0.8,1c-0.2,0-0.5-0.2-0.5-0.3v1h-0.5V794.1z M-39.2,794.6c0.2,0.3,0.2,0.5,0.5,0.5
				c0.3,0,0.5-0.3,0.5-0.7c0-0.3-0.2-0.7-0.5-0.7c-0.2,0-0.5,0.2-0.5,0.3V794.6L-39.2,794.6z M-37.4,794.1v-0.5h0.3v0.3
				c0.2-0.2,0.3-0.3,0.7-0.3c0.5,0,0.8,0.3,0.8,0.8c0,0.7-0.3,1-0.8,1c-0.2,0-0.5-0.2-0.5-0.3v1h-0.3L-37.4,794.1z M-37.1,794.6
				c0.2,0.3,0.2,0.5,0.5,0.5c0.3,0,0.5-0.3,0.5-0.7c0-0.3-0.2-0.7-0.5-0.7c-0.2,0-0.5,0.2-0.5,0.3V794.6L-37.1,794.6z"/>
			<path fill="#FFFFFF" d="M-35.5,794.1V794h2v0.2H-35.5z M-35.5,794.8v-0.2h2v0.2H-35.5z M-33,792.7l-0.2,0.8l-0.2-0.8H-33z
				 M-32.4,792.7l-0.2,0.8h-0.2l-0.2-0.8C-32.9,792.7-32.4,792.7-32.4,792.7z"/>
			<path fill="#FFC524" d="M-30.9,795.3v-0.2c-0.2,0.2-0.3,0.3-0.5,0.3c-0.3,0-0.5-0.2-0.5-0.5c0-0.5,0.3-0.7,1.1-0.7v-0.2
				c0-0.2-0.2-0.5-0.5-0.5c-0.2,0-0.3,0.2-0.5,0.2l-0.2-0.3c0.2-0.2,0.3-0.2,0.5-0.2c0.5,0,0.7,0.3,0.7,0.8v1.3
				C-30.7,795.4-30.9,795.3-30.9,795.3z M-31.1,794.3c-0.3,0-0.8,0.2-0.8,0.3s0.2,0.3,0.3,0.3c0.2,0,0.3-0.2,0.5-0.3V794.3z
				 M-30.1,794.1v-0.5h0.3v0.3c0.2-0.2,0.3-0.3,0.7-0.3c0.5,0,0.8,0.3,0.8,0.8c0,0.7-0.3,1-0.8,1c-0.2,0-0.5-0.2-0.5-0.3v1h-0.5
				C-30.1,796.1-30.1,794.1-30.1,794.1z M-29.8,794.6c0.2,0.3,0.2,0.5,0.5,0.5s0.5-0.3,0.5-0.7c0-0.3-0.2-0.7-0.5-0.7
				c-0.2,0-0.5,0.2-0.5,0.3V794.6L-29.8,794.6z M-28.1,794.1v-0.5h0.3v0.3c0.2-0.2,0.3-0.3,0.7-0.3c0.5,0,0.8,0.3,0.8,0.8
				c0,0.7-0.3,1-0.8,1c-0.2,0-0.5-0.2-0.5-0.3v1H-28L-28.1,794.1z M-27.6,794.6c0.2,0.3,0.2,0.5,0.5,0.5c0.3,0,0.5-0.3,0.5-0.7
				c0-0.3-0.2-0.7-0.5-0.7c-0.2,0-0.5,0.2-0.5,0.3V794.6L-27.6,794.6z"/>
			<path fill="#FFFFFF" d="M-25.8,792.7l-0.2,0.8l-0.2-0.8C-26.2,792.7-25.8,792.7-25.8,792.7z M-25.2,792.7l-0.2,0.8h-0.2l-0.2-0.8
				C-25.7,792.7-25.2,792.7-25.2,792.7z M-23.1,794.3l-1.8,0.8v-0.2l1.5-0.8l-1.5-0.7v-0.2l1.8,0.8V794.3z M-60.4,798.7l1.8-0.8v0.2
				l-1.5,0.8l1.5,0.7v0.2L-60.4,798.7z"/>
			<path fill="#F20A3D" d="M-58.3,799.3c0.2,0.2,0.3,0.2,0.5,0.2s0.3-0.2,0.3-0.3s-0.2-0.2-0.3-0.3c-0.3-0.2-0.5-0.3-0.5-0.5
				c0-0.3,0.2-0.5,0.5-0.5c0.2,0,0.3,0.2,0.5,0.2l-0.2,0.2c-0.2-0.2-0.2-0.2-0.3-0.2s-0.3,0.2-0.3,0.2c0,0.2,0.2,0.2,0.3,0.3
				c0.3,0.2,0.5,0.3,0.5,0.5c0,0.3-0.2,0.5-0.7,0.5c-0.2,0-0.3-0.2-0.5-0.2C-58.5,799.3-58.3,799.3-58.3,799.3z M-56.5,798.9
				c0,0.5,0.3,0.5,0.5,0.5c0.2,0,0.3-0.2,0.5-0.2l0.2,0.2c-0.2,0.2-0.3,0.2-0.5,0.2c-0.5,0-0.8-0.3-0.8-0.8c0-0.5,0.3-1,0.8-1
				s0.8,0.5,0.8,0.8v0.2C-55,798.7-56.5,798.9-56.5,798.9z M-55.5,798.7c0-0.2-0.2-0.5-0.5-0.5c-0.3,0-0.5,0.3-0.5,0.5H-55.5z
				 M-53.6,799.7c-0.2,0.2-0.3,0.2-0.5,0.2c-0.5,0-0.8-0.3-0.8-0.8c0-0.5,0.3-1,1-1c0.2,0,0.3,0.2,0.5,0.2l-0.2,0.2
				c-0.2-0.2-0.2-0.2-0.3-0.2c-0.5,0-0.7,0.3-0.7,0.7c0,0.5,0.3,0.7,0.5,0.7s0.3-0.2,0.3-0.2S-53.6,799.7-53.6,799.7z"/>
			<path fill="#F20A3D" d="M-52.8,797.4v0.5h0.5v0.2h-0.5v1c0,0.2,0.2,0.3,0.2,0.3h0.2v0.2c-0.2,0-0.2,0.2-0.3,0.2s-0.3-0.2-0.3-0.2
				s-0.2-0.2-0.2-0.5v-1h-0.3v-0.2h0.3v-0.5H-52.8L-52.8,797.4z M-51.6,797.4c0,0.2-0.2,0.2-0.2,0.2c-0.2,0-0.2-0.2-0.2-0.2
				c0-0.2,0.2-0.2,0.2-0.2C-51.6,797.2-51.6,797.2-51.6,797.4z M-51.9,799.7v-1.8h0.3v1.8H-51.9z M-49.5,798.9c0,0.7-0.5,1-0.8,1
				c-0.5,0-0.8-0.3-0.8-0.8c0-0.5,0.3-1,0.8-1C-49.8,798-49.5,798.2-49.5,798.9z M-51,798.9c0,0.3,0.2,0.7,0.5,0.7
				c0.3,0,0.5-0.3,0.5-0.7c0-0.3-0.2-0.7-0.5-0.7C-50.6,798.2-51,798.5-51,798.9z M-49,798.5V798h0.3v0.3c0.2-0.2,0.3-0.3,0.5-0.3
				c0.2,0,0.7,0.2,0.7,0.8v1.1h-0.3v-1.1c0-0.3-0.2-0.5-0.5-0.5c-0.2,0-0.3,0.2-0.5,0.3v1.3h-0.3C-49.2,800-49,798.5-49,798.5z"/>
			<path fill="#0CEF32" d="M-45.9,797.4c0,0.2-0.2,0.2-0.2,0.2l-0.2-0.2c0-0.2,0.2-0.2,0.2-0.2C-45.9,797.2-45.9,797.2-45.9,797.4z
				 M-46.2,799.7v-1.8h0.3v1.8H-46.2z M-43.8,797.1v2.6h-0.3v-0.3c-0.2,0.2-0.3,0.3-0.5,0.3c-0.5,0-0.8-0.3-0.8-0.8c0-0.5,0.3-1,0.8-1
				c0.3,0,0.5,0.2,0.5,0.3v-1.1H-43.8z M-44.1,798.7C-44.1,798.5-44.1,798.5-44.1,798.7c-0.2-0.3-0.2-0.5-0.5-0.5
				c-0.3,0-0.5,0.3-0.5,0.7c0,0.3,0.2,0.7,0.5,0.7c0.2,0,0.5-0.2,0.5-0.3V798.7z"/>
			<path fill="#FFFFFF" d="M-43.5,798.5v-0.2h2v0.2H-43.5z M-43.5,799.2V799h2v0.2H-43.5z M-40.8,797.2L-41,798h-0.2l-0.2-0.8H-40.8z
				 M-40.4,797.2l-0.2,0.8h-0.2l-0.2-0.8H-40.4z"/>
			<path fill="#FFC524" d="M-39.4,797.4v0.5h0.5v0.2h-0.5v1c0,0.2,0.2,0.3,0.2,0.3h0.2v0.2c-0.2,0-0.2,0.2-0.3,0.2s-0.3-0.2-0.3-0.2
				v-1.3H-40V798h0.3v-0.5L-39.4,797.4L-39.4,797.4z M-36.9,798.9c0,0.7-0.5,1-0.8,1c-0.5,0-0.8-0.3-0.8-0.8c0-0.5,0.3-1,0.8-1
				C-37.3,797.9-36.9,798.2-36.9,798.9z M-38.2,798.9c0,0.3,0.2,0.7,0.5,0.7c0.3,0,0.5-0.3,0.5-0.7c0-0.3-0.2-0.7-0.5-0.7
				C-38.1,798.2-38.2,798.5-38.2,798.9z M-36.6,798.5V798h0.3v0.3c0.2-0.2,0.3-0.3,0.7-0.3c0.5,0,0.8,0.3,0.8,0.8c0,0.7-0.3,1-0.8,1
				c-0.2,0-0.5-0.2-0.5-0.3v1h-0.3L-36.6,798.5z M-36.3,799C-36.3,799.2-36.3,799.2-36.3,799c0.2,0.3,0.2,0.5,0.5,0.5
				c0.3,0,0.5-0.3,0.5-0.7c0-0.3-0.2-0.7-0.5-0.7c-0.2,0-0.5,0.2-0.5,0.3V799z"/>
			<path fill="#FFFFFF" d="M-34.3,797.2l-0.2,0.8h-0.2l-0.2-0.8C-34.8,797.2-34.3,797.2-34.3,797.2z M-33.7,797.2l-0.2,0.8H-34
				l-0.2-0.8C-34.2,797.2-33.7,797.2-33.7,797.2z M-31.6,798.9l-1.6,0.8v-0.2L-31.6,798.9l-1.6-0.8v-0.2L-31.6,798.9z M-56.2,803.1
				l1.8-0.8v0.2l-1.5,0.8l1.5,0.8v0.2l-1.8-0.8V803.1z M-52.9,802.4c0,0.5-0.3,0.8-0.5,0.8c-0.3,0-0.5-0.2-0.5-0.8
				c0-0.7,0.3-0.8,0.5-0.8C-53.1,801.6-52.9,802-52.9,802.4z M-53.7,802.4c0,0.3,0.2,0.5,0.3,0.5s0.3-0.2,0.3-0.5s-0.2-0.5-0.3-0.5
				S-53.7,802.1-53.7,802.4z M-53.6,804.2l1.5-2.4h0.2l-1.5,2.4H-53.6z M-51.3,803.4c0,0.5-0.3,0.8-0.5,0.8c-0.3,0-0.5-0.2-0.5-0.8
				c0-0.7,0.3-0.8,0.5-0.8C-51.6,802.8-51.3,802.9-51.3,803.4z M-52.3,803.4c0,0.3,0.2,0.5,0.3,0.5s0.3-0.2,0.3-0.5
				c0-0.3-0.2-0.5-0.3-0.5C-52.1,802.8-52.3,803.1-52.3,803.4z M-49.8,801.8c0,0.2-0.2,0.2-0.2,0.2c-0.2,0-0.2-0.2-0.2-0.2
				c0-0.2,0.2-0.2,0.2-0.2C-49.8,801.6-49.8,801.8-49.8,801.8z M-50.1,804.1v-1.8h0.3v1.8H-50.1z M-49.3,802.8v-0.5h0.3v0.3
				c0.2-0.2,0.3-0.3,0.5-0.3c0.2,0,0.7,0.2,0.7,0.8v1.1h-0.3v-1.1c0-0.3-0.2-0.5-0.5-0.5c-0.2,0-0.3,0.2-0.5,0.3v1.3h-0.3L-49.3,802.8
				z M-46.1,804.1c-0.2,0.2-0.3,0.2-0.5,0.2c-0.5,0-0.8-0.3-0.8-0.8c0-0.5,0.3-1,1-1c0.2,0,0.3,0.2,0.5,0.2l-0.2,0.2
				c-0.2-0.2-0.2-0.2-0.3-0.2c-0.5,0-0.7,0.3-0.7,0.7c0,0.5,0.3,0.7,0.5,0.7s0.3-0.2,0.3-0.2S-46.1,804.1-46.1,804.1z M-45.6,801.5
				h0.3v2.6h-0.3V801.5z M-43.1,803.7v0.5h-0.3v-0.3c-0.2,0.2-0.3,0.3-0.5,0.3c-0.3,0-0.5-0.2-0.5-0.8v-1.1h0.3v1
				c0,0.3,0.2,0.5,0.3,0.5c0.2,0,0.3-0.2,0.5-0.3v-1.3h0.3C-43,802.1-43.1,803.7-43.1,803.7z M-41.2,801.5v2.6h-0.3v-0.3
				c-0.2,0.2-0.3,0.3-0.5,0.3c-0.5,0-0.8-0.3-0.8-0.8c0-0.5,0.3-1,0.8-1c0.3,0,0.5,0.2,0.5,0.3v-1.1
				C-41.5,801.5-41.2,801.5-41.2,801.5z M-41.5,803.1C-41.5,802.9-41.5,802.9-41.5,803.1c-0.2-0.3-0.2-0.5-0.5-0.5s-0.5,0.3-0.5,0.7
				c0,0.3,0.2,0.7,0.5,0.7c0.2,0,0.5-0.2,0.5-0.3C-41.5,803.6-41.5,803.1-41.5,803.1z M-40.4,803.3c0,0.5,0.3,0.5,0.5,0.5
				s0.3-0.2,0.5-0.2l0.2,0.2c-0.2,0.2-0.3,0.2-0.5,0.2c-0.5,0-0.8-0.3-0.8-0.8c0-0.5,0.3-1,0.8-1c0.5,0,0.8,0.5,0.8,0.8v0.2
				C-38.9,803.1-40.4,803.3-40.4,803.3z M-39.4,803.1c0-0.2-0.2-0.5-0.5-0.5c-0.3,0-0.5,0.3-0.5,0.5H-39.4z M-37.9,802.8v-0.5h0.3v0.3
				c0.2-0.2,0.3-0.3,0.5-0.3s0.5,0.2,0.5,0.3l0.2-0.2c0.2-0.2,0.2-0.2,0.3-0.2s0.5,0.2,0.5,0.8v1.1h-0.2v-1.1c0-0.3-0.2-0.5-0.3-0.5
				s-0.3,0.2-0.3,0.3v1.3h-0.3v-1.1c0-0.3-0.2-0.5-0.3-0.5s-0.3,0.2-0.3,0.3v1.3h-0.3v-1.3h-0.2C-37.9,802.9-37.9,802.8-37.9,802.8z
				 M-34,804.1v-0.2c-0.2,0.2-0.3,0.3-0.5,0.3c-0.3,0-0.5-0.2-0.5-0.5c0-0.5,0.3-0.7,1.1-0.7v-0.2c0-0.2-0.2-0.5-0.5-0.5
				c-0.2,0-0.3,0.2-0.5,0.2l-0.2-0.2c0.2-0.2,0.3-0.2,0.5-0.2c0.5,0,0.7,0.3,0.7,0.8v1.3C-33.8,804.4-34,804.1-34,804.1z M-34,803.3
				c-0.3,0-0.8,0.2-0.8,0.3s0.2,0.3,0.3,0.3s0.3-0.2,0.5-0.3v-0.2V803.3z M-32.7,801.8c0,0.2-0.2,0.2-0.2,0.2c-0.2,0-0.2-0.2-0.2-0.2
				c0-0.2,0-0.2,0.2-0.2L-32.7,801.8z M-33,804.1v-1.8h0.3v1.8H-33z M-32.4,802.8v-0.5h0.3v0.3c0.2-0.2,0.3-0.3,0.5-0.3
				c0.2,0,0.7,0.2,0.7,0.8v1.1h-0.2v-1.1c0-0.3-0.2-0.5-0.5-0.5c-0.2,0-0.3,0.2-0.5,0.3v1.3h-0.2L-32.4,802.8z M-30.4,804.2l1.1-2.6
				h0.2l-1.1,2.6H-30.4z M-27.3,804.4v0.2h-1.8v-0.2H-27.3z M-27.1,801.5h0.3v1.1l0.2-0.2c0.2-0.2,0.2-0.2,0.3-0.2s0.5,0.2,0.5,0.8
				v1.1H-26v-1.1c0-0.3-0.2-0.5-0.5-0.5c-0.2,0-0.3,0.2-0.5,0.3v1.3h-0.2C-27.1,804.2-27.1,801.5-27.1,801.5z M-24.9,803.3
				c0,0.5,0.3,0.5,0.5,0.5c0.2,0,0.3-0.2,0.5-0.2l0.2,0.2c-0.2,0.2-0.3,0.2-0.5,0.2c-0.5,0-0.8-0.3-0.8-0.8c0-0.5,0.3-1,0.8-1
				s0.8,0.5,0.8,0.8v0.2C-23.4,803.1-24.9,803.3-24.9,803.3z M-23.9,803.1c0-0.2-0.2-0.5-0.5-0.5c-0.3,0-0.5,0.3-0.5,0.5H-23.9z
				 M-22.3,804.1v-0.2c-0.2,0.2-0.3,0.3-0.5,0.3c-0.3,0-0.5-0.2-0.5-0.5c0-0.5,0.3-0.7,1.1-0.7v-0.2c0-0.2-0.2-0.5-0.5-0.5
				c-0.2,0-0.3,0.2-0.5,0.2l-0.2-0.2c0.2-0.2,0.3-0.2,0.5-0.2c0.5,0,0.7,0.3,0.7,0.8v1.3C-22.1,804.4-22.3,804.1-22.3,804.1z
				 M-22.3,803.3c-0.3,0-0.8,0.2-0.8,0.3s0.2,0.3,0.3,0.3s0.3-0.2,0.5-0.3V803.3z M-19.8,801.5v2.6h-0.3v-0.3
				c-0.2,0.2-0.3,0.3-0.5,0.3c-0.5,0-0.8-0.3-0.8-0.8c0-0.5,0.3-1,0.8-1c0.3,0,0.5,0.2,0.5,0.3v-1.1H-19.8z M-20.1,803.1
				C-20.1,802.9-20.1,802.9-20.1,803.1c-0.2-0.3-0.2-0.5-0.5-0.5c-0.3,0-0.5,0.3-0.5,0.7c0,0.3,0.2,0.7,0.5,0.7c0.2,0,0.5-0.2,0.5-0.3
				V803.1z M-19.2,803.3c0,0.5,0.3,0.5,0.5,0.5c0.2,0,0.3-0.2,0.5-0.2l0.2,0.2c-0.2,0.2-0.3,0.2-0.5,0.2c-0.5,0-0.8-0.3-0.8-0.8
				c0-0.5,0.3-1,0.8-1s0.8,0.5,0.8,0.8v0.2C-17.7,803.1-19.2,803.3-19.2,803.3z M-18.2,803.1c0-0.2-0.2-0.5-0.5-0.5
				c-0.3,0-0.5,0.3-0.5,0.5H-18.2z M-17.5,802.9v-0.5h0.3v0.3c0.2-0.2,0.3-0.3,0.5-0.3h0.2v0.3h-0.2c-0.2,0-0.3,0.2-0.5,0.5v1.1h-0.3
				V802.9L-17.5,802.9z M-14.4,802.4c0,0.5-0.3,0.8-0.5,0.8c-0.3,0-0.5-0.2-0.5-0.8c0-0.7,0.3-0.8,0.5-0.8
				C-14.8,801.6-14.4,802-14.4,802.4z M-15.4,802.4c0,0.3,0.2,0.5,0.3,0.5s0.3-0.2,0.3-0.5s-0.2-0.5-0.3-0.5S-15.4,802.1-15.4,802.4z
				 M-15.1,804.2l1.5-2.4h0.2l-1.5,2.4C-14.9,804.2-15.1,804.2-15.1,804.2z M-13,803.4c0,0.5-0.3,0.8-0.5,0.8c-0.3,0-0.5-0.2-0.5-0.8
				c0-0.7,0.3-0.8,0.5-0.8C-13.1,802.8-13,802.9-13,803.4z M-13.8,803.4c0,0.3,0.2,0.5,0.3,0.5c0.2,0,0.3-0.2,0.3-0.5
				c0-0.3-0.2-0.5-0.3-0.5C-13.8,802.8-13.8,803.1-13.8,803.4z M-10.8,803.3l-1.6,0.8v-0.2L-10.8,803.3l-1.6-0.8v-0.2l1.8,0.8
				L-10.8,803.3z"/>
			<path fill="#F4062E" d="M-43.9,807.5l1.8-0.8v0.2l-1.5,0.8l1.5,0.8v0.2l-1.8-0.8V807.5z M-40.2,806v2.6h-0.3v-0.3
				c-0.2,0.2-0.3,0.3-0.5,0.3c-0.5,0-0.8-0.3-0.8-0.8s0.3-1,0.8-1c0.3,0,0.5,0.2,0.5,0.3V806C-40.5,806-40.2,806-40.2,806z
				 M-40.5,807.5C-40.5,807.3-40.5,807.3-40.5,807.5c-0.2-0.3-0.2-0.5-0.5-0.5s-0.5,0.3-0.5,0.7s0.2,0.7,0.5,0.7
				c0.2,0,0.5-0.2,0.5-0.3V807.5z M-39.2,806.4c0,0.2-0.2,0.2-0.2,0.2l-0.2-0.2c0-0.2,0.2-0.2,0.2-0.2S-39.2,806.2-39.2,806.4z
				 M-39.5,808.6v-1.8h0.3v1.8C-39.2,808.6-39.5,808.6-39.5,808.6z M-38.6,806.7l0.3,1.1c0.2,0.2,0.2,0.3,0.2,0.5v-0.5l0.3-1.1h0.3
				l-0.8,1.8h-0.3l-0.7-1.8H-38.6z M-35.3,807.7l-1.8,0.8v-0.2l1.5-0.8l-1.5-0.8v-0.2l1.8,0.8V807.7z"/>
		</g>
		<path fill="#101116" d="M-76.6,772.9L58,773.3l1-5.4H-77.7"/>
		<path fill="#2C2E3A" d="M65.5,765.7l-9.6,50.6H-74.2l-10-50.6H65.5z"/>
		<path fill="#FFFFFF" d="M-21.7,791.7v0.2h-2.9v-0.2H-21.7z M-31.2,793.6l-0.2,1l-0.2-1H-31.2z M-30.4,793.6l-0.2,1h-0.2l-0.2-1
			C-31,793.6-30.4,793.6-30.4,793.6z M-22.1,793.6l-0.2,1l-0.2-1C-22.5,793.6-22.1,793.6-22.1,793.6z M-21.3,793.6l-0.2,1h-0.2l-0.2-1
			C-21.9,793.6-21.3,793.6-21.3,793.6z"/>
		<path fill="#FFFFFF" d="M-41.2,799.4l-0.2,1h-0.2l-0.2-1H-41.2z M-40.6,799.4l-0.2,1H-41l-0.2-1H-40.6z M-32.9,799.4l-0.2,1h-0.2
			l-0.2-1C-33.5,799.4-32.9,799.4-32.9,799.4z M-32.1,799.4l-0.2,1h-0.2l-0.2-1C-32.7,799.4-32.1,799.4-32.1,799.4z"/>
		<path fill="#101116" d="M-83,771.2l147.4,0.4l1.1-5.9H-84.2"/>
		<g id="include-head">
			<g id="include">
				<path fill="#FFFFFF" d="M-60.8,806.9l2.3-1v0.2l-1.9,1l1.9,1v0.2l-2.3-1V806.9z M-56.6,806.1c0,0.6-0.4,1-0.6,1
					c-0.4,0-0.6-0.2-0.6-1c0-0.8,0.4-1,0.6-1C-56.9,805-56.6,805.4-56.6,806.1z M-57.7,806.1c0,0.4,0.2,0.6,0.4,0.6s0.4-0.2,0.4-0.6
					s-0.2-0.6-0.4-0.6S-57.7,805.6-57.7,806.1z M-57.5,808.4l1.9-3.1h0.2l-1.9,3.1H-57.5z M-54.6,807.3c0,0.6-0.4,1-0.6,1
					c-0.4,0-0.6-0.2-0.6-1c0-0.8,0.4-1,0.6-1C-55,806.5-54.6,806.7-54.6,807.3z M-55.8,807.3c0,0.4,0.2,0.6,0.4,0.6s0.4-0.2,0.4-0.6
					c0-0.4-0.2-0.6-0.4-0.6C-55.6,806.5-55.8,806.9-55.8,807.3z M-52.7,805.2c0,0.2-0.2,0.2-0.2,0.2c-0.2,0-0.2-0.2-0.2-0.2
					c0-0.2,0.2-0.2,0.2-0.2C-52.7,805-52.7,805.2-52.7,805.2z M-53.1,808.1v-2.3h0.4v2.3H-53.1z M-52.1,806.5v-0.6h0.4v0.4
					c0.2-0.2,0.4-0.4,0.6-0.4c0.2,0,0.8,0.2,0.8,1v1.5h-0.4v-1.5c0-0.4-0.2-0.6-0.6-0.6c-0.2,0-0.4,0.2-0.6,0.4v1.7h-0.4L-52.1,806.5z
					 M-47.9,808.1c-0.2,0.2-0.4,0.2-0.6,0.2c-0.6,0-1-0.4-1-1c0-0.6,0.4-1.2,1.2-1.2c0.2,0,0.4,0.2,0.6,0.2l-0.2,0.2
					c-0.2-0.2-0.2-0.2-0.4-0.2c-0.6,0-0.8,0.4-0.8,0.8c0,0.6,0.4,0.8,0.6,0.8c0.2,0,0.4-0.2,0.4-0.2S-47.9,808.1-47.9,808.1z
					 M-47.3,804.8h0.4v3.3h-0.4V804.8z M-44.2,807.7v0.6h-0.4v-0.4c-0.2,0.2-0.4,0.4-0.6,0.4c-0.4,0-0.6-0.2-0.6-1v-1.5h0.4v1.2
					c0,0.4,0.2,0.6,0.4,0.6c0.2,0,0.4-0.2,0.6-0.4v-1.7h0.4C-43.9,805.6-44.2,807.7-44.2,807.7z M-41.7,804.8v3.3h-0.4v-0.4
					c-0.2,0.2-0.4,0.4-0.6,0.4c-0.6,0-1-0.4-1-1s0.4-1.2,1-1.2c0.4,0,0.6,0.2,0.6,0.4v-1.5C-42.1,804.8-41.7,804.8-41.7,804.8z
					 M-42.1,806.9C-42.1,806.7-42.1,806.7-42.1,806.9c-0.2-0.4-0.2-0.6-0.6-0.6c-0.4,0-0.6,0.4-0.6,0.8s0.2,0.8,0.6,0.8
					c0.2,0,0.6-0.2,0.6-0.4C-42.1,807.5-42.1,806.9-42.1,806.9z M-40.6,807.1c0,0.6,0.4,0.6,0.6,0.6s0.4-0.2,0.6-0.2l0.2,0.2
					c-0.2,0.2-0.4,0.2-0.6,0.2c-0.6,0-1-0.4-1-1c0-0.6,0.4-1.2,1-1.2s1,0.6,1,1v0.2C-38.7,806.9-40.6,807.1-40.6,807.1z M-39.4,806.9
					c0-0.2-0.2-0.6-0.6-0.6s-0.6,0.4-0.6,0.6H-39.4z M-37.5,806.5v-0.6h0.4v0.4c0.2-0.2,0.4-0.4,0.6-0.4c0.2,0,0.6,0.2,0.6,0.4
					l0.2-0.2c0.2-0.2,0.2-0.2,0.4-0.2c0.2,0,0.6,0.2,0.6,1v1.5h-0.2v-1.5c0-0.4-0.2-0.6-0.4-0.6c-0.2,0-0.4,0.2-0.4,0.4v1.7H-36v-1.5
					c0-0.4-0.2-0.6-0.4-0.6s-0.4,0.2-0.4,0.4v1.7h-0.4v-1.7h-0.2C-37.5,806.7-37.5,806.5-37.5,806.5z M-32.5,808.1v-0.2
					c-0.2,0.2-0.4,0.4-0.6,0.4c-0.4,0-0.6-0.2-0.6-0.6c0-0.6,0.4-0.8,1.5-0.8v-0.2c0-0.2-0.2-0.6-0.6-0.6c-0.2,0-0.4,0.2-0.6,0.2
					l-0.2-0.2c0.2-0.2,0.4-0.2,0.6-0.2c0.6,0,0.8,0.4,0.8,1v1.7C-32.3,808.6-32.5,808.1-32.5,808.1z M-32.5,807.1c-0.4,0-1,0.2-1,0.4
					c0,0.2,0.2,0.4,0.4,0.4c0.2,0,0.4-0.2,0.6-0.4v-0.2V807.1z M-30.8,805.2c0,0.2-0.2,0.2-0.2,0.2c-0.2,0-0.2-0.2-0.2-0.2
					c0-0.2,0-0.2,0.2-0.2L-30.8,805.2z M-31.2,808.1v-2.3h0.4v2.3H-31.2z M-30.4,806.5v-0.6h0.4v0.4c0.2-0.2,0.4-0.4,0.6-0.4
					s0.8,0.2,0.8,1v1.5h-0.2v-1.5c0-0.4-0.2-0.6-0.6-0.6c-0.2,0-0.4,0.2-0.6,0.4v1.7h-0.2L-30.4,806.5z M-27.9,808.4l1.5-3.3h0.2
					l-1.5,3.3H-27.9z M-23.8,804.8h0.4v1.5l0.2-0.2c0.2-0.2,0.2-0.2,0.4-0.2s0.6,0.2,0.6,1v1.5h-0.2v-1.5c0-0.4-0.2-0.6-0.6-0.6
					c-0.2,0-0.4,0.2-0.6,0.4v1.7h-0.2C-23.8,808.4-23.8,804.8-23.8,804.8z M-20.8,807.1c0,0.6,0.4,0.6,0.6,0.6s0.4-0.2,0.6-0.2
					l0.2,0.2c-0.2,0.2-0.4,0.2-0.6,0.2c-0.6,0-1-0.4-1-1c0-0.6,0.4-1.2,1-1.2s1,0.6,1,1v0.2C-19,806.9-20.8,807.1-20.8,807.1z
					 M-19.6,806.9c0-0.2-0.2-0.6-0.6-0.6s-0.6,0.4-0.6,0.6H-19.6z M-17.5,808.1v-0.2c-0.2,0.2-0.4,0.4-0.6,0.4c-0.4,0-0.6-0.2-0.6-0.6
					c0-0.6,0.4-0.8,1.5-0.8v-0.2c0-0.2-0.2-0.6-0.6-0.6c-0.2,0-0.4,0.2-0.6,0.2l-0.2-0.2c0.2-0.2,0.4-0.2,0.6-0.2c0.6,0,0.8,0.4,0.8,1
					v1.7C-17.3,808.6-17.5,808.1-17.5,808.1z M-17.5,807.1c-0.4,0-1,0.2-1,0.4c0,0.2,0.2,0.4,0.4,0.4s0.4-0.2,0.6-0.4V807.1z
					 M-14.4,804.8v3.3h-0.4v-0.4c-0.2,0.2-0.4,0.4-0.6,0.4c-0.6,0-1-0.4-1-1s0.4-1.2,1-1.2c0.4,0,0.6,0.2,0.6,0.4v-1.5H-14.4z
					 M-14.8,806.9C-14.8,806.7-14.8,806.7-14.8,806.9c-0.2-0.4-0.2-0.6-0.6-0.6c-0.4,0-0.6,0.4-0.6,0.8s0.2,0.8,0.6,0.8
					c0.2,0,0.6-0.2,0.6-0.4V806.9z M-13.6,807.1c0,0.6,0.4,0.6,0.6,0.6s0.4-0.2,0.6-0.2l0.2,0.2c-0.2,0.2-0.4,0.2-0.6,0.2
					c-0.6,0-1-0.4-1-1c0-0.6,0.4-1.2,1-1.2s1,0.6,1,1v0.2C-11.7,806.9-13.6,807.1-13.6,807.1z M-12.3,806.9c0-0.2-0.2-0.6-0.6-0.6
					s-0.6,0.4-0.6,0.6H-12.3z M-11.5,806.7v-0.6h0.4v0.4c0.2-0.2,0.4-0.4,0.6-0.4h0.2v0.4h-0.2c-0.2,0-0.4,0.2-0.6,0.6v1.5h-0.4V806.7
					L-11.5,806.7z M-7.5,806.1c0,0.6-0.4,1-0.6,1c-0.4,0-0.6-0.2-0.6-1c0-0.8,0.4-1,0.6-1C-7.9,805-7.5,805.4-7.5,806.1z M-8.8,806.1
					c0,0.4,0.2,0.6,0.4,0.6s0.4-0.2,0.4-0.6s-0.2-0.6-0.4-0.6S-8.8,805.6-8.8,806.1z M-8.3,808.4l1.9-3.1h0.2l-1.9,3.1
					C-8.1,808.4-8.3,808.4-8.3,808.4z M-5.6,807.3c0,0.6-0.4,1-0.6,1c-0.4,0-0.6-0.2-0.6-1c0-0.8,0.4-1,0.6-1
					C-5.9,806.5-5.6,806.7-5.6,807.3z M-6.7,807.3c0,0.4,0.2,0.6,0.4,0.6s0.4-0.2,0.4-0.6c0-0.4-0.2-0.6-0.4-0.6
					C-6.7,806.5-6.7,806.9-6.7,807.3z M-2.9,807.1l-2.1,1v-0.2L-2.9,807.1l-2.1-1v-0.2l2.3,1L-2.9,807.1z"/>
			</g>
			<path fill="#FFFFFF" d="M-24,808.6v0.2h-2.3v-0.2H-24z"/>
			<path fill="#F4062E" d="M-45.2,812.5l2.3-1v0.2l-1.9,1l1.9,1v0.2l-2.3-1V812.5z M-40.4,810.6v3.3h-0.4v-0.4
				c-0.2,0.2-0.4,0.4-0.6,0.4c-0.6,0-1-0.4-1-1c0-0.6,0.4-1.2,1-1.2c0.4,0,0.6,0.2,0.6,0.4v-1.5C-40.8,810.6-40.4,810.6-40.4,810.6z
				 M-40.8,812.5C-40.8,812.3-40.8,812.3-40.8,812.5c-0.2-0.4-0.2-0.6-0.6-0.6c-0.4,0-0.6,0.4-0.6,0.8c0,0.4,0.2,0.8,0.6,0.8
				c0.2,0,0.6-0.2,0.6-0.4V812.5z M-39.2,811.1c0,0.2-0.2,0.2-0.2,0.2l-0.2-0.2c0-0.2,0.2-0.2,0.2-0.2S-39.2,810.9-39.2,811.1z
				 M-39.6,814v-2.3h0.4v2.3C-39.2,814-39.6,814-39.6,814z M-38.3,811.5l0.4,1.5c0.2,0.2,0.2,0.4,0.2,0.6v-0.6l0.4-1.5h0.4l-1,2.3
				h-0.4l-0.8-2.3H-38.3z M-34.2,812.7l-2.3,1v-0.2l1.9-1l-1.9-1v-0.2l2.3,1V812.7z"/>
		</g>
		<g id="id-top">
			<g id="section-top">
				<path fill="#FFFFFF" d="M-66.2,801.3l2.3-1v0.2l-1.9,1l1.9,0.8v0.2L-66.2,801.3z"/>
				<path fill="#F20A3D" d="M-63.5,802.1c0.2,0.2,0.4,0.2,0.6,0.2c0.2,0,0.4-0.2,0.4-0.4s-0.2-0.2-0.4-0.4c-0.4-0.2-0.6-0.4-0.6-0.6
					c0-0.4,0.2-0.6,0.6-0.6c0.2,0,0.4,0.2,0.6,0.2l-0.2,0.2c-0.2-0.2-0.2-0.2-0.4-0.2s-0.4,0.2-0.4,0.2c0,0.2,0.2,0.2,0.4,0.4
					c0.4,0.2,0.6,0.4,0.6,0.6c0,0.4-0.2,0.6-0.8,0.6c-0.2,0-0.4-0.2-0.6-0.2C-63.7,802.1-63.5,802.1-63.5,802.1z M-61.2,801.5
					c0,0.6,0.4,0.6,0.6,0.6c0.2,0,0.4-0.2,0.6-0.2l0.2,0.2c-0.2,0.2-0.4,0.2-0.6,0.2c-0.6,0-1-0.4-1-1c0-0.6,0.4-1.2,1-1.2s1,0.6,1,1
					v0.2C-59.4,801.3-61.2,801.5-61.2,801.5z M-60,801.3c0-0.2-0.2-0.6-0.6-0.6c-0.4,0-0.6,0.4-0.6,0.6H-60z M-57.5,802.5
					c-0.2,0.2-0.4,0.2-0.6,0.2c-0.6,0-1-0.4-1-1c0-0.6,0.4-1.2,1.2-1.2c0.2,0,0.4,0.2,0.6,0.2l-0.2,0.2c-0.2-0.2-0.2-0.2-0.4-0.2
					c-0.6,0-0.8,0.4-0.8,0.8c0,0.6,0.4,0.8,0.6,0.8c0.2,0,0.4-0.2,0.4-0.2S-57.5,802.5-57.5,802.5z"/>
				<path fill="#F20A3D" d="M-56.4,799.6v0.6h0.6v0.2h-0.6v1.2c0,0.2,0.2,0.4,0.2,0.4h0.2v0.2c-0.2,0-0.2,0.2-0.4,0.2
					c-0.2,0-0.4-0.2-0.4-0.2s-0.2-0.2-0.2-0.6v-1.2h-0.4v-0.2h0.4v-0.6L-56.4,799.6L-56.4,799.6z M-55,799.6c0,0.2-0.2,0.2-0.2,0.2
					c-0.2,0-0.2-0.2-0.2-0.2c0-0.2,0.2-0.2,0.2-0.2C-55,799.4-55,799.4-55,799.6z M-55.4,802.5v-2.3h0.4v2.3H-55.4z M-52.3,801.5
					c0,0.8-0.6,1.2-1,1.2c-0.6,0-1-0.4-1-1c0-0.6,0.4-1.2,1-1.2S-52.3,800.7-52.3,801.5z M-54.1,801.5c0,0.4,0.2,0.8,0.6,0.8
					c0.4,0,0.6-0.4,0.6-0.8c0-0.4-0.2-0.8-0.6-0.8C-53.7,800.7-54.1,801.1-54.1,801.5z M-51.7,801.1v-0.6h0.4v0.4
					c0.2-0.2,0.4-0.4,0.6-0.4s0.8,0.2,0.8,1v1.5h-0.4v-1.5c0-0.4-0.2-0.6-0.6-0.6c-0.2,0-0.4,0.2-0.6,0.4v1.7h-0.4
					C-51.9,802.9-51.7,801.1-51.7,801.1z"/>
				<path fill="#0CEF32" d="M-47.7,799.6c0,0.2-0.2,0.2-0.2,0.2l-0.2-0.2c0-0.2,0.2-0.2,0.2-0.2C-47.7,799.4-47.7,799.4-47.7,799.6z
					 M-48.1,802.5v-2.3h0.4v2.3H-48.1z M-45,799.2v3.3h-0.4v-0.4c-0.2,0.2-0.4,0.4-0.6,0.4c-0.6,0-1-0.4-1-1c0-0.6,0.4-1.2,1-1.2
					c0.4,0,0.6,0.2,0.6,0.4v-1.5H-45z M-45.4,801.3C-45.4,801.1-45.4,801.1-45.4,801.3c-0.2-0.4-0.2-0.6-0.6-0.6s-0.6,0.4-0.6,0.8
					s0.2,0.8,0.6,0.8c0.2,0,0.6-0.2,0.6-0.4V801.3z"/>
				<path fill="#FFFFFF" d="M-44.6,801.1v-0.2h2.5v0.2H-44.6z M-44.6,801.9v-0.2h2.5v0.2H-44.6z"/>
				<path fill="#FFC524" d="M-39.4,799.6v0.6h0.6v0.2h-0.6v1.2c0,0.2,0.2,0.4,0.2,0.4h0.2v0.2c-0.2,0-0.2,0.2-0.4,0.2
					s-0.4-0.2-0.4-0.2v-1.7h-0.4v-0.2h0.4v-0.6L-39.4,799.6L-39.4,799.6z M-36.2,801.5c0,0.8-0.6,1.2-1,1.2c-0.6,0-1-0.4-1-1
					c0-0.6,0.4-1.2,1-1.2C-36.7,800.2-36.2,800.7-36.2,801.5z M-37.9,801.5c0,0.4,0.2,0.8,0.6,0.8s0.6-0.4,0.6-0.8
					c0-0.4-0.2-0.8-0.6-0.8S-37.9,801.1-37.9,801.5z M-35.8,801.1v-0.6h0.4v0.4c0.2-0.2,0.4-0.4,0.8-0.4c0.6,0,1,0.4,1,1
					c0,0.8-0.4,1.2-1,1.2c-0.2,0-0.6-0.2-0.6-0.4v1.2h-0.4L-35.8,801.1z M-35.4,801.7C-35.4,801.9-35.4,801.9-35.4,801.7
					c0.2,0.4,0.2,0.6,0.6,0.6c0.4,0,0.6-0.4,0.6-0.8c0-0.4-0.2-0.8-0.6-0.8c-0.2,0-0.6,0.2-0.6,0.4V801.7z"/>
				<path fill="#FFFFFF" d="M-29.4,801.5l-2.1,1v-0.2L-29.4,801.5l-2.1-1v-0.2L-29.4,801.5z"/>
			</g>
		</g>
		<g id="app_1_">
			<g id="app">
				<path fill="#FFFFFF" d="M-72.9,795.7l2.3-1v0.2l-1.9,1l1.9,1v0.2l-2.3-1V795.7z"/>
				<path fill="#F20A3D" d="M-70,796.9v-3.3h0.4v1.5c0.2-0.2,0.4-0.4,0.6-0.4c0.6,0,1,0.4,1,1c0,0.8-0.4,1.2-1,1.2
					c-0.2,0-0.6-0.2-0.6-0.4v0.4H-70z M-69.6,796.1c0.2,0.6,0.2,0.6,0.6,0.6c0.4,0,0.6-0.4,0.6-0.8c0-0.4-0.2-0.8-0.6-0.8
					c-0.2,0-0.6,0.2-0.6,0.4V796.1z M-65.2,795.7c0,0.8-0.6,1.2-1,1.2c-0.6,0-1-0.4-1-1c0-0.6,0.4-1.2,1-1.2S-65.2,795-65.2,795.7z
					 M-67.1,795.7c0,0.4,0.2,0.8,0.6,0.8c0.4,0,0.6-0.4,0.6-0.8c0-0.4-0.2-0.8-0.6-0.8C-66.6,794.8-67.1,795.4-67.1,795.7z
					 M-62.7,793.6v3.3h-0.4v-0.4c-0.2,0.2-0.4,0.4-0.6,0.4c-0.6,0-1-0.4-1-1c0-0.6,0.4-1.2,1-1.2c0.4,0,0.6,0.2,0.6,0.4v-1.5H-62.7z
					 M-63.1,795.7C-63.1,795.4-63.1,795.4-63.1,795.7c-0.2-0.4-0.2-0.6-0.6-0.6s-0.6,0.4-0.6,0.8c0,0.4,0.2,0.8,0.6,0.8
					c0.2,0,0.6-0.2,0.6-0.4V795.7z M-61.9,794.6l0.4,1.5c0.2,0.2,0.2,0.4,0.2,0.4c0-0.2,0.2-0.2,0.2-0.4l0.4-1.5h0.4l-0.6,1.7
					c-0.2,0.6-0.4,1.2-0.6,1.5c-0.2,0.2-0.4,0.2-0.4,0.2l-0.2-0.4c0.2,0,0.2-0.2,0.4-0.2l0.4-0.4v-0.2l-0.8-2.1L-61.9,794.6
					L-61.9,794.6z"/>
				<path fill="#0CEF32" d="M-56.6,793.6v3.3h-0.4v-0.4c-0.2,0.2-0.4,0.4-0.6,0.4c-0.6,0-1-0.4-1-1c0-0.6,0.4-1.2,1-1.2
					c0.4,0,0.6,0.2,0.6,0.4v-1.5H-56.6z M-57.3,795.7C-57.3,795.4-57.3,795.4-57.3,795.7c-0.2-0.4-0.2-0.6-0.6-0.6
					c-0.4,0-0.6,0.4-0.6,0.8c0,0.4,0.2,0.8,0.6,0.8c0.2,0,0.6-0.2,0.6-0.4V795.7z M-55,796.9v-0.2c-0.2,0.2-0.4,0.4-0.6,0.4
					c-0.4,0-0.6-0.2-0.6-0.6c0-0.6,0.4-0.8,1.5-0.8v-0.2c0-0.2-0.2-0.6-0.6-0.6c-0.2,0-0.4,0.2-0.6,0.2l-0.2-0.2
					c0.2-0.2,0.4-0.2,0.6-0.2c0.6,0,0.8,0.4,0.8,1v1.7C-54.8,797.3-55,796.9-55,796.9z M-55,795.7c-0.4,0-1,0.2-1,0.4s0.2,0.4,0.4,0.4
					c0.2,0,0.4-0.2,0.6-0.4V795.7z M-53.3,794v0.6h0.6v0.2h-0.6v1.2c0,0.2,0.2,0.4,0.2,0.4h0.2v0.2c-0.2,0-0.2,0.2-0.4,0.2
					s-0.4-0.2-0.4-0.2c-0.2-0.2-0.2-0.2-0.2-0.6v-1.2h-0.4v-0.2h0.4V794L-53.3,794L-53.3,794z M-51,796.9v-0.2
					c-0.2,0.2-0.4,0.4-0.6,0.4c-0.4,0-0.6-0.2-0.6-0.6c0-0.6,0.4-0.8,1.5-0.8v-0.2c0-0.2-0.2-0.6-0.6-0.6c-0.2,0-0.4,0.2-0.6,0.2
					l-0.2-0.4c0.2-0.2,0.4-0.2,0.6-0.2c0.6,0,0.8,0.4,0.8,1v1.7C-50.8,797.1-51,796.9-51,796.9z M-51.2,795.7c-0.4,0-1,0.2-1,0.4
					s0.2,0.4,0.4,0.4s0.4-0.2,0.6-0.4v-0.2V795.7z M-49.2,795.4v0.2h-1v-0.2H-49.2z M-48.5,795.2v-0.6h0.4v0.4
					c0.2-0.2,0.4-0.4,0.6-0.4s0.8,0.2,0.8,1v1.5h-0.4v-1.5c0-0.4-0.2-0.6-0.6-0.6c-0.2,0-0.4,0.2-0.6,0.4v1.7h-0.4L-48.5,795.2
					L-48.5,795.2z M-43.9,794.6v2.1c0,0.6-0.2,0.8-0.2,1c-0.2,0.2-0.6,0.2-0.8,0.2c-0.2,0-0.6-0.2-0.6-0.2l0.2-0.2
					c0.2,0.2,0.4,0.2,0.6,0.2c0.4,0,0.6-0.2,0.6-0.6v-0.4c-0.2,0.2-0.4,0.4-0.6,0.4c-0.6,0-1-0.4-1-1c0-0.6,0.4-1.2,1-1.2
					c0.4,0,0.6,0.2,0.6,0.4v-0.4C-44.2,794.6-43.9,794.6-43.9,794.6z M-44.4,795.7C-44.4,795.4-44.4,795.4-44.4,795.7
					c-0.2-0.4-0.2-0.6-0.6-0.6c-0.4,0-0.6,0.4-0.6,0.8c0,0.4,0.2,0.8,0.6,0.8c0.2,0,0.4-0.2,0.6-0.4V795.7z M-42.5,795.4v0.2h-1v-0.2
					H-42.5z M-40.6,796.9v-0.2c-0.2,0.2-0.4,0.4-0.6,0.4c-0.4,0-0.6-0.2-0.6-0.6c0-0.6,0.4-0.8,1.5-0.8v-0.2c0-0.2-0.2-0.6-0.6-0.6
					c-0.2,0-0.4,0.2-0.6,0.2l-0.2-0.4c0.2-0.2,0.4-0.2,0.6-0.2c0.6,0,0.8,0.4,0.8,1v1.7C-40.4,797.1-40.6,796.9-40.6,796.9z
					 M-40.6,795.7c-0.4,0-1,0.2-1,0.4s0.2,0.4,0.4,0.4s0.4-0.2,0.6-0.4v-0.2C-40.6,795.9-40.6,795.7-40.6,795.7z M-39.6,795.4v-0.6
					h0.4v0.4c0.2-0.2,0.4-0.4,0.8-0.4c0.6,0,1,0.4,1,1c0,0.8-0.4,1.2-1,1.2c-0.2,0-0.6-0.2-0.6-0.4v1.2h-0.6V795.4z M-39.2,796.1
					c0.2,0.4,0.2,0.6,0.6,0.6s0.6-0.4,0.6-0.8c0-0.4-0.2-0.8-0.6-0.8c-0.2,0-0.6,0.2-0.6,0.4V796.1L-39.2,796.1z M-36.9,795.4v-0.6
					h0.4v0.4c0.2-0.2,0.4-0.4,0.8-0.4c0.6,0,1,0.4,1,1c0,0.8-0.4,1.2-1,1.2c-0.2,0-0.6-0.2-0.6-0.4v1.2h-0.4L-36.9,795.4z
					 M-36.5,796.1c0.2,0.4,0.2,0.6,0.6,0.6c0.4,0,0.6-0.4,0.6-0.8c0-0.4-0.2-0.8-0.6-0.8c-0.2,0-0.6,0.2-0.6,0.4V796.1L-36.5,796.1z"
					/>
				<path fill="#FFFFFF" d="M-34.4,795.4v-0.2h2.5v0.2H-34.4z M-34.4,796.3v-0.2h2.5v0.2H-34.4z"/>
				<path fill="#FFC524" d="M-28.5,796.9v-0.2c-0.2,0.2-0.4,0.4-0.6,0.4c-0.4,0-0.6-0.2-0.6-0.6c0-0.6,0.4-0.8,1.5-0.8v-0.2
					c0-0.2-0.2-0.6-0.6-0.6c-0.2,0-0.4,0.2-0.6,0.2l-0.2-0.4c0.2-0.2,0.4-0.2,0.6-0.2c0.6,0,0.8,0.4,0.8,1v1.7
					C-28.3,797.1-28.5,796.9-28.5,796.9z M-28.8,795.7c-0.4,0-1,0.2-1,0.4s0.2,0.4,0.4,0.4c0.2,0,0.4-0.2,0.6-0.4V795.7z M-27.5,795.4
					v-0.6h0.4v0.4c0.2-0.2,0.4-0.4,0.8-0.4c0.6,0,1,0.4,1,1c0,0.8-0.4,1.2-1,1.2c-0.2,0-0.6-0.2-0.6-0.4v1.2h-0.6
					C-27.5,797.9-27.5,795.4-27.5,795.4z M-27.1,796.1c0.2,0.4,0.2,0.6,0.6,0.6c0.4,0,0.6-0.4,0.6-0.8c0-0.4-0.2-0.8-0.6-0.8
					c-0.2,0-0.6,0.2-0.6,0.4V796.1L-27.1,796.1z M-25,795.4v-0.6h0.4v0.4c0.2-0.2,0.4-0.4,0.8-0.4c0.6,0,1,0.4,1,1
					c0,0.8-0.4,1.2-1,1.2c-0.2,0-0.6-0.2-0.6-0.4v1.2h-0.4L-25,795.4z M-24.4,796.1c0.2,0.4,0.2,0.6,0.6,0.6c0.4,0,0.6-0.4,0.6-0.8
					c0-0.4-0.2-0.8-0.6-0.8c-0.2,0-0.6,0.2-0.6,0.4L-24.4,796.1L-24.4,796.1z"/>
				<path fill="#FFFFFF" d="M-18.5,795.7l-2.3,1v-0.2l1.9-1l-1.9-0.8v-0.2l2.3,1V795.7z"/>
			</g>
		</g>
		<g id="include_1_">
			<g id="include_head">
				<path fill="#FFFFFF" d="M-65.8,789.6l2.7-1.5v0.4l-2.1,1l2.3,1v0.4l-2.7-1.5H-65.8z M-60.8,788.6c0,0.6-0.4,1-0.8,1
					c-0.4,0-0.8-0.4-0.8-1c0-0.6,0.4-1,0.8-1C-61.2,787.5-60.8,788-60.8,788.6z M-62.3,788.6c0,0.4,0.2,0.8,0.4,0.8s0.4-0.4,0.4-0.8
					s-0.2-0.8-0.4-0.8S-62.3,788.2-62.3,788.6z M-61.9,791.3l2.3-3.7h0.2l-2.3,3.7H-61.9z M-58.5,790.2c0,0.6-0.4,1-0.8,1
					c-0.4,0-0.8-0.4-0.8-1c0-0.6,0.4-1,0.8-1C-58.7,789-58.5,789.4-58.5,790.2z M-60,790.2c0,0.4,0.2,0.8,0.4,0.8s0.4-0.4,0.4-0.8
					c0-0.4-0.2-0.8-0.4-0.8S-60,789.8-60,790.2z M-56.2,787.7c0,0.2-0.2,0.2-0.2,0.2l-0.2-0.2c0-0.2,0.2-0.2,0.2-0.2
					S-56.2,787.5-56.2,787.7z M-56.6,791.3v-2.7h0.4v2.7H-56.6z M-55.4,789.2v-0.6h0.4v0.4c0.2-0.2,0.4-0.4,1-0.4c0.4,0,1,0.2,1,1v1.7
					h-0.4v-1.7c0-0.4-0.2-0.8-0.6-0.8c-0.2,0-0.6,0.2-0.6,0.4v1.9H-55L-55.4,789.2L-55.4,789.2z M-50.4,791.1
					c-0.2,0.2-0.4,0.2-0.6,0.2c-0.8,0-1.5-0.6-1.5-1.5s0.6-1.5,1.5-1.5c0.2,0,0.6,0.2,0.6,0.2l-0.2,0.4c-0.2,0-0.4-0.2-0.6-0.2
					c-0.6,0-1,0.4-1,1s0.4,1,1,1c0.2,0,0.4-0.2,0.6-0.2L-50.4,791.1z M-49.8,787.3h0.4v4h-0.4V787.3z M-46.2,790.4v0.6h-0.4v-0.4
					c-0.2,0.2-0.4,0.4-1,0.4c-0.4,0-1-0.2-1-1.2v-1.5h0.6v1.5c0,0.6,0.2,0.8,0.6,0.8c0.4,0,0.6-0.2,0.6-0.4v-1.9h0.4v2.3L-46.2,790.4
					L-46.2,790.4z M-42.9,787.3v4h-0.4v-0.4c-0.2,0.2-0.4,0.6-1,0.6s-1-0.6-1-1.5c0-1,0.6-1.5,1.2-1.5c0.4,0,0.6,0.2,0.8,0.4v-1.7
					L-42.9,787.3L-42.9,787.3z M-43.5,789.6C-43.5,789.4-43.5,789.4-43.5,789.6c-0.2-0.4-0.4-0.6-0.6-0.6c-0.4,0-0.8,0.4-0.8,1
					c0,0.6,0.2,1,0.8,1c0.4,0,0.6-0.2,0.6-0.6V789.6L-43.5,789.6z M-41.9,790c0,0.6,0.4,1,1,1c0.4,0,0.6-0.2,0.6-0.2l0.2,0.4
					c-0.2,0.2-0.4,0.2-1,0.2c-0.8,0-1.5-0.6-1.5-1.5s0.4-1.5,1.5-1.5c0.8,0,1,0.6,1,1.5v0.2h-1.9V790z M-40.4,789.6
					c0-0.2-0.2-0.8-0.6-0.8c-0.4,0-0.6,0.4-0.6,0.8H-40.4z M-38.1,789.2v-0.6h0.4v0.4c0.2-0.2,0.4-0.4,0.8-0.4c0.4,0,0.6,0.2,0.6,0.6
					c0.2-0.2,0.2-0.2,0.2-0.4c0.2-0.2,0.4-0.2,0.6-0.2c0.4,0,1,0.2,1,1.2v1.7h-0.4v-1.7c0-0.6-0.2-0.8-0.6-0.8c-0.2,0-0.4,0.2-0.6,0.4
					v1.9h-0.4v-1.5c0-0.4-0.2-0.6-0.6-0.6c-0.2,0-0.6,0.2-0.6,0.4v1.9h-0.4V789.2z M-31.9,791.3v-0.4c-0.2,0.2-0.4,0.4-0.8,0.4
					c-0.6,0-0.8-0.4-0.8-0.6c0-0.6,0.6-1,1.7-1v-0.2c0-0.2-0.2-0.6-0.6-0.6c-0.2,0-0.6,0.2-0.6,0.2l-0.2-0.2c0.2-0.2,0.6-0.2,1-0.2
					c0.8,0,1,0.6,1,1v1.7H-31.9z M-31.9,789.8c-0.6,0-1,0.2-1,0.6c0,0.2,0.2,0.4,0.4,0.4c0.4,0,0.6-0.2,0.6-0.4V789.8L-31.9,789.8z
					 M-30,787.7c0,0.2-0.2,0.2-0.2,0.2l-0.2-0.2c0-0.2,0.2-0.2,0.2-0.2C-30.2,787.3-30,787.5-30,787.7z M-30.6,791.3v-2.7h0.4v2.7
					H-30.6z M-29.4,789.2v-0.6h0.4v0.4c0.2-0.2,0.4-0.4,1-0.4c0.4,0,1,0.2,1,1v1.7h-0.6v-1.7c0-0.4-0.2-0.8-0.6-0.8
					c-0.2,0-0.6,0.2-0.6,0.4v1.9h-0.4L-29.4,789.2L-29.4,789.2z M-26.7,791.5l1.7-4h0.4l-1.7,4H-26.7z M-21.5,787.3h0.4v1.7l0.4-0.4
					c0.2,0,0.2-0.2,0.6-0.2s1,0.2,1,1v1.7h-0.6v-1.7c0-0.4-0.2-0.8-0.6-0.8c-0.2,0-0.6,0.2-0.6,0.4v2.1h-0.4
					C-21.3,791.1-21.5,787.3-21.5,787.3z M-17.9,790c0,0.6,0.4,1,1,1c0.4,0,0.6-0.2,0.6-0.2l0.2,0.2c-0.2,0.2-0.4,0.2-1,0.2
					c-0.8,0-1.5-0.6-1.5-1.5s0.4-1.5,1.5-1.5s1,0.6,1,1.5v0.2C-16.1,790-17.9,790-17.9,790z M-16.5,789.6c0-0.2-0.2-0.8-0.6-0.8
					s-0.6,0.4-0.6,0.8H-16.5z M-13.8,791.3v-0.4c-0.2,0.2-0.4,0.4-0.8,0.4c-0.6,0-0.8-0.4-0.8-0.6c0-0.6,0.6-1,1.7-1v-0.2
					c0-0.2-0.2-0.6-0.6-0.6c-0.2,0-0.6,0.2-0.6,0.2l-0.2-0.2c0.2-0.2,0.6-0.2,1-0.2c0.8,0,1,0.6,1,1v1.7H-13.8z M-14,789.8
					c-0.6,0-1,0.2-1,0.6c0,0.2,0.2,0.4,0.4,0.4c0.4,0,0.6-0.2,0.6-0.4V789.8L-14,789.8z M-10.4,787.3v4h-0.4v-0.4
					c-0.2,0.2-0.4,0.6-1,0.6c-0.6,0-1-0.6-1-1.5c0-1,0.6-1.5,1.2-1.5c0.4,0,0.6,0.2,0.8,0.4v-1.7L-10.4,787.3L-10.4,787.3z
					 M-10.8,789.6C-10.8,789.4-10.8,789.4-10.8,789.6c-0.2-0.4-0.4-0.6-0.6-0.6c-0.4,0-0.8,0.4-0.8,1c0,0.6,0.2,1,0.8,1
					c0.4,0,0.6-0.2,0.6-0.6V789.6L-10.8,789.6z M-8.3,789.4v0.4h-1.5v-0.4H-8.3z M-7.7,787.3h0.4v1.7l0.4-0.4c0.2-0.2,0.2-0.2,0.4-0.2
					c0.4,0,1,0.2,1,1v1.7h-0.4v-1.7c0-0.4-0.2-0.8-0.6-0.8c-0.2,0-0.6,0.2-0.6,0.4v2.1h-0.4v-3.7H-7.7z M-4.2,787.7v0.6h0.6v0.4h-0.6
					v1.5c0,0.4,0.2,0.6,0.4,0.6h0.2v0.4c-0.2,0-0.2,0.2-0.4,0.2c-0.2,0-0.4-0.2-0.6-0.2c-0.2-0.2-0.2-0.4-0.2-0.6V789h-0.6v-0.4H-5
					V788L-4.2,787.7L-4.2,787.7z M-2.7,789.2v-0.6h0.4v0.4c0.2-0.2,0.4-0.4,0.8-0.4s0.6,0.2,0.6,0.6c0.2-0.2,0.2-0.2,0.2-0.4
					c0.2-0.2,0.4-0.2,0.6-0.2c0.4,0,1,0.2,1,1.2v1.7H0.6v-1.7c0-0.6-0.2-0.8-0.6-0.8c-0.2,0-0.4,0.2-0.6,0.4v1.9h-0.4v-1.5
					c0-0.4-0.2-0.6-0.6-0.6c-0.2,0-0.6,0.2-0.6,0.4v1.9h-0.4V789.2z M2.1,787.3h0.4v4H2.1V787.3z M5.8,788.6c0,0.6-0.4,1-0.8,1
					s-0.8-0.4-0.8-1c0-0.6,0.4-1,0.8-1C5.6,787.5,5.8,788,5.8,788.6z M4.6,788.6c0,0.4,0.2,0.8,0.4,0.8c0.2,0,0.4-0.4,0.4-0.8
					s-0.2-0.8-0.4-0.8C4.8,787.7,4.6,788.2,4.6,788.6z M5,791.3l2.3-3.7h0.2l-2.3,3.7H5z M8.3,790.2c0,0.6-0.4,1-0.8,1s-0.8-0.4-0.8-1
					c0-0.6,0.4-1,0.8-1C7.9,789,8.3,789.4,8.3,790.2z M7.1,790.2c0,0.4,0.2,0.8,0.4,0.8s0.4-0.4,0.4-0.8c0-0.4-0.2-0.8-0.4-0.8
					S7.1,789.8,7.1,790.2z M11.4,789.8l-2.7,1.5v-0.4l2.3-1l-2.3-1v-0.4L11.4,789.8z"/>
			</g>
		</g>
		<g id="html-eng">
			<g id="engl">
				<path fill="#14DD31" d="M-60.4,780.5h0.4v4h-0.4V780.5z M-57.7,784.4V784c-0.2,0.2-0.4,0.4-0.8,0.4c-0.6,0-0.8-0.4-0.8-0.6
					c0-0.6,0.6-1,1.7-1v-0.2c0-0.2-0.2-0.6-0.6-0.6c-0.2,0-0.6,0.2-0.6,0.2l-0.2-0.2c0.2-0.2,0.6-0.2,1-0.2c0.8,0,1,0.6,1,1v1.7H-57.7
					z M-57.7,783.2c-0.6,0-1,0.2-1,0.6c0,0.2,0.2,0.4,0.4,0.4c0.4,0,0.6-0.2,0.6-0.4V783.2z M-56.4,782.3v-0.6h0.4v0.4
					c0.2-0.2,0.4-0.4,1-0.4c0.4,0,1,0.2,1,1v1.7h-0.4v-1.7c0-0.4-0.2-0.8-0.6-0.8c-0.2,0-0.6,0.2-0.6,0.4v1.9H-56L-56.4,782.3
					L-56.4,782.3z M-50.8,781.7v2.3c0,0.6-0.2,1-0.4,1.2c-0.2,0.2-0.6,0.2-1,0.2c-0.2,0-0.6-0.2-1-0.2l0.2-0.4
					c0.2,0.2,0.4,0.2,0.8,0.2c0.4,0,0.8-0.2,0.8-1v-0.2c-0.2,0.2-0.4,0.4-0.8,0.4c-0.6,0-1-0.6-1-1.5c0-1,0.6-1.5,1.2-1.5
					c0.4,0,0.6,0.2,0.8,0.4v-0.4L-50.8,781.7z M-51.4,782.7c-0.2-0.4-0.4-0.6-0.6-0.6c-0.4,0-0.8,0.4-0.8,1s0.2,1,0.8,1
					c0.2,0,0.6-0.2,0.6-0.4V782.7z"/>
				<path fill="#FFFFFF" d="M-50.4,782.5v-0.2h2.9v0.4L-50.4,782.5z M-50.4,783.6v-0.4h2.9v0.4H-50.4z M-46.2,780.7l-0.2,1.5h-0.2
					l-0.2-1.5C-46.9,780.7-46.2,780.7-46.2,780.7z M-45.4,780.7l-0.2,1.5h-0.2l-0.2-1.5C-46,780.7-45.4,780.7-45.4,780.7z"/>
				<path fill="#EFB90A" d="M-44.6,783.2c0,0.6,0.4,1,1,1c0.4,0,0.6-0.2,0.6-0.2l0.2,0.4c-0.2,0.2-0.4,0.2-1,0.2
					c-0.8,0-1.5-0.6-1.5-1.5c0-0.8,0.4-1.5,1.5-1.5c0.8,0,1,0.6,1,1.5v0.2h-1.9C-44.6,783.4-44.6,783.2-44.6,783.2z M-43.1,782.7
					c0-0.2-0.2-0.8-0.6-0.8c-0.4,0-0.6,0.4-0.6,0.8C-44.4,782.7-43.1,782.7-43.1,782.7z M-42.1,782.3v-0.6h0.4v0.4
					c0.2-0.2,0.4-0.4,1-0.4c0.4,0,1,0.2,1,1v1.7h-0.6v-1.7c0-0.4-0.2-0.8-0.6-0.8c-0.2,0-0.6,0.2-0.6,0.4v1.9h-0.4
					C-42.1,784.2-42.1,782.3-42.1,782.3L-42.1,782.3z"/>
				<path fill="#FFFFFF" d="M-38.5,780.7l-0.2,1.5H-39l-0.2-1.5H-38.5z M-37.7,780.7l-0.2,1.5h-0.2l-0.2-1.5H-37.7z M-34.4,783.2
					l-2.7,1.5v-0.4l2.3-1l-2.3-1v-0.4L-34.4,783.2z"/>
			</g>
			<g id="html-1">
				<path fill="#FFFFFF" d="M-76.2,782.7l2.7-1.5v0.4l-2.3,1l2.3,1.2v0.4l-2.7-1.5V782.7z M-72.7,780.5h0.4v1.7l0.4-0.4
					c0.2-0.2,0.2-0.2,0.4-0.2c0.4,0,1,0.2,1,1v1.7h-0.4v-1.5c0-0.4-0.2-0.8-0.6-0.8c-0.2,0-0.6,0.2-0.6,0.4v1.9h-0.4v-3.7L-72.7,780.5
					z M-68.9,781.1v0.6h0.6v0.4h-0.6v1.5c0,0.2,0.2,0.6,0.4,0.6h0.2v0.4c-0.2,0-0.2,0.2-0.4,0.2c-0.2,0-0.4-0.2-0.6-0.2
					c-0.2-0.2-0.2-0.4-0.2-0.8v-1.5H-70v-0.4h0.4v-0.6L-68.9,781.1z M-67.7,782.3v-0.6h0.4v0.4c0.2-0.2,0.4-0.4,0.8-0.4
					s0.6,0.2,0.6,0.6c0.2-0.2,0.2-0.2,0.2-0.4c0.2-0.2,0.4-0.2,0.6-0.2c0.4,0,1,0.2,1,1.2v1.7h-0.4v-1.5c0-0.6-0.2-0.8-0.6-0.8
					c-0.2,0-0.4,0.2-0.6,0.4v1.9H-66V783c0-0.4-0.2-0.6-0.6-0.6c-0.2,0-0.6,0.2-0.6,0.4v1.9h-0.6v-2.3H-67.7z M-62.9,780.5h0.4v4h-0.4
					V780.5z"/>
			</g>
		</g>
		<g id="doctype_1_">
			<g id="doctype">
				<path fill="#A20000" d="M-77.9,776.1l2.7-1.5v0.4l-2.3,1l2.3,1v0.4L-77.9,776.1z"/>
				<path fill="#C90D0D" d="M-74.6,777.3c0-0.2,0.2-0.4,0.4-0.4s0.4,0.2,0.4,0.4c0,0.2-0.2,0.4-0.4,0.4S-74.6,777.5-74.6,777.3z
					 M-74.6,776.5l-0.2-2.7h0.6l-0.2,2.7C-74.3,776.5-74.6,776.5-74.6,776.5z M-73.3,774c0.2,0,0.6-0.2,1-0.2c0.6,0,1.2,0.2,1.5,0.4
					c0.4,0.2,0.6,0.6,0.6,1.5c0,0.6-0.2,1.2-0.4,1.7c-0.4,0.4-1,0.6-1.7,0.6h-0.8C-73.3,777.8-73.3,774-73.3,774z M-72.7,777.3h0.4
					c1,0,1.7-0.6,1.7-1.7c0-1-0.4-1.5-1.5-1.5c-0.2,0-0.4,0-0.6,0.2V777.3z M-66.2,775.7c0,1.5-0.6,1.9-1.9,1.9c-1,0-1.7-0.6-1.7-1.9
					s0.6-1.9,1.9-1.9S-66.2,774.6-66.2,775.7z M-69.1,775.7c0,0.8,0.4,1.5,1.2,1.5c0.8,0,1.2-0.6,1.2-1.7c0-0.6-0.4-1.5-1.2-1.5
					C-68.7,774.2-69.1,775-69.1,775.7z M-62.9,777.5c-0.2,0.2-0.6,0.2-1,0.2c-1,0-1.9-0.6-1.9-1.9c0-1.2,0.8-1.9,1.9-1.9
					c0.4,0,0.6,0.2,1,0.2v0.6c-0.2-0.2-0.4-0.2-0.6-0.2c-0.8,0-1.5,0.6-1.5,1.7s0.6,1.5,1.5,1.5C-63.3,777.5-63.1,777.3-62.9,777.5z
					 M-61.4,774.2h-1v-0.4h2.7v0.4h-1v3.3h-0.4L-61.4,774.2z M-58.3,777.8v-1.7l-1.2-2.3h0.6l0.6,1c0.2,0.2,0.2,0.6,0.4,0.6
					c0.2-0.2,0.2-0.4,0.4-0.6l0.6-1h0.4l-1.5,2.3v1.7H-58.3z M-56.2,774c0.2,0,0.6-0.2,1-0.2c0.4,0,0.8,0.2,1,0.2
					c0.2,0.2,0.4,0.4,0.4,0.6c0,0.4-0.2,0.6-0.2,0.8c-0.2,0.2-0.6,0.4-1,0.4h-0.4v1.5h-0.4C-55.8,777.3-56.2,774-56.2,774z
					 M-55.6,775.7h0.4c0.6,0,1-0.2,1-0.8c0-0.4-0.4-0.6-1-0.6h-0.4V775.7L-55.6,775.7z M-51.2,775.9h-1.5v1.5h1.9v0.4h-2.3V774h2.1
					v0.4h-1.7v1.2h1.5V775.9L-51.2,775.9z"/>
				<path fill="#FFFFFF" d="M-49.2,773.6h0.4v1.7l0.4-0.4c0.2-0.2,0.2-0.2,0.4-0.2c0.4,0,1,0.2,1,1v1.7h-0.4v-1.5
					c0-0.4-0.2-0.8-0.6-0.8c-0.2,0-0.6,0.2-0.6,0.4v1.9h-0.4C-49.2,777.5-49.2,773.6-49.2,773.6L-49.2,773.6z M-45.4,774.2v0.6h0.6
					v0.4h-0.6v1.5c0,0.4,0.2,0.6,0.4,0.6h0.2v0.4c-0.2,0-0.2,0.2-0.4,0.2s-0.4-0.2-0.6-0.2c-0.2-0.2-0.2-0.4-0.2-0.6v-1.5h-0.4v-0.4
					h0.4v-0.6L-45.4,774.2z M-44.2,775.7V775h0.4v0.4c0.2-0.2,0.4-0.4,0.8-0.4c0.4,0,0.6,0.2,0.6,0.6c0.2-0.2,0.2-0.2,0.2-0.4
					c0.2-0.2,0.4-0.2,0.6-0.2c0.4,0,1,0.2,1,1.2v1.7h-0.4v-1.5c0-0.6-0.2-0.8-0.6-0.8c-0.2,0-0.4,0.2-0.6,0.4v1.9h-0.4v-1.7
					c0-0.4-0.2-0.6-0.6-0.6c-0.2,0-0.6,0.2-0.6,0.4v1.9h-0.2L-44.2,775.7z M-39.4,773.6h0.4v4h-0.4V773.6z"/>
				<path fill="#A20000" d="M-35.4,776.3l-2.7,1.5v-0.4l2.3-1l-2.3-1v-0.4L-35.4,776.3z"/>
			</g>
		</g>
</svg>
