<?xml version="1.0" encoding="utf-8"?>
<!-- Generator: Adobe Illustrator 18.0.0, SVG Export Plug-In . SVG Version: 6.00 Build 0)  -->
<!DOCTYPE svg PUBLIC "-//W3C//DTD SVG 1.1//EN" "http://www.w3.org/Graphics/SVG/1.1/DTD/svg11.dtd">
<svg version="1.1" id="Capa_1" xmlns="http://www.w3.org/2000/svg" xmlns:xlink="http://www.w3.org/1999/xlink" x="0px" y="0px"
	 width="60px" height="60px" viewBox="0 0 60 60" enable-background="new 0 0 60 60" xml:space="preserve">

	<path id="LinkedIn_1_" fill="#93B2B0" d="M53,35v17.2H43V36.2c0-4-1.4-6.8-5.1-6.8c-2.8,0-4.4,1.9-5.1,3.7
		c-0.3,0.6-0.3,1.5-0.3,2.4v16.8h-10c0,0,0.1-27.2,0-30.1h10v4.3c0,0,0,0.1-0.1,0.1h0.1v-0.1c1.3-2,3.7-5,9-5
		C48.1,21.5,53,25.8,53,35z M12.1,7.7c-3.4,0-5.7,2.2-5.7,5.2c0,2.9,2.2,5.2,5.5,5.2H12c3.5,0,5.7-2.3,5.7-5.2
		C17.6,10,15.5,7.7,12.1,7.7z M7,52.3h10V22.2H7V52.3z"/>

</svg>
