<?xml version="1.0" encoding="utf-8"?>
<!-- Generator: Adobe Illustrator 18.0.0, SVG Export Plug-In . SVG Version: 6.00 Build 0)  -->
<!DOCTYPE svg PUBLIC "-//W3C//DTD SVG 1.1//EN" "http://www.w3.org/Graphics/SVG/1.1/DTD/svg11.dtd">
<svg version="1.1" id="Capa_1" xmlns="http://www.w3.org/2000/svg" xmlns:xlink="http://www.w3.org/1999/xlink" x="0px" y="0px"
	 viewBox="0 0 36.7 53.2" enable-background="new 0 0 36.7 53.2" xml:space="preserve">
<g>
	<path fill="#0E92A0" d="M35.1,42.7c0.5,1.3-0.1,2.9-1.4,3.4l-12.8,5.3c-1.3,0.6-2.9-0.1-3.4-1.4L0.7,9.4C0.2,8.1,0.8,6.5,2.1,6
		l12.8-5.3c1.3-0.6,2.9,0.1,3.4,1.4L35.1,42.7z"/>
	<path fill="#C45884" d="M24.9,18.1L18.3,2.1c-0.5-1.3-2.1-2-3.4-1.4L2.1,6c-1.3,0.5-2,2.1-1.4,3.4l6.6,15.9L24.9,18.1z"/>
	<path fill="#AF4A78" d="M19.4,4.8c0.2,0.4,0,1-0.5,1.1L3,12.6c-0.4,0.2-1,0-1.1-0.5L0.1,7.8c-0.2-0.4,0-1,0.5-1.1l16-6.6
		c0.4-0.2,1,0,1.1,0.5L19.4,4.8z"/>
	<rect x="0" y="5.4" transform="matrix(0.9245 -0.3813 0.3813 0.9245 -1.516 4.0925)" fill="#F2C7C7" width="19" height="1"/>
</g>
</svg>
