<?xml version="1.0" encoding="utf-8"?>
<!-- Generator: Adobe Illustrator 18.0.0, SVG Export Plug-In . SVG Version: 6.00 Build 0)  -->
<!DOCTYPE svg PUBLIC "-//W3C//DTD SVG 1.1//EN" "http://www.w3.org/Graphics/SVG/1.1/DTD/svg11.dtd">
<svg version="1.1" id="Capa_1" xmlns="http://www.w3.org/2000/svg" xmlns:xlink="http://www.w3.org/1999/xlink" x="0px" y="0px"
	 viewBox="230 328.8 224 309.6" enable-background="new 230 328.8 224 309.6" xml:space="preserve">
<g>
	<g>
		<path fill="#BCBABF" d="M324.3,638.1c-14.9,2.4-29-7.9-31.5-22.8L254.7,376c-2.2-14.9,7.9-29,22.8-31.5l97-15.3
			c14.9-2.4,29,7.9,31.5,22.8l38.1,239.3c2.4,14.9-7.9,29-22.8,31.5L324.3,638.1z"/>
		<path fill="#333333" d="M439.6,591.9c2,12.5-6.7,24.4-19.2,26.4l-97,15.3c-12.5,2-24.4-6.7-26.4-19.2l-37.9-239.3
			c-2-12.5,6.7-24.4,19.2-26.4l97-15.3c12.5-2,24.4,6.7,26.4,19.2L439.6,591.9z"/>
		<path fill="#525252" d="M438.8,602.6c-40.7-59.1-116.1-169.4-168-251.2c-8.5,4.4-13.5,13.9-11.9,24l38.1,239.3
			c2,12.5,13.9,21.2,26.4,19.2l97-15.3C429.4,616.9,436.4,610.7,438.8,602.6z"/>
	</g>
	
		<rect x="282" y="360.8" transform="matrix(-0.9876 0.1571 -0.1571 -0.9876 768.9263 899.5991)" fill="#1F1919" width="133.9" height="238.7"/>
	<path opacity="0.3" fill="#333333" enable-background="new    " d="M282.8,369.7l-18.8,3l37.5,235.9l127.6-20.4
		C390.2,531.8,329.3,442.7,282.8,369.7z"/>
	<g>
		<path fill="#BCBABF" d="M354.3,624.2c-4.8,0.8-9.5-2.6-10.3-7.5c-0.8-4.8,2.6-9.5,7.5-10.3l33.9-5.4c4.8-0.8,9.5,2.6,10.3,7.5
			c0.8,4.8-2.6,9.5-7.5,10.3L354.3,624.2z"/>
		<path fill="#1F1919" d="M394.3,608.6c0.6,4-2.2,7.9-6.3,8.7l-33.9,5.4c-4,0.6-7.9-2.2-8.7-6.3l0,0c-0.6-4,2.2-7.9,6.3-8.7
			l33.9-5.4C389.8,601.8,393.7,604.6,394.3,608.6L394.3,608.6z"/>
		<path fill="#333333" d="M385.6,602.4l-26.8,4.2c6,5.4,15.3,10.7,28.2,10.7l0.8-0.2c4-0.6,6.9-4.4,6.3-8.7
			C393.7,604.6,389.8,601.8,385.6,602.4z"/>
	</g>
</g>
<circle id="light-green" fill="#09AA09" cx="376.1" cy="344.5" r="4"/>
</svg>
