<?xml version="1.0" encoding="utf-8"?>
<!-- Generator: Adobe Illustrator 18.0.0, SVG Export Plug-In . SVG Version: 6.00 Build 0)  -->
<!DOCTYPE svg PUBLIC "-//W3C//DTD SVG 1.1//EN" "http://www.w3.org/Graphics/SVG/1.1/DTD/svg11.dtd">
<svg version="1.1" id="tablet" xmlns="http://www.w3.org/2000/svg" xmlns:xlink="http://www.w3.org/1999/xlink" x="0px" y="0px"
	 viewBox="0.1 384.1 200 231.8" enable-background="new 0.1 384.1 200 231.8" xml:space="preserve">
<g>
	<g>
		<g>
			<path fill="#424242" d="M147.6,608c-1.8,5.9-8,9.2-14,7.4L8,577.4c-5.9-1.8-9.2-8.1-7.4-14L52.4,392c1.8-5.9,8.1-9.2,14-7.4
				l125.7,38c5.9,1.8,9.2,8.1,7.4,14L147.6,608z"/>
			<path fill="#424242" d="M145.9,607.5c-1.6,5-6.9,7.9-11.9,6.3L8.4,575.7c-5-1.6-7.9-6.9-6.3-11.9L54,392.5
				c1.6-5,6.9-7.9,11.9-6.3l125.7,38c5,1.6,7.9,6.9,6.3,11.9L145.9,607.5z"/>
		</g>
		
			<rect x="28.1" y="414.4" transform="matrix(-0.9567 -0.2911 0.2911 -0.9567 51.9915 1003.2892)" fill="#2C2E3A" width="145.1" height="166.7"/>
		<circle fill="#211F1F" cx="73.6" cy="586.6" r="6.5"/>
		<path fill="#343A54" d="M136.3,415.6l-19.3-5.9c-0.2-0.1-0.3-0.2-0.2-0.4v-0.1c0.1-0.2,0.2-0.3,0.4-0.2l19.3,5.9
			c0.2,0.1,0.3,0.2,0.2,0.4v0.1C136.6,415.5,136.5,415.6,136.3,415.6z"/>
		<circle fill="#343A54" cx="113.7" cy="408.3" r="1"/>
	</g>
</g>
<rect x="35" y="422.5" transform="matrix(-0.9567 -0.2911 0.2911 -0.9567 51.835 1003.9679)" fill="#FFFFFF" width="131.2" height="151.2"/>
<rect id="red" x="63.2" y="442.1" transform="matrix(-0.9567 -0.2911 0.2911 -0.9567 92.9844 923.5541)" fill="#FF6B6B" width="104" height="25.5"/>
<rect x="53.2" y="467.7" transform="matrix(-0.9567 -0.2911 0.2911 -0.9567 14.4645 963.0999)" opacity="0.8" fill="#D8D8D8" enable-background="new    " width="51.3" height="25.5"/>
<rect x="106.4" y="484" transform="matrix(-0.9567 -0.2911 0.2911 -0.9567 113.8718 1010.4854)" opacity="0.8" fill="#D8D8D8" enable-background="new    " width="51.3" height="25.5"/>
<rect x="37.8" y="505.1" transform="matrix(-0.9567 -0.2911 0.2911 -0.9567 23.6801 1068.9258)" opacity="0.8" fill="#D8D8D8" enable-background="new    " width="107.1" height="55.2"/>
<circle fill="#19CC0A" cx="182.3" cy="427.5" r="1.5"/>
</svg>
