<?xml version="1.0" encoding="utf-8"?>
<!-- Generator: Adobe Illustrator 18.0.0, SVG Export Plug-In . SVG Version: 6.00 Build 0)  -->
<!DOCTYPE svg PUBLIC "-//W3C//DTD SVG 1.1//EN" "http://www.w3.org/Graphics/SVG/1.1/DTD/svg11.dtd">
<svg version="1.1" id="Capa_1" xmlns="http://www.w3.org/2000/svg" xmlns:xlink="http://www.w3.org/1999/xlink" x="0px" y="0px"
	 width="60px" height="60px" viewBox="0 0 60 60" enable-background="new 0 0 60 60" xml:space="preserve">
<path fill="#93B2B0" d="M57.1,12.5c-2,0.9-4.2,1.5-6.5,1.8c2.3-1.4,4.1-3.6,5-6.2c-2.2,1.3-4.6,2.2-7.2,2.7c-2.1-2.2-5-3.6-8.3-3.6
	c-6.3,0-11.3,5-11.3,11.2c0,0.9,0.1,1.7,0.3,2.6c-9.4-0.5-17.8-4.9-23.4-11.7c-1,1.7-1.5,3.6-1.5,5.7c0,3.9,2,7.3,5,9.4
	c-1.9-0.1-3.6-0.6-5.1-1.4c0,0,0,0.1,0,0.1c0,5.4,3.9,10,9.1,11c-0.9,0.3-2,0.4-3,0.4c-0.7,0-1.4-0.1-2.1-0.2
	c1.4,4.5,5.6,7.7,10.6,7.8c-3.9,3-8.8,4.8-14.1,4.8c-0.9,0-1.8-0.1-2.7-0.2c5,3.2,11,5.1,17.4,5.1c20.8,0,32.2-17.1,32.2-32
	c0-0.5,0-1,0-1.5C53.7,16.7,55.6,14.8,57.1,12.5z"/>
</svg>
